<?xml version="1.0" encoding="utf-8" standalone="no"?>
<!DOCTYPE svg PUBLIC "-//W3C//DTD SVG 1.1//EN"
  "http://www.w3.org/Graphics/SVG/1.1/DTD/svg11.dtd">
<svg xmlns:xlink="http://www.w3.org/1999/xlink" width="460.8pt" height="345.6pt" viewBox="0 0 460.8 345.6" xmlns="http://www.w3.org/2000/svg" version="1.1">
 <metadata>
  <rdf:RDF xmlns:dc="http://purl.org/dc/elements/1.1/" xmlns:cc="http://creativecommons.org/ns#" xmlns:rdf="http://www.w3.org/1999/02/22-rdf-syntax-ns#">
   <cc:Work>
    <dc:type rdf:resource="http://purl.org/dc/dcmitype/StillImage"/>
    <dc:format>image/svg+xml</dc:format>
    <dc:creator>
     <cc:Agent>
      <dc:title>Matplotlib v3.5.3, https://matplotlib.org/</dc:title>
     </cc:Agent>
    </dc:creator>
   </cc:Work>
  </rdf:RDF>
 </metadata>
 <defs>
  <style type="text/css">*{stroke-linejoin: round; stroke-linecap: butt}</style>
 </defs>
 <g id="figure_1">
  <g id="patch_1">
   <path d="M 0 345.6 
L 460.8 345.6 
L 460.8 0 
L 0 0 
z
" style="fill: #ffffff"/>
  </g>
  <g id="axes_1">
   <g id="patch_2">
    <path d="M 52.50125 318.121875 
L 450 318.121875 
L 450 12.212505 
L 52.50125 12.212505 
z
" style="fill: #e5e5e5"/>
   </g>
   <g id="matplotlib.axis_1">
    <g id="xtick_1">
     <g id="line2d_1">
      <path d="M 162.738758 318.121875 
L 162.738758 12.212505 
" clip-path="url(#p7272bef656)" style="fill: none; stroke: #ffffff; stroke-width: 0.8; stroke-linecap: square"/>
     </g>
     <g id="line2d_2">
      <defs>
       <path id="md9956f434b" d="M 0 0 
L 0 3.5 
" style="stroke: #555555; stroke-width: 0.8"/>
      </defs>
      <g>
       <use xlink:href="#md9956f434b" x="162.738758" y="318.121875" style="fill: #555555; stroke: #555555; stroke-width: 0.8"/>
      </g>
     </g>
     <g id="text_1">
      <text style="fill: #555555; font: 10px 'Verdana'; text-anchor: middle" x="162.738758" y="332.720312" transform="rotate(-0, 162.738758, 332.720312)">mandelbrot.bf</text>
     </g>
    </g>
    <g id="xtick_2">
     <g id="line2d_3">
      <path d="M 352.929547 318.121875 
L 352.929547 12.212505 
" clip-path="url(#p7272bef656)" style="fill: none; stroke: #ffffff; stroke-width: 0.8; stroke-linecap: square"/>
     </g>
     <g id="line2d_4">
      <g>
       <use xlink:href="#md9956f434b" x="352.929547" y="318.121875" style="fill: #555555; stroke: #555555; stroke-width: 0.8"/>
      </g>
     </g>
     <g id="text_2">
      <text style="fill: #555555; font: 10px 'Verdana'; text-anchor: middle" x="352.929547" y="332.720312" transform="rotate(-0, 352.929547, 332.720312)">factor.bf</text>
     </g>
    </g>
   </g>
   <g id="matplotlib.axis_2">
    <g id="ytick_1">
     <g id="line2d_5">
      <path d="M 52.50125 318.121875 
L 450 318.121875 
" clip-path="url(#p7272bef656)" style="fill: none; stroke: #ffffff; stroke-width: 0.8; stroke-linecap: square"/>
     </g>
     <g id="line2d_6">
      <defs>
       <path id="mf716fc9c56" d="M 0 0 
L -3.5 0 
" style="stroke: #555555; stroke-width: 0.8"/>
      </defs>
      <g>
       <use xlink:href="#mf716fc9c56" x="52.50125" y="318.121875" style="fill: #555555; stroke: #555555; stroke-width: 0.8"/>
      </g>
     </g>
     <g id="text_3">
      <text style="fill: #555555; font: 10px 'Verdana'; text-anchor: end" x="45.50125" y="321.921094" transform="rotate(-0, 45.50125, 321.921094)">0</text>
     </g>
    </g>
    <g id="ytick_2">
     <g id="line2d_7">
      <path d="M 52.50125 257.488731 
L 450 257.488731 
" clip-path="url(#p7272bef656)" style="fill: none; stroke: #ffffff; stroke-width: 0.8; stroke-linecap: square"/>
     </g>
     <g id="line2d_8">
      <g>
       <use xlink:href="#mf716fc9c56" x="52.50125" y="257.488731" style="fill: #555555; stroke: #555555; stroke-width: 0.8"/>
      </g>
     </g>
     <g id="text_4">
      <text style="fill: #555555; font: 10px 'Verdana'; text-anchor: end" x="45.50125" y="261.28795" transform="rotate(-0, 45.50125, 261.28795)">20</text>
     </g>
    </g>
    <g id="ytick_3">
     <g id="line2d_9">
      <path d="M 52.50125 196.855587 
L 450 196.855587 
" clip-path="url(#p7272bef656)" style="fill: none; stroke: #ffffff; stroke-width: 0.8; stroke-linecap: square"/>
     </g>
     <g id="line2d_10">
      <g>
       <use xlink:href="#mf716fc9c56" x="52.50125" y="196.855587" style="fill: #555555; stroke: #555555; stroke-width: 0.8"/>
      </g>
     </g>
     <g id="text_5">
      <text style="fill: #555555; font: 10px 'Verdana'; text-anchor: end" x="45.50125" y="200.654806" transform="rotate(-0, 45.50125, 200.654806)">40</text>
     </g>
    </g>
    <g id="ytick_4">
     <g id="line2d_11">
      <path d="M 52.50125 136.222443 
L 450 136.222443 
" clip-path="url(#p7272bef656)" style="fill: none; stroke: #ffffff; stroke-width: 0.8; stroke-linecap: square"/>
     </g>
     <g id="line2d_12">
      <g>
       <use xlink:href="#mf716fc9c56" x="52.50125" y="136.222443" style="fill: #555555; stroke: #555555; stroke-width: 0.8"/>
      </g>
     </g>
     <g id="text_6">
      <text style="fill: #555555; font: 10px 'Verdana'; text-anchor: end" x="45.50125" y="140.021662" transform="rotate(-0, 45.50125, 140.021662)">60</text>
     </g>
    </g>
    <g id="ytick_5">
     <g id="line2d_13">
      <path d="M 52.50125 75.589299 
L 450 75.589299 
" clip-path="url(#p7272bef656)" style="fill: none; stroke: #ffffff; stroke-width: 0.8; stroke-linecap: square"/>
     </g>
     <g id="line2d_14">
      <g>
       <use xlink:href="#mf716fc9c56" x="52.50125" y="75.589299" style="fill: #555555; stroke: #555555; stroke-width: 0.8"/>
      </g>
     </g>
     <g id="text_7">
      <text style="fill: #555555; font: 10px 'Verdana'; text-anchor: end" x="45.50125" y="79.388517" transform="rotate(-0, 45.50125, 79.388517)">80</text>
     </g>
    </g>
    <g id="ytick_6">
     <g id="line2d_15">
      <path d="M 52.50125 14.956155 
L 450 14.956155 
" clip-path="url(#p7272bef656)" style="fill: none; stroke: #ffffff; stroke-width: 0.8; stroke-linecap: square"/>
     </g>
     <g id="line2d_16">
      <g>
       <use xlink:href="#mf716fc9c56" x="52.50125" y="14.956155" style="fill: #555555; stroke: #555555; stroke-width: 0.8"/>
      </g>
     </g>
     <g id="text_8">
      <text style="fill: #555555; font: 10px 'Verdana'; text-anchor: end" x="45.50125" y="18.755373" transform="rotate(-0, 45.50125, 18.755373)">100</text>
     </g>
    </g>
    <g id="text_9">
     <text style="fill: #555555; font: 12px 'Verdana'; text-anchor: middle" x="19.918125" y="165.16719" transform="rotate(-90, 19.918125, 165.16719)">seconds</text>
    </g>
   </g>
   <g id="patch_3">
    <path d="M 70.569375 318.121875 
L 83.73643 318.121875 
L 83.73643 26.779618 
L 70.569375 26.779618 
z
" clip-path="url(#p7272bef656)" style="fill: #e24a33"/>
   </g>
   <g id="patch_4">
    <path d="M 260.760164 318.121875 
L 273.927219 318.121875 
L 273.927219 234.205604 
L 260.760164 234.205604 
z
" clip-path="url(#p7272bef656)" style="fill: #e24a33"/>
   </g>
   <g id="patch_5">
    <path d="M 83.73643 318.121875 
L 96.903484 318.121875 
L 96.903484 98.842109 
L 83.73643 98.842109 
z
" clip-path="url(#p7272bef656)" style="fill: #348abd"/>
   </g>
   <g id="patch_6">
    <path d="M 273.927219 318.121875 
L 287.094274 318.121875 
L 287.094274 258.276962 
L 273.927219 258.276962 
z
" clip-path="url(#p7272bef656)" style="fill: #348abd"/>
   </g>
   <g id="patch_7">
    <path d="M 96.903484 318.121875 
L 110.070539 318.121875 
L 110.070539 99.569707 
L 96.903484 99.569707 
z
" clip-path="url(#p7272bef656)" style="fill: #988ed5"/>
   </g>
   <g id="patch_8">
    <path d="M 287.094274 318.121875 
L 300.261328 318.121875 
L 300.261328 258.434608 
L 287.094274 258.434608 
z
" clip-path="url(#p7272bef656)" style="fill: #988ed5"/>
   </g>
   <g id="patch_9">
    <path d="M 110.070539 318.121875 
L 123.237594 318.121875 
L 123.237594 263.855211 
L 110.070539 263.855211 
z
" clip-path="url(#p7272bef656)" style="fill: #777777"/>
   </g>
   <g id="patch_10">
    <path d="M 300.261328 318.121875 
L 313.428383 318.121875 
L 313.428383 298.679857 
L 300.261328 298.679857 
z
" clip-path="url(#p7272bef656)" style="fill: #777777"/>
   </g>
   <g id="patch_11">
    <path d="M 123.237594 318.121875 
L 136.404648 318.121875 
L 136.404648 264.21901 
L 123.237594 264.21901 
z
" clip-path="url(#p7272bef656)" style="fill: #fbc15e"/>
   </g>
   <g id="patch_12">
    <path d="M 313.428383 318.121875 
L 326.595438 318.121875 
L 326.595438 300.280572 
L 313.428383 300.280572 
z
" clip-path="url(#p7272bef656)" style="fill: #fbc15e"/>
   </g>
   <g id="patch_13">
    <path d="M 136.404648 318.121875 
L 149.571703 318.121875 
L 149.571703 265.643889 
L 136.404648 265.643889 
z
" clip-path="url(#p7272bef656)" style="fill: #8eba42"/>
   </g>
   <g id="patch_14">
    <path d="M 326.595438 318.121875 
L 339.762492 318.121875 
L 339.762492 305.30706 
L 326.595438 305.30706 
z
" clip-path="url(#p7272bef656)" style="fill: #8eba42"/>
   </g>
   <g id="patch_15">
    <path d="M 149.571703 318.121875 
L 162.738758 318.121875 
L 162.738758 275.436142 
L 149.571703 275.436142 
z
" clip-path="url(#p7272bef656)" style="fill: #ffb5b8"/>
   </g>
   <g id="patch_16">
    <path d="M 339.762492 318.121875 
L 352.929547 318.121875 
L 352.929547 305.789093 
L 339.762492 305.789093 
z
" clip-path="url(#p7272bef656)" style="fill: #ffb5b8"/>
   </g>
   <g id="patch_17">
    <path d="M 162.738758 318.121875 
L 175.905812 318.121875 
L 175.905812 273.980946 
L 162.738758 273.980946 
z
" clip-path="url(#p7272bef656)" style="fill: #e24a33"/>
   </g>
   <g id="patch_18">
    <path d="M 352.929547 318.121875 
L 366.096602 318.121875 
L 366.096602 306.334792 
L 352.929547 306.334792 
z
" clip-path="url(#p7272bef656)" style="fill: #e24a33"/>
   </g>
   <g id="patch_19">
    <path d="M 175.905812 318.121875 
L 189.072867 318.121875 
L 189.072867 274.011263 
L 175.905812 274.011263 
z
" clip-path="url(#p7272bef656)" style="fill: #348abd"/>
   </g>
   <g id="patch_20">
    <path d="M 366.096602 318.121875 
L 379.263656 318.121875 
L 379.263656 306.36814 
L 366.096602 306.36814 
z
" clip-path="url(#p7272bef656)" style="fill: #348abd"/>
   </g>
   <g id="patch_21">
    <path d="M 189.072867 318.121875 
L 202.239922 318.121875 
L 202.239922 307.314017 
L 189.072867 307.314017 
z
" clip-path="url(#p7272bef656)" style="fill: #988ed5"/>
   </g>
   <g id="patch_22">
    <path d="M 379.263656 318.121875 
L 392.430711 318.121875 
L 392.430711 315.544966 
L 379.263656 315.544966 
z
" clip-path="url(#p7272bef656)" style="fill: #988ed5"/>
   </g>
   <g id="patch_23">
    <path d="M 202.239922 318.121875 
L 215.406976 318.121875 
L 215.406976 275.681706 
L 202.239922 275.681706 
z
" clip-path="url(#p7272bef656)" style="fill: #777777"/>
   </g>
   <g id="patch_24">
    <path d="M 392.430711 318.121875 
L 405.597766 318.121875 
L 405.597766 306.8623 
L 392.430711 306.8623 
z
" clip-path="url(#p7272bef656)" style="fill: #777777"/>
   </g>
   <g id="patch_25">
    <path d="M 215.406976 318.121875 
L 228.574031 318.121875 
L 228.574031 306.783477 
L 215.406976 306.783477 
z
" clip-path="url(#p7272bef656)" style="fill: #fbc15e"/>
   </g>
   <g id="patch_26">
    <path d="M 405.597766 318.121875 
L 418.76482 318.121875 
L 418.76482 314.67003 
L 405.597766 314.67003 
z
" clip-path="url(#p7272bef656)" style="fill: #fbc15e"/>
   </g>
   <g id="patch_27">
    <path d="M 228.574031 318.121875 
L 241.741086 318.121875 
L 241.741086 307.847589 
L 228.574031 307.847589 
z
" clip-path="url(#p7272bef656)" style="fill: #8eba42"/>
   </g>
   <g id="patch_28">
    <path d="M 418.76482 318.121875 
L 431.931875 318.121875 
L 431.931875 315.854802 
L 418.76482 315.854802 
z
" clip-path="url(#p7272bef656)" style="fill: #8eba42"/>
   </g>
   <g id="patch_29">
    <path d="M 52.50125 318.121875 
L 52.50125 12.212505 
" style="fill: none; stroke: #ffffff; stroke-linejoin: miter; stroke-linecap: square"/>
   </g>
   <g id="patch_30">
    <path d="M 450 318.121875 
L 450 12.212505 
" style="fill: none; stroke: #ffffff; stroke-linejoin: miter; stroke-linecap: square"/>
   </g>
   <g id="patch_31">
    <path d="M 52.50125 318.121875 
L 450 318.121875 
" style="fill: none; stroke: #ffffff; stroke-linejoin: miter; stroke-linecap: square"/>
   </g>
   <g id="patch_32">
    <path d="M 52.50125 12.212505 
L 450 12.212505 
" style="fill: none; stroke: #ffffff; stroke-linejoin: miter; stroke-linecap: square"/>
   </g>
   <g id="text_10">
    <text style="font: 10px 'Verdana'; text-anchor: middle" x="77.152902" y="21.69993" transform="rotate(-0, 77.152902, 21.69993)">96.1</text>
   </g>
   <g id="text_11">
    <text style="font: 10px 'Verdana'; text-anchor: middle" x="267.343692" y="229.125916" transform="rotate(-0, 267.343692, 229.125916)">27.7</text>
   </g>
   <g id="text_12">
    <text style="font: 10px 'Verdana'; text-anchor: middle" x="90.319957" y="93.762422" transform="rotate(-0, 90.319957, 93.762422)">72.3</text>
   </g>
   <g id="text_13">
    <text style="font: 10px 'Verdana'; text-anchor: middle" x="280.510746" y="253.197274" transform="rotate(-0, 280.510746, 253.197274)">19.7</text>
   </g>
   <g id="text_14">
    <text style="font: 10px 'Verdana'; text-anchor: middle" x="103.487012" y="94.49002" transform="rotate(-0, 103.487012, 94.49002)">72.1</text>
   </g>
   <g id="text_15">
    <text style="font: 10px 'Verdana'; text-anchor: middle" x="293.677801" y="253.35492" transform="rotate(-0, 293.677801, 253.35492)">19.7</text>
   </g>
   <g id="text_16">
    <text style="font: 10px 'Verdana'; text-anchor: middle" x="116.654066" y="258.775524" transform="rotate(-0, 116.654066, 258.775524)">17.9</text>
   </g>
   <g id="text_17">
    <text style="font: 10px 'Verdana'; text-anchor: middle" x="306.844856" y="293.60017" transform="rotate(-0, 306.844856, 293.60017)">6.41</text>
   </g>
   <g id="text_18">
    <text style="font: 10px 'Verdana'; text-anchor: middle" x="129.821121" y="259.139322" transform="rotate(-0, 129.821121, 259.139322)">17.8</text>
   </g>
   <g id="text_19">
    <text style="font: 10px 'Verdana'; text-anchor: middle" x="320.01191" y="295.200885" transform="rotate(-0, 320.01191, 295.200885)">5.88</text>
   </g>
   <g id="text_20">
    <text style="font: 10px 'Verdana'; text-anchor: middle" x="142.988176" y="260.564201" transform="rotate(-0, 142.988176, 260.564201)">17.3</text>
   </g>
   <g id="text_21">
    <text style="font: 10px 'Verdana'; text-anchor: middle" x="333.178965" y="300.227373" transform="rotate(-0, 333.178965, 300.227373)">4.23</text>
   </g>
   <g id="text_22">
    <text style="font: 10px 'Verdana'; text-anchor: middle" x="156.15523" y="270.356454" transform="rotate(-0, 156.15523, 270.356454)">14.1</text>
   </g>
   <g id="text_23">
    <text style="font: 10px 'Verdana'; text-anchor: middle" x="346.34602" y="300.709406" transform="rotate(-0, 346.34602, 300.709406)">4.07</text>
   </g>
   <g id="text_24">
    <text style="font: 10px 'Verdana'; text-anchor: middle" x="169.322285" y="268.901259" transform="rotate(-0, 169.322285, 268.901259)">14.6</text>
   </g>
   <g id="text_25">
    <text style="font: 10px 'Verdana'; text-anchor: middle" x="359.513074" y="301.255104" transform="rotate(-0, 359.513074, 301.255104)">3.89</text>
   </g>
   <g id="text_26">
    <text style="font: 10px 'Verdana'; text-anchor: middle" x="182.48934" y="268.931575" transform="rotate(-0, 182.48934, 268.931575)">14.6</text>
   </g>
   <g id="text_27">
    <text style="font: 10px 'Verdana'; text-anchor: middle" x="372.680129" y="301.288453" transform="rotate(-0, 372.680129, 301.288453)">3.88</text>
   </g>
   <g id="text_28">
    <text style="font: 10px 'Verdana'; text-anchor: middle" x="195.656394" y="302.23433" transform="rotate(-0, 195.656394, 302.23433)">3.56</text>
   </g>
   <g id="text_29">
    <text style="font: 10px 'Verdana'; text-anchor: middle" x="385.847184" y="310.465279" transform="rotate(-0, 385.847184, 310.465279)">0.85</text>
   </g>
   <g id="text_30">
    <text style="font: 10px 'Verdana'; text-anchor: middle" x="208.823449" y="270.602018" transform="rotate(-0, 208.823449, 270.602018)">14</text>
   </g>
   <g id="text_31">
    <text style="font: 10px 'Verdana'; text-anchor: middle" x="399.014238" y="301.782613" transform="rotate(-0, 399.014238, 301.782613)">3.71</text>
   </g>
   <g id="text_32">
    <text style="font: 10px 'Verdana'; text-anchor: middle" x="221.990504" y="301.70379" transform="rotate(-0, 221.990504, 301.70379)">3.74</text>
   </g>
   <g id="text_33">
    <text style="font: 10px 'Verdana'; text-anchor: middle" x="412.181293" y="309.590343" transform="rotate(-0, 412.181293, 309.590343)">1.14</text>
   </g>
   <g id="text_34">
    <text style="font: 10px 'Verdana'; text-anchor: middle" x="235.157558" y="302.767901" transform="rotate(-0, 235.157558, 302.767901)">3.39</text>
   </g>
   <g id="text_35">
    <text style="font: 10px 'Verdana'; text-anchor: middle" x="425.348348" y="310.775114" transform="rotate(-0, 425.348348, 310.775114)">0.748</text>
   </g>
   <g id="legend_1">
    <g id="patch_33">
     <path d="M 303.823437 211.02813 
L 443 211.02813 
Q 445 211.02813 445 209.02813 
L 445 19.212505 
Q 445 17.212505 443 17.212505 
L 303.823437 17.212505 
Q 301.823437 17.212505 301.823437 19.212505 
L 301.823437 209.02813 
Q 301.823437 211.02813 303.823437 211.02813 
z
" style="fill: #e5e5e5; opacity: 0.8; stroke: #cccccc; stroke-width: 0.5; stroke-linejoin: miter"/>
    </g>
    <g id="patch_34">
     <path d="M 305.823437 28.810942 
L 325.823437 28.810942 
L 325.823437 21.810942 
L 305.823437 21.810942 
z
" style="fill: #e24a33"/>
    </g>
    <g id="text_36">
     <text style="font: 10px 'Verdana'; text-anchor: start" x="333.823437" y="28.810942" transform="rotate(-0, 333.823437, 28.810942)">basic</text>
    </g>
    <g id="patch_35">
     <path d="M 305.823437 43.489067 
L 325.823437 43.489067 
L 325.823437 36.489067 
L 305.823437 36.489067 
z
" style="fill: #348abd"/>
    </g>
    <g id="text_37">
     <text style="font: 10px 'Verdana'; text-anchor: start" x="333.823437" y="43.489067" transform="rotate(-0, 333.823437, 43.489067)">precomputejumps</text>
    </g>
    <g id="patch_36">
     <path d="M 305.823437 58.167192 
L 325.823437 58.167192 
L 325.823437 51.167192 
L 305.823437 51.167192 
z
" style="fill: #988ed5"/>
    </g>
    <g id="text_38">
     <text style="font: 10px 'Verdana'; text-anchor: start" x="333.823437" y="58.167192" transform="rotate(-0, 333.823437, 58.167192)">Add</text>
    </g>
    <g id="patch_37">
     <path d="M 305.823437 72.845317 
L 325.823437 72.845317 
L 325.823437 65.845317 
L 305.823437 65.845317 
z
" style="fill: #777777"/>
    </g>
    <g id="text_39">
     <text style="font: 10px 'Verdana'; text-anchor: start" x="333.823437" y="72.845317" transform="rotate(-0, 333.823437, 72.845317)">Move</text>
    </g>
    <g id="patch_38">
     <path d="M 305.823437 87.523442 
L 325.823437 87.523442 
L 325.823437 80.523442 
L 305.823437 80.523442 
z
" style="fill: #fbc15e"/>
    </g>
    <g id="text_40">
     <text style="font: 10px 'Verdana'; text-anchor: start" x="333.823437" y="87.523442" transform="rotate(-0, 333.823437, 87.523442)">Clear</text>
    </g>
    <g id="patch_39">
     <path d="M 305.823437 102.201567 
L 325.823437 102.201567 
L 325.823437 95.201567 
L 305.823437 95.201567 
z
" style="fill: #8eba42"/>
    </g>
    <g id="text_41">
     <text style="font: 10px 'Verdana'; text-anchor: start" x="333.823437" y="102.201567" transform="rotate(-0, 333.823437, 102.201567)">AddTo</text>
    </g>
    <g id="patch_40">
     <path d="M 305.823437 116.879692 
L 325.823437 116.879692 
L 325.823437 109.879692 
L 305.823437 109.879692 
z
" style="fill: #ffb5b8"/>
    </g>
    <g id="text_42">
     <text style="font: 10px 'Verdana'; text-anchor: start" x="333.823437" y="116.879692" transform="rotate(-0, 333.823437, 116.879692)">MoveUntil</text>
    </g>
    <g id="patch_41">
     <path d="M 305.823437 131.557817 
L 325.823437 131.557817 
L 325.823437 124.557817 
L 305.823437 124.557817 
z
" style="fill: #e24a33"/>
    </g>
    <g id="text_43">
     <text style="font: 10px 'Verdana'; text-anchor: start" x="333.823437" y="131.557817" transform="rotate(-0, 333.823437, 131.557817)">singlepass-jit</text>
    </g>
    <g id="patch_42">
     <path d="M 305.823437 146.235942 
L 325.823437 146.235942 
L 325.823437 139.235942 
L 305.823437 139.235942 
z
" style="fill: #348abd"/>
    </g>
    <g id="text_44">
     <text style="font: 10px 'Verdana'; text-anchor: start" x="333.823437" y="146.235942" transform="rotate(-0, 333.823437, 146.235942)">dynasm-jit</text>
    </g>
    <g id="patch_43">
     <path d="M 305.823437 160.914067 
L 325.823437 160.914067 
L 325.823437 153.914067 
L 305.823437 153.914067 
z
" style="fill: #988ed5"/>
    </g>
    <g id="text_45">
     <text style="font: 10px 'Verdana'; text-anchor: start" x="333.823437" y="160.914067" transform="rotate(-0, 333.823437, 160.914067)">optimized-jit</text>
    </g>
    <g id="patch_44">
     <path d="M 305.823437 175.592192 
L 325.823437 175.592192 
L 325.823437 168.592192 
L 305.823437 168.592192 
z
" style="fill: #777777"/>
    </g>
    <g id="text_46">
     <text style="font: 10px 'Verdana'; text-anchor: start" x="333.823437" y="175.592192" transform="rotate(-0, 333.823437, 175.592192)">cranelift-jit</text>
    </g>
    <g id="patch_45">
     <path d="M 305.823437 190.270317 
L 325.823437 190.270317 
L 325.823437 183.270317 
L 305.823437 183.270317 
z
" style="fill: #fbc15e"/>
    </g>
    <g id="text_47">
     <text style="font: 10px 'Verdana'; text-anchor: start" x="333.823437" y="190.270317" transform="rotate(-0, 333.823437, 190.270317)">repeat-cranelift-jit</text>
    </g>
    <g id="patch_46">
     <path d="M 305.823437 204.948442 
L 325.823437 204.948442 
L 325.823437 197.948442 
L 305.823437 197.948442 
z
" style="fill: #8eba42"/>
    </g>
    <g id="text_48">
     <text style="font: 10px 'Verdana'; text-anchor: start" x="333.823437" y="204.948442" transform="rotate(-0, 333.823437, 204.948442)">optimized-cranelift-jit</text>
    </g>
   </g>
  </g>
 </g>
 <defs>
  <clipPath id="p7272bef656">
   <rect x="52.50125" y="12.212505" width="397.49875" height="305.90937"/>
  </clipPath>
 </defs>
</svg>
