<?xml version="1.0" encoding="utf-8" standalone="no"?>
<!DOCTYPE svg PUBLIC "-//W3C//DTD SVG 1.1//EN"
  "http://www.w3.org/Graphics/SVG/1.1/DTD/svg11.dtd">
<svg xmlns:xlink="http://www.w3.org/1999/xlink" width="460.8pt" height="345.6pt" viewBox="0 0 460.8 345.6" xmlns="http://www.w3.org/2000/svg" version="1.1">
 <metadata>
  <rdf:RDF xmlns:dc="http://purl.org/dc/elements/1.1/" xmlns:cc="http://creativecommons.org/ns#" xmlns:rdf="http://www.w3.org/1999/02/22-rdf-syntax-ns#">
   <cc:Work>
    <dc:type rdf:resource="http://purl.org/dc/dcmitype/StillImage"/>
    <dc:date>2022-10-16T12:58:14.257649</dc:date>
    <dc:format>image/svg+xml</dc:format>
    <dc:creator>
     <cc:Agent>
      <dc:title>Matplotlib v3.5.3, https://matplotlib.org/</dc:title>
     </cc:Agent>
    </dc:creator>
   </cc:Work>
  </rdf:RDF>
 </metadata>
 <defs>
  <style type="text/css">*{stroke-linejoin: round; stroke-linecap: butt}</style>
 </defs>
 <g id="figure_1">
  <g id="patch_1">
   <path d="M 0 345.6 
L 460.8 345.6 
L 460.8 0 
L 0 0 
z
" style="fill: #ffffff"/>
  </g>
  <g id="axes_1">
   <g id="patch_2">
    <path d="M 46.13875 318.121875 
L 450 318.121875 
L 450 10.806125 
L 46.13875 10.806125 
z
" style="fill: #e5e5e5"/>
   </g>
   <g id="matplotlib.axis_1">
    <g id="xtick_1">
     <g id="line2d_1">
      <path d="M 180.437108 318.121875 
L 180.437108 10.806125 
" clip-path="url(#p156aad6edb)" style="fill: none; stroke: #ffffff; stroke-width: 0.8; stroke-linecap: square"/>
     </g>
     <g id="line2d_2">
      <defs>
       <path id="m42d0022863" d="M 0 0 
L 0 3.5 
" style="stroke: #555555; stroke-width: 0.8"/>
      </defs>
      <g>
       <use xlink:href="#m42d0022863" x="180.437108" y="318.121875" style="fill: #555555; stroke: #555555; stroke-width: 0.8"/>
      </g>
     </g>
     <g id="text_1">
      <text style="fill: #555555; font: 10px 'Verdana'; text-anchor: middle" x="180.437108" y="332.720312" transform="rotate(-0, 180.437108, 332.720312)">mandelbrot.bf</text>
     </g>
    </g>
    <g id="xtick_2">
     <g id="line2d_3">
      <path d="M 373.672156 318.121875 
L 373.672156 10.806125 
" clip-path="url(#p156aad6edb)" style="fill: none; stroke: #ffffff; stroke-width: 0.8; stroke-linecap: square"/>
     </g>
     <g id="line2d_4">
      <g>
       <use xlink:href="#m42d0022863" x="373.672156" y="318.121875" style="fill: #555555; stroke: #555555; stroke-width: 0.8"/>
      </g>
     </g>
     <g id="text_2">
      <text style="fill: #555555; font: 10px 'Verdana'; text-anchor: middle" x="373.672156" y="332.720312" transform="rotate(-0, 373.672156, 332.720312)">factor.bf</text>
     </g>
    </g>
   </g>
   <g id="matplotlib.axis_2">
    <g id="ytick_1">
     <g id="line2d_5">
      <path d="M 46.13875 318.121875 
L 450 318.121875 
" clip-path="url(#p156aad6edb)" style="fill: none; stroke: #ffffff; stroke-width: 0.8; stroke-linecap: square"/>
     </g>
     <g id="line2d_6">
      <defs>
       <path id="md8dd7f7527" d="M 0 0 
L -3.5 0 
" style="stroke: #555555; stroke-width: 0.8"/>
      </defs>
      <g>
       <use xlink:href="#md8dd7f7527" x="46.13875" y="318.121875" style="fill: #555555; stroke: #555555; stroke-width: 0.8"/>
      </g>
     </g>
     <g id="text_3">
      <text style="fill: #555555; font: 10px 'Verdana'; text-anchor: end" x="39.13875" y="321.921094" transform="rotate(-0, 39.13875, 321.921094)">0</text>
     </g>
    </g>
    <g id="ytick_2">
     <g id="line2d_7">
      <path d="M 46.13875 254.217581 
L 450 254.217581 
" clip-path="url(#p156aad6edb)" style="fill: none; stroke: #ffffff; stroke-width: 0.8; stroke-linecap: square"/>
     </g>
     <g id="line2d_8">
      <g>
       <use xlink:href="#md8dd7f7527" x="46.13875" y="254.217581" style="fill: #555555; stroke: #555555; stroke-width: 0.8"/>
      </g>
     </g>
     <g id="text_4">
      <text style="fill: #555555; font: 10px 'Verdana'; text-anchor: end" x="39.13875" y="258.0168" transform="rotate(-0, 39.13875, 258.0168)">20</text>
     </g>
    </g>
    <g id="ytick_3">
     <g id="line2d_9">
      <path d="M 46.13875 190.313287 
L 450 190.313287 
" clip-path="url(#p156aad6edb)" style="fill: none; stroke: #ffffff; stroke-width: 0.8; stroke-linecap: square"/>
     </g>
     <g id="line2d_10">
      <g>
       <use xlink:href="#md8dd7f7527" x="46.13875" y="190.313287" style="fill: #555555; stroke: #555555; stroke-width: 0.8"/>
      </g>
     </g>
     <g id="text_5">
      <text style="fill: #555555; font: 10px 'Verdana'; text-anchor: end" x="39.13875" y="194.112506" transform="rotate(-0, 39.13875, 194.112506)">40</text>
     </g>
    </g>
    <g id="ytick_4">
     <g id="line2d_11">
      <path d="M 46.13875 126.408993 
L 450 126.408993 
" clip-path="url(#p156aad6edb)" style="fill: none; stroke: #ffffff; stroke-width: 0.8; stroke-linecap: square"/>
     </g>
     <g id="line2d_12">
      <g>
       <use xlink:href="#md8dd7f7527" x="46.13875" y="126.408993" style="fill: #555555; stroke: #555555; stroke-width: 0.8"/>
      </g>
     </g>
     <g id="text_6">
      <text style="fill: #555555; font: 10px 'Verdana'; text-anchor: end" x="39.13875" y="130.208212" transform="rotate(-0, 39.13875, 130.208212)">60</text>
     </g>
    </g>
    <g id="ytick_5">
     <g id="line2d_13">
      <path d="M 46.13875 62.504699 
L 450 62.504699 
" clip-path="url(#p156aad6edb)" style="fill: none; stroke: #ffffff; stroke-width: 0.8; stroke-linecap: square"/>
     </g>
     <g id="line2d_14">
      <g>
       <use xlink:href="#md8dd7f7527" x="46.13875" y="62.504699" style="fill: #555555; stroke: #555555; stroke-width: 0.8"/>
      </g>
     </g>
     <g id="text_7">
      <text style="fill: #555555; font: 10px 'Verdana'; text-anchor: end" x="39.13875" y="66.303918" transform="rotate(-0, 39.13875, 66.303918)">80</text>
     </g>
    </g>
    <g id="text_8">
     <text style="fill: #555555; font: 12px 'Verdana'; text-anchor: middle" x="19.918125" y="164.464" transform="rotate(-90, 19.918125, 164.464)">seconds</text>
    </g>
   </g>
   <g id="patch_3">
    <path d="M 64.49608 318.121875 
L 122.466594 318.121875 
L 122.466594 25.440208 
L 64.49608 25.440208 
z
" clip-path="url(#p156aad6edb)" style="fill: #e24a33"/>
   </g>
   <g id="patch_4">
    <path d="M 257.731127 318.121875 
L 315.701642 318.121875 
L 315.701642 231.275939 
L 257.731127 231.275939 
z
" clip-path="url(#p156aad6edb)" style="fill: #e24a33"/>
   </g>
   <g id="patch_5">
    <path d="M 122.466594 318.121875 
L 180.437108 318.121875 
L 180.437108 94.776367 
L 122.466594 94.776367 
z
" clip-path="url(#p156aad6edb)" style="fill: #348abd"/>
   </g>
   <g id="patch_6">
    <path d="M 315.701642 318.121875 
L 373.672156 318.121875 
L 373.672156 255.176145 
L 315.701642 255.176145 
z
" clip-path="url(#p156aad6edb)" style="fill: #348abd"/>
   </g>
   <g id="patch_7">
    <path d="M 180.437108 318.121875 
L 238.407623 318.121875 
L 238.407623 96.342023 
L 180.437108 96.342023 
z
" clip-path="url(#p156aad6edb)" style="fill: #988ed5"/>
   </g>
   <g id="patch_8">
    <path d="M 373.672156 318.121875 
L 431.64267 318.121875 
L 431.64267 256.262518 
L 373.672156 256.262518 
z
" clip-path="url(#p156aad6edb)" style="fill: #988ed5"/>
   </g>
   <g id="patch_9">
    <path d="M 46.13875 318.121875 
L 46.13875 10.806125 
" style="fill: none; stroke: #ffffff; stroke-linejoin: miter; stroke-linecap: square"/>
   </g>
   <g id="patch_10">
    <path d="M 450 318.121875 
L 450 10.806125 
" style="fill: none; stroke: #ffffff; stroke-linejoin: miter; stroke-linecap: square"/>
   </g>
   <g id="patch_11">
    <path d="M 46.13875 318.121875 
L 450 318.121875 
" style="fill: none; stroke: #ffffff; stroke-linejoin: miter; stroke-linecap: square"/>
   </g>
   <g id="patch_12">
    <path d="M 46.13875 10.806125 
L 450 10.806125 
" style="fill: none; stroke: #ffffff; stroke-linejoin: miter; stroke-linecap: square"/>
   </g>
   <g id="text_9">
    <text style="font: 10px 'Verdana'; text-anchor: middle" x="93.481337" y="20.360521" transform="rotate(-0, 93.481337, 20.360521)">91.6</text>
   </g>
   <g id="text_10">
    <text style="font: 10px 'Verdana'; text-anchor: middle" x="286.716385" y="226.196252" transform="rotate(-0, 286.716385, 226.196252)">27.2</text>
   </g>
   <g id="text_11">
    <text style="font: 10px 'Verdana'; text-anchor: middle" x="151.451851" y="89.69668" transform="rotate(-0, 151.451851, 89.69668)">69.9</text>
   </g>
   <g id="text_12">
    <text style="font: 10px 'Verdana'; text-anchor: middle" x="344.686899" y="250.096458" transform="rotate(-0, 344.686899, 250.096458)">19.7</text>
   </g>
   <g id="text_13">
    <text style="font: 10px 'Verdana'; text-anchor: middle" x="209.422365" y="91.262335" transform="rotate(-0, 209.422365, 91.262335)">69.4</text>
   </g>
   <g id="text_14">
    <text style="font: 10px 'Verdana'; text-anchor: middle" x="402.657413" y="251.182831" transform="rotate(-0, 402.657413, 251.182831)">19.4</text>
   </g>
   <g id="legend_1">
    <g id="patch_13">
     <path d="M 316.903125 62.8405 
L 443 62.8405 
Q 445 62.8405 445 60.8405 
L 445 17.806125 
Q 445 15.806125 443 15.806125 
L 316.903125 15.806125 
Q 314.903125 15.806125 314.903125 17.806125 
L 314.903125 60.8405 
Q 314.903125 62.8405 316.903125 62.8405 
z
" style="fill: #e5e5e5; opacity: 0.8; stroke: #cccccc; stroke-width: 0.5; stroke-linejoin: miter"/>
    </g>
    <g id="patch_14">
     <path d="M 318.903125 27.404562 
L 338.903125 27.404562 
L 338.903125 20.404562 
L 318.903125 20.404562 
z
" style="fill: #e24a33"/>
    </g>
    <g id="text_15">
     <text style="font: 10px 'Verdana'; text-anchor: start" x="346.903125" y="27.404562" transform="rotate(-0, 346.903125, 27.404562)">basic</text>
    </g>
    <g id="patch_15">
     <path d="M 318.903125 42.082688 
L 338.903125 42.082688 
L 338.903125 35.082688 
L 318.903125 35.082688 
z
" style="fill: #348abd"/>
    </g>
    <g id="text_16">
     <text style="font: 10px 'Verdana'; text-anchor: start" x="346.903125" y="42.082688" transform="rotate(-0, 346.903125, 42.082688)">precompute jumps</text>
    </g>
    <g id="patch_16">
     <path d="M 318.903125 56.760812 
L 338.903125 56.760812 
L 338.903125 49.760812 
L 318.903125 49.760812 
z
" style="fill: #988ed5"/>
    </g>
    <g id="text_17">
     <text style="font: 10px 'Verdana'; text-anchor: start" x="346.903125" y="56.760812" transform="rotate(-0, 346.903125, 56.760812)">Add</text>
    </g>
   </g>
  </g>
 </g>
 <defs>
  <clipPath id="p156aad6edb">
   <rect x="46.13875" y="10.806125" width="403.86125" height="307.31575"/>
  </clipPath>
 </defs>
</svg>
