<?xml version="1.0" encoding="utf-8" standalone="no"?>
<!DOCTYPE svg PUBLIC "-//W3C//DTD SVG 1.1//EN"
  "http://www.w3.org/Graphics/SVG/1.1/DTD/svg11.dtd">
<svg xmlns:xlink="http://www.w3.org/1999/xlink" width="460.8pt" height="345.6pt" viewBox="0 0 460.8 345.6" xmlns="http://www.w3.org/2000/svg" version="1.1">
 <metadata>
  <rdf:RDF xmlns:dc="http://purl.org/dc/elements/1.1/" xmlns:cc="http://creativecommons.org/ns#" xmlns:rdf="http://www.w3.org/1999/02/22-rdf-syntax-ns#">
   <cc:Work>
    <dc:type rdf:resource="http://purl.org/dc/dcmitype/StillImage"/>
    <dc:date>2022-10-16T12:58:15.527050</dc:date>
    <dc:format>image/svg+xml</dc:format>
    <dc:creator>
     <cc:Agent>
      <dc:title>Matplotlib v3.5.3, https://matplotlib.org/</dc:title>
     </cc:Agent>
    </dc:creator>
   </cc:Work>
  </rdf:RDF>
 </metadata>
 <defs>
  <style type="text/css">*{stroke-linejoin: round; stroke-linecap: butt}</style>
 </defs>
 <g id="figure_1">
  <g id="patch_1">
   <path d="M 0 345.6 
L 460.8 345.6 
L 460.8 0 
L 0 0 
z
" style="fill: #ffffff"/>
  </g>
  <g id="axes_1">
   <g id="patch_2">
    <path d="M 46.13875 318.121875 
L 450 318.121875 
L 450 10.806125 
L 46.13875 10.806125 
z
" style="fill: #e5e5e5"/>
   </g>
   <g id="matplotlib.axis_1">
    <g id="xtick_1">
     <g id="line2d_1">
      <path d="M 165.94448 318.121875 
L 165.94448 10.806125 
" clip-path="url(#p86f6acbab3)" style="fill: none; stroke: #ffffff; stroke-width: 0.8; stroke-linecap: square"/>
     </g>
     <g id="line2d_2">
      <defs>
       <path id="mda0efefd75" d="M 0 0 
L 0 3.5 
" style="stroke: #555555; stroke-width: 0.8"/>
      </defs>
      <g>
       <use xlink:href="#mda0efefd75" x="165.94448" y="318.121875" style="fill: #555555; stroke: #555555; stroke-width: 0.8"/>
      </g>
     </g>
     <g id="text_1">
      <text style="fill: #555555; font: 10px 'Verdana'; text-anchor: middle" x="165.94448" y="332.720312" transform="rotate(-0, 165.94448, 332.720312)">mandelbrot.bf</text>
     </g>
    </g>
    <g id="xtick_2">
     <g id="line2d_3">
      <path d="M 359.179528 318.121875 
L 359.179528 10.806125 
" clip-path="url(#p86f6acbab3)" style="fill: none; stroke: #ffffff; stroke-width: 0.8; stroke-linecap: square"/>
     </g>
     <g id="line2d_4">
      <g>
       <use xlink:href="#mda0efefd75" x="359.179528" y="318.121875" style="fill: #555555; stroke: #555555; stroke-width: 0.8"/>
      </g>
     </g>
     <g id="text_2">
      <text style="fill: #555555; font: 10px 'Verdana'; text-anchor: middle" x="359.179528" y="332.720312" transform="rotate(-0, 359.179528, 332.720312)">factor.bf</text>
     </g>
    </g>
   </g>
   <g id="matplotlib.axis_2">
    <g id="ytick_1">
     <g id="line2d_5">
      <path d="M 46.13875 318.121875 
L 450 318.121875 
" clip-path="url(#p86f6acbab3)" style="fill: none; stroke: #ffffff; stroke-width: 0.8; stroke-linecap: square"/>
     </g>
     <g id="line2d_6">
      <defs>
       <path id="m2762a0af6d" d="M 0 0 
L -3.5 0 
" style="stroke: #555555; stroke-width: 0.8"/>
      </defs>
      <g>
       <use xlink:href="#m2762a0af6d" x="46.13875" y="318.121875" style="fill: #555555; stroke: #555555; stroke-width: 0.8"/>
      </g>
     </g>
     <g id="text_3">
      <text style="fill: #555555; font: 10px 'Verdana'; text-anchor: end" x="39.13875" y="321.921094" transform="rotate(-0, 39.13875, 321.921094)">0</text>
     </g>
    </g>
    <g id="ytick_2">
     <g id="line2d_7">
      <path d="M 46.13875 254.217581 
L 450 254.217581 
" clip-path="url(#p86f6acbab3)" style="fill: none; stroke: #ffffff; stroke-width: 0.8; stroke-linecap: square"/>
     </g>
     <g id="line2d_8">
      <g>
       <use xlink:href="#m2762a0af6d" x="46.13875" y="254.217581" style="fill: #555555; stroke: #555555; stroke-width: 0.8"/>
      </g>
     </g>
     <g id="text_4">
      <text style="fill: #555555; font: 10px 'Verdana'; text-anchor: end" x="39.13875" y="258.0168" transform="rotate(-0, 39.13875, 258.0168)">20</text>
     </g>
    </g>
    <g id="ytick_3">
     <g id="line2d_9">
      <path d="M 46.13875 190.313287 
L 450 190.313287 
" clip-path="url(#p86f6acbab3)" style="fill: none; stroke: #ffffff; stroke-width: 0.8; stroke-linecap: square"/>
     </g>
     <g id="line2d_10">
      <g>
       <use xlink:href="#m2762a0af6d" x="46.13875" y="190.313287" style="fill: #555555; stroke: #555555; stroke-width: 0.8"/>
      </g>
     </g>
     <g id="text_5">
      <text style="fill: #555555; font: 10px 'Verdana'; text-anchor: end" x="39.13875" y="194.112506" transform="rotate(-0, 39.13875, 194.112506)">40</text>
     </g>
    </g>
    <g id="ytick_4">
     <g id="line2d_11">
      <path d="M 46.13875 126.408993 
L 450 126.408993 
" clip-path="url(#p86f6acbab3)" style="fill: none; stroke: #ffffff; stroke-width: 0.8; stroke-linecap: square"/>
     </g>
     <g id="line2d_12">
      <g>
       <use xlink:href="#m2762a0af6d" x="46.13875" y="126.408993" style="fill: #555555; stroke: #555555; stroke-width: 0.8"/>
      </g>
     </g>
     <g id="text_6">
      <text style="fill: #555555; font: 10px 'Verdana'; text-anchor: end" x="39.13875" y="130.208212" transform="rotate(-0, 39.13875, 130.208212)">60</text>
     </g>
    </g>
    <g id="ytick_5">
     <g id="line2d_13">
      <path d="M 46.13875 62.504699 
L 450 62.504699 
" clip-path="url(#p86f6acbab3)" style="fill: none; stroke: #ffffff; stroke-width: 0.8; stroke-linecap: square"/>
     </g>
     <g id="line2d_14">
      <g>
       <use xlink:href="#m2762a0af6d" x="46.13875" y="62.504699" style="fill: #555555; stroke: #555555; stroke-width: 0.8"/>
      </g>
     </g>
     <g id="text_7">
      <text style="fill: #555555; font: 10px 'Verdana'; text-anchor: end" x="39.13875" y="66.303918" transform="rotate(-0, 39.13875, 66.303918)">80</text>
     </g>
    </g>
    <g id="text_8">
     <text style="fill: #555555; font: 12px 'Verdana'; text-anchor: middle" x="19.918125" y="164.464" transform="rotate(-90, 19.918125, 164.464)">seconds</text>
    </g>
   </g>
   <g id="patch_3">
    <path d="M 64.49608 318.121875 
L 93.481337 318.121875 
L 93.481337 25.440208 
L 64.49608 25.440208 
z
" clip-path="url(#p86f6acbab3)" style="fill: #e24a33"/>
   </g>
   <g id="patch_4">
    <path d="M 257.731127 318.121875 
L 286.716385 318.121875 
L 286.716385 231.275939 
L 257.731127 231.275939 
z
" clip-path="url(#p86f6acbab3)" style="fill: #e24a33"/>
   </g>
   <g id="patch_5">
    <path d="M 93.481337 318.121875 
L 122.466594 318.121875 
L 122.466594 94.776367 
L 93.481337 94.776367 
z
" clip-path="url(#p86f6acbab3)" style="fill: #348abd"/>
   </g>
   <g id="patch_6">
    <path d="M 286.716385 318.121875 
L 315.701642 318.121875 
L 315.701642 255.176145 
L 286.716385 255.176145 
z
" clip-path="url(#p86f6acbab3)" style="fill: #348abd"/>
   </g>
   <g id="patch_7">
    <path d="M 122.466594 318.121875 
L 151.451851 318.121875 
L 151.451851 262.525139 
L 122.466594 262.525139 
z
" clip-path="url(#p86f6acbab3)" style="fill: #777777"/>
   </g>
   <g id="patch_8">
    <path d="M 315.701642 318.121875 
L 344.686899 318.121875 
L 344.686899 298.081488 
L 315.701642 298.081488 
z
" clip-path="url(#p86f6acbab3)" style="fill: #777777"/>
   </g>
   <g id="patch_9">
    <path d="M 151.451851 318.121875 
L 180.437108 318.121875 
L 180.437108 264.602029 
L 151.451851 264.602029 
z
" clip-path="url(#p86f6acbab3)" style="fill: #fbc15e"/>
   </g>
   <g id="patch_10">
    <path d="M 344.686899 318.121875 
L 373.672156 318.121875 
L 373.672156 300.03696 
L 344.686899 300.03696 
z
" clip-path="url(#p86f6acbab3)" style="fill: #fbc15e"/>
   </g>
   <g id="patch_11">
    <path d="M 180.437108 318.121875 
L 209.422365 318.121875 
L 209.422365 266.167684 
L 180.437108 266.167684 
z
" clip-path="url(#p86f6acbab3)" style="fill: #8eba42"/>
   </g>
   <g id="patch_12">
    <path d="M 373.672156 318.121875 
L 402.657413 318.121875 
L 402.657413 304.861734 
L 373.672156 304.861734 
z
" clip-path="url(#p86f6acbab3)" style="fill: #8eba42"/>
   </g>
   <g id="patch_13">
    <path d="M 209.422365 318.121875 
L 238.407623 318.121875 
L 238.407623 275.018429 
L 209.422365 275.018429 
z
" clip-path="url(#p86f6acbab3)" style="fill: #ffb5b8"/>
   </g>
   <g id="patch_14">
    <path d="M 402.657413 318.121875 
L 431.64267 318.121875 
L 431.64267 305.571072 
L 402.657413 305.571072 
z
" clip-path="url(#p86f6acbab3)" style="fill: #ffb5b8"/>
   </g>
   <g id="patch_15">
    <path d="M 46.13875 318.121875 
L 46.13875 10.806125 
" style="fill: none; stroke: #ffffff; stroke-linejoin: miter; stroke-linecap: square"/>
   </g>
   <g id="patch_16">
    <path d="M 450 318.121875 
L 450 10.806125 
" style="fill: none; stroke: #ffffff; stroke-linejoin: miter; stroke-linecap: square"/>
   </g>
   <g id="patch_17">
    <path d="M 46.13875 318.121875 
L 450 318.121875 
" style="fill: none; stroke: #ffffff; stroke-linejoin: miter; stroke-linecap: square"/>
   </g>
   <g id="patch_18">
    <path d="M 46.13875 10.806125 
L 450 10.806125 
" style="fill: none; stroke: #ffffff; stroke-linejoin: miter; stroke-linecap: square"/>
   </g>
   <g id="text_9">
    <text style="font: 10px 'Verdana'; text-anchor: middle" x="78.988708" y="20.360521" transform="rotate(-0, 78.988708, 20.360521)">91.6</text>
   </g>
   <g id="text_10">
    <text style="font: 10px 'Verdana'; text-anchor: middle" x="272.223756" y="226.196252" transform="rotate(-0, 272.223756, 226.196252)">27.2</text>
   </g>
   <g id="text_11">
    <text style="font: 10px 'Verdana'; text-anchor: middle" x="107.973965" y="89.69668" transform="rotate(-0, 107.973965, 89.69668)">69.9</text>
   </g>
   <g id="text_12">
    <text style="font: 10px 'Verdana'; text-anchor: middle" x="301.209013" y="250.096458" transform="rotate(-0, 301.209013, 250.096458)">19.7</text>
   </g>
   <g id="text_13">
    <text style="font: 10px 'Verdana'; text-anchor: middle" x="136.959222" y="257.445452" transform="rotate(-0, 136.959222, 257.445452)">17.4</text>
   </g>
   <g id="text_14">
    <text style="font: 10px 'Verdana'; text-anchor: middle" x="330.19427" y="293.001801" transform="rotate(-0, 330.19427, 293.001801)">6.27</text>
   </g>
   <g id="text_15">
    <text style="font: 10px 'Verdana'; text-anchor: middle" x="165.94448" y="259.522341" transform="rotate(-0, 165.94448, 259.522341)">16.8</text>
   </g>
   <g id="text_16">
    <text style="font: 10px 'Verdana'; text-anchor: middle" x="359.179528" y="294.957272" transform="rotate(-0, 359.179528, 294.957272)">5.66</text>
   </g>
   <g id="text_17">
    <text style="font: 10px 'Verdana'; text-anchor: middle" x="194.929737" y="261.087996" transform="rotate(-0, 194.929737, 261.087996)">16.3</text>
   </g>
   <g id="text_18">
    <text style="font: 10px 'Verdana'; text-anchor: middle" x="388.164785" y="299.782046" transform="rotate(-0, 388.164785, 299.782046)">4.15</text>
   </g>
   <g id="text_19">
    <text style="font: 10px 'Verdana'; text-anchor: middle" x="223.914994" y="269.938741" transform="rotate(-0, 223.914994, 269.938741)">13.5</text>
   </g>
   <g id="text_20">
    <text style="font: 10px 'Verdana'; text-anchor: middle" x="417.150042" y="300.491384" transform="rotate(-0, 417.150042, 300.491384)">3.93</text>
   </g>
   <g id="legend_1">
    <g id="patch_19">
     <path d="M 316.903125 106.874875 
L 443 106.874875 
Q 445 106.874875 445 104.874875 
L 445 17.806125 
Q 445 15.806125 443 15.806125 
L 316.903125 15.806125 
Q 314.903125 15.806125 314.903125 17.806125 
L 314.903125 104.874875 
Q 314.903125 106.874875 316.903125 106.874875 
z
" style="fill: #e5e5e5; opacity: 0.8; stroke: #cccccc; stroke-width: 0.5; stroke-linejoin: miter"/>
    </g>
    <g id="patch_20">
     <path d="M 318.903125 27.404563 
L 338.903125 27.404563 
L 338.903125 20.404563 
L 318.903125 20.404563 
z
" style="fill: #e24a33"/>
    </g>
    <g id="text_21">
     <text style="font: 10px 'Verdana'; text-anchor: start" x="346.903125" y="27.404563" transform="rotate(-0, 346.903125, 27.404563)">basic</text>
    </g>
    <g id="patch_21">
     <path d="M 318.903125 42.082688 
L 338.903125 42.082688 
L 338.903125 35.082688 
L 318.903125 35.082688 
z
" style="fill: #348abd"/>
    </g>
    <g id="text_22">
     <text style="font: 10px 'Verdana'; text-anchor: start" x="346.903125" y="42.082688" transform="rotate(-0, 346.903125, 42.082688)">precompute jumps</text>
    </g>
    <g id="patch_22">
     <path d="M 318.903125 56.760813 
L 338.903125 56.760813 
L 338.903125 49.760813 
L 318.903125 49.760813 
z
" style="fill: #777777"/>
    </g>
    <g id="text_23">
     <text style="font: 10px 'Verdana'; text-anchor: start" x="346.903125" y="56.760813" transform="rotate(-0, 346.903125, 56.760813)">Move</text>
    </g>
    <g id="patch_23">
     <path d="M 318.903125 71.438938 
L 338.903125 71.438938 
L 338.903125 64.438938 
L 318.903125 64.438938 
z
" style="fill: #fbc15e"/>
    </g>
    <g id="text_24">
     <text style="font: 10px 'Verdana'; text-anchor: start" x="346.903125" y="71.438938" transform="rotate(-0, 346.903125, 71.438938)">Clear</text>
    </g>
    <g id="patch_24">
     <path d="M 318.903125 86.117063 
L 338.903125 86.117063 
L 338.903125 79.117063 
L 318.903125 79.117063 
z
" style="fill: #8eba42"/>
    </g>
    <g id="text_25">
     <text style="font: 10px 'Verdana'; text-anchor: start" x="346.903125" y="86.117063" transform="rotate(-0, 346.903125, 86.117063)">AddTo</text>
    </g>
    <g id="patch_25">
     <path d="M 318.903125 100.795188 
L 338.903125 100.795188 
L 338.903125 93.795188 
L 318.903125 93.795188 
z
" style="fill: #ffb5b8"/>
    </g>
    <g id="text_26">
     <text style="font: 10px 'Verdana'; text-anchor: start" x="346.903125" y="100.795188" transform="rotate(-0, 346.903125, 100.795188)">MoveUntil</text>
    </g>
   </g>
  </g>
 </g>
 <defs>
  <clipPath id="p86f6acbab3">
   <rect x="46.13875" y="10.806125" width="403.86125" height="307.31575"/>
  </clipPath>
 </defs>
</svg>
