<?xml version="1.0" encoding="utf-8" standalone="no"?>
<!DOCTYPE svg PUBLIC "-//W3C//DTD SVG 1.1//EN"
  "http://www.w3.org/Graphics/SVG/1.1/DTD/svg11.dtd">
<svg xmlns:xlink="http://www.w3.org/1999/xlink" width="460.8pt" height="345.6pt" viewBox="0 0 460.8 345.6" xmlns="http://www.w3.org/2000/svg" version="1.1">
 <metadata>
  <rdf:RDF xmlns:dc="http://purl.org/dc/elements/1.1/" xmlns:cc="http://creativecommons.org/ns#" xmlns:rdf="http://www.w3.org/1999/02/22-rdf-syntax-ns#">
   <cc:Work>
    <dc:type rdf:resource="http://purl.org/dc/dcmitype/StillImage"/>
    <dc:format>image/svg+xml</dc:format>
    <dc:creator>
     <cc:Agent>
      <dc:title>Matplotlib v3.5.3, https://matplotlib.org/</dc:title>
     </cc:Agent>
    </dc:creator>
   </cc:Work>
  </rdf:RDF>
 </metadata>
 <defs>
  <style type="text/css">*{stroke-linejoin: round; stroke-linecap: butt}</style>
 </defs>
 <g id="figure_1">
  <g id="patch_1">
   <path d="M 0 345.6 
L 460.8 345.6 
L 460.8 0 
L 0 0 
z
" style="fill: #ffffff"/>
  </g>
  <g id="axes_1">
   <g id="patch_2">
    <path d="M 46.13875 318.121875 
L 450 318.121875 
L 450 10.806125 
L 46.13875 10.806125 
z
" style="fill: #e5e5e5"/>
   </g>
   <g id="matplotlib.axis_1">
    <g id="xtick_1">
     <g id="line2d_1">
      <path d="M 168.843005 318.121875 
L 168.843005 10.806125 
" clip-path="url(#pf905b0e59e)" style="fill: none; stroke: #ffffff; stroke-width: 0.8; stroke-linecap: square"/>
     </g>
     <g id="line2d_2">
      <defs>
       <path id="md9956f434b" d="M 0 0 
L 0 3.5 
" style="stroke: #555555; stroke-width: 0.8"/>
      </defs>
      <g>
       <use xlink:href="#md9956f434b" x="168.843005" y="318.121875" style="fill: #555555; stroke: #555555; stroke-width: 0.8"/>
      </g>
     </g>
     <g id="text_1">
      <text style="fill: #555555; font: 10px 'Verdana'; text-anchor: middle" x="168.843005" y="332.720312" transform="rotate(-0, 168.843005, 332.720312)">mandelbrot.bf</text>
     </g>
    </g>
    <g id="xtick_2">
     <g id="line2d_3">
      <path d="M 362.078053 318.121875 
L 362.078053 10.806125 
" clip-path="url(#pf905b0e59e)" style="fill: none; stroke: #ffffff; stroke-width: 0.8; stroke-linecap: square"/>
     </g>
     <g id="line2d_4">
      <g>
       <use xlink:href="#md9956f434b" x="362.078053" y="318.121875" style="fill: #555555; stroke: #555555; stroke-width: 0.8"/>
      </g>
     </g>
     <g id="text_2">
      <text style="fill: #555555; font: 10px 'Verdana'; text-anchor: middle" x="362.078053" y="332.720312" transform="rotate(-0, 362.078053, 332.720312)">factor.bf</text>
     </g>
    </g>
   </g>
   <g id="matplotlib.axis_2">
    <g id="ytick_1">
     <g id="line2d_5">
      <path d="M 46.13875 318.121875 
L 450 318.121875 
" clip-path="url(#pf905b0e59e)" style="fill: none; stroke: #ffffff; stroke-width: 0.8; stroke-linecap: square"/>
     </g>
     <g id="line2d_6">
      <defs>
       <path id="mf716fc9c56" d="M 0 0 
L -3.5 0 
" style="stroke: #555555; stroke-width: 0.8"/>
      </defs>
      <g>
       <use xlink:href="#mf716fc9c56" x="46.13875" y="318.121875" style="fill: #555555; stroke: #555555; stroke-width: 0.8"/>
      </g>
     </g>
     <g id="text_3">
      <text style="fill: #555555; font: 10px 'Verdana'; text-anchor: end" x="39.13875" y="321.921094" transform="rotate(-0, 39.13875, 321.921094)">0</text>
     </g>
    </g>
    <g id="ytick_2">
     <g id="line2d_7">
      <path d="M 46.13875 277.890718 
L 450 277.890718 
" clip-path="url(#pf905b0e59e)" style="fill: none; stroke: #ffffff; stroke-width: 0.8; stroke-linecap: square"/>
     </g>
     <g id="line2d_8">
      <g>
       <use xlink:href="#mf716fc9c56" x="46.13875" y="277.890718" style="fill: #555555; stroke: #555555; stroke-width: 0.8"/>
      </g>
     </g>
     <g id="text_4">
      <text style="fill: #555555; font: 10px 'Verdana'; text-anchor: end" x="39.13875" y="281.689937" transform="rotate(-0, 39.13875, 281.689937)">2</text>
     </g>
    </g>
    <g id="ytick_3">
     <g id="line2d_9">
      <path d="M 46.13875 237.659561 
L 450 237.659561 
" clip-path="url(#pf905b0e59e)" style="fill: none; stroke: #ffffff; stroke-width: 0.8; stroke-linecap: square"/>
     </g>
     <g id="line2d_10">
      <g>
       <use xlink:href="#mf716fc9c56" x="46.13875" y="237.659561" style="fill: #555555; stroke: #555555; stroke-width: 0.8"/>
      </g>
     </g>
     <g id="text_5">
      <text style="fill: #555555; font: 10px 'Verdana'; text-anchor: end" x="39.13875" y="241.45878" transform="rotate(-0, 39.13875, 241.45878)">4</text>
     </g>
    </g>
    <g id="ytick_4">
     <g id="line2d_11">
      <path d="M 46.13875 197.428404 
L 450 197.428404 
" clip-path="url(#pf905b0e59e)" style="fill: none; stroke: #ffffff; stroke-width: 0.8; stroke-linecap: square"/>
     </g>
     <g id="line2d_12">
      <g>
       <use xlink:href="#mf716fc9c56" x="46.13875" y="197.428404" style="fill: #555555; stroke: #555555; stroke-width: 0.8"/>
      </g>
     </g>
     <g id="text_6">
      <text style="fill: #555555; font: 10px 'Verdana'; text-anchor: end" x="39.13875" y="201.227623" transform="rotate(-0, 39.13875, 201.227623)">6</text>
     </g>
    </g>
    <g id="ytick_5">
     <g id="line2d_13">
      <path d="M 46.13875 157.197247 
L 450 157.197247 
" clip-path="url(#pf905b0e59e)" style="fill: none; stroke: #ffffff; stroke-width: 0.8; stroke-linecap: square"/>
     </g>
     <g id="line2d_14">
      <g>
       <use xlink:href="#mf716fc9c56" x="46.13875" y="157.197247" style="fill: #555555; stroke: #555555; stroke-width: 0.8"/>
      </g>
     </g>
     <g id="text_7">
      <text style="fill: #555555; font: 10px 'Verdana'; text-anchor: end" x="39.13875" y="160.996466" transform="rotate(-0, 39.13875, 160.996466)">8</text>
     </g>
    </g>
    <g id="ytick_6">
     <g id="line2d_15">
      <path d="M 46.13875 116.96609 
L 450 116.96609 
" clip-path="url(#pf905b0e59e)" style="fill: none; stroke: #ffffff; stroke-width: 0.8; stroke-linecap: square"/>
     </g>
     <g id="line2d_16">
      <g>
       <use xlink:href="#mf716fc9c56" x="46.13875" y="116.96609" style="fill: #555555; stroke: #555555; stroke-width: 0.8"/>
      </g>
     </g>
     <g id="text_8">
      <text style="fill: #555555; font: 10px 'Verdana'; text-anchor: end" x="39.13875" y="120.765309" transform="rotate(-0, 39.13875, 120.765309)">10</text>
     </g>
    </g>
    <g id="ytick_7">
     <g id="line2d_17">
      <path d="M 46.13875 76.734933 
L 450 76.734933 
" clip-path="url(#pf905b0e59e)" style="fill: none; stroke: #ffffff; stroke-width: 0.8; stroke-linecap: square"/>
     </g>
     <g id="line2d_18">
      <g>
       <use xlink:href="#mf716fc9c56" x="46.13875" y="76.734933" style="fill: #555555; stroke: #555555; stroke-width: 0.8"/>
      </g>
     </g>
     <g id="text_9">
      <text style="fill: #555555; font: 10px 'Verdana'; text-anchor: end" x="39.13875" y="80.534152" transform="rotate(-0, 39.13875, 80.534152)">12</text>
     </g>
    </g>
    <g id="ytick_8">
     <g id="line2d_19">
      <path d="M 46.13875 36.503776 
L 450 36.503776 
" clip-path="url(#pf905b0e59e)" style="fill: none; stroke: #ffffff; stroke-width: 0.8; stroke-linecap: square"/>
     </g>
     <g id="line2d_20">
      <g>
       <use xlink:href="#mf716fc9c56" x="46.13875" y="36.503776" style="fill: #555555; stroke: #555555; stroke-width: 0.8"/>
      </g>
     </g>
     <g id="text_10">
      <text style="fill: #555555; font: 10px 'Verdana'; text-anchor: end" x="39.13875" y="40.302995" transform="rotate(-0, 39.13875, 40.302995)">14</text>
     </g>
    </g>
    <g id="text_11">
     <text style="fill: #555555; font: 12px 'Verdana'; text-anchor: middle" x="19.918125" y="164.464" transform="rotate(-90, 19.918125, 164.464)">seconds</text>
    </g>
   </g>
   <g id="patch_3">
    <path d="M 64.49608 318.121875 
L 99.278388 318.121875 
L 99.278388 25.440208 
L 64.49608 25.440208 
z
" clip-path="url(#pf905b0e59e)" style="fill: #348abd"/>
   </g>
   <g id="patch_4">
    <path d="M 257.731127 318.121875 
L 292.513436 318.121875 
L 292.513436 240.133777 
L 257.731127 240.133777 
z
" clip-path="url(#pf905b0e59e)" style="fill: #348abd"/>
   </g>
   <g id="patch_5">
    <path d="M 99.278388 318.121875 
L 134.060697 318.121875 
L 134.060697 246.409838 
L 99.278388 246.409838 
z
" clip-path="url(#pf905b0e59e)" style="fill: #988ed5"/>
   </g>
   <g id="patch_6">
    <path d="M 292.513436 318.121875 
L 327.295745 318.121875 
L 327.295745 301.023633 
L 292.513436 301.023633 
z
" clip-path="url(#pf905b0e59e)" style="fill: #988ed5"/>
   </g>
   <g id="patch_7">
    <path d="M 134.060697 318.121875 
L 168.843005 318.121875 
L 168.843005 36.523892 
L 134.060697 36.523892 
z
" clip-path="url(#pf905b0e59e)" style="fill: #777777"/>
   </g>
   <g id="patch_8">
    <path d="M 327.295745 318.121875 
L 362.078053 318.121875 
L 362.078053 243.412617 
L 327.295745 243.412617 
z
" clip-path="url(#pf905b0e59e)" style="fill: #777777"/>
   </g>
   <g id="patch_9">
    <path d="M 168.843005 318.121875 
L 203.625314 318.121875 
L 203.625314 242.889612 
L 168.843005 242.889612 
z
" clip-path="url(#pf905b0e59e)" style="fill: #fbc15e"/>
   </g>
   <g id="patch_10">
    <path d="M 362.078053 318.121875 
L 396.860362 318.121875 
L 396.860362 295.218277 
L 362.078053 295.218277 
z
" clip-path="url(#pf905b0e59e)" style="fill: #fbc15e"/>
   </g>
   <g id="patch_11">
    <path d="M 203.625314 318.121875 
L 238.407623 318.121875 
L 238.407623 249.95018 
L 203.625314 249.95018 
z
" clip-path="url(#pf905b0e59e)" style="fill: #8eba42"/>
   </g>
   <g id="patch_12">
    <path d="M 396.860362 318.121875 
L 431.64267 318.121875 
L 431.64267 303.079445 
L 396.860362 303.079445 
z
" clip-path="url(#pf905b0e59e)" style="fill: #8eba42"/>
   </g>
   <g id="patch_13">
    <path d="M 46.13875 318.121875 
L 46.13875 10.806125 
" style="fill: none; stroke: #ffffff; stroke-linejoin: miter; stroke-linecap: square"/>
   </g>
   <g id="patch_14">
    <path d="M 450 318.121875 
L 450 10.806125 
" style="fill: none; stroke: #ffffff; stroke-linejoin: miter; stroke-linecap: square"/>
   </g>
   <g id="patch_15">
    <path d="M 46.13875 318.121875 
L 450 318.121875 
" style="fill: none; stroke: #ffffff; stroke-linejoin: miter; stroke-linecap: square"/>
   </g>
   <g id="patch_16">
    <path d="M 46.13875 10.806125 
L 450 10.806125 
" style="fill: none; stroke: #ffffff; stroke-linejoin: miter; stroke-linecap: square"/>
   </g>
   <g id="text_12">
    <text style="font: 10px 'Verdana'; text-anchor: middle" x="81.887234" y="20.360521" transform="rotate(-0, 81.887234, 20.360521)">14.6</text>
   </g>
   <g id="text_13">
    <text style="font: 10px 'Verdana'; text-anchor: middle" x="275.122282" y="235.05409" transform="rotate(-0, 275.122282, 235.05409)">3.88</text>
   </g>
   <g id="text_14">
    <text style="font: 10px 'Verdana'; text-anchor: middle" x="116.669542" y="241.33015" transform="rotate(-0, 116.669542, 241.33015)">3.56</text>
   </g>
   <g id="text_15">
    <text style="font: 10px 'Verdana'; text-anchor: middle" x="309.90459" y="295.943946" transform="rotate(-0, 309.90459, 295.943946)">0.85</text>
   </g>
   <g id="text_16">
    <text style="font: 10px 'Verdana'; text-anchor: middle" x="151.451851" y="31.444205" transform="rotate(-0, 151.451851, 31.444205)">14</text>
   </g>
   <g id="text_17">
    <text style="font: 10px 'Verdana'; text-anchor: middle" x="344.686899" y="238.332929" transform="rotate(-0, 344.686899, 238.332929)">3.71</text>
   </g>
   <g id="text_18">
    <text style="font: 10px 'Verdana'; text-anchor: middle" x="186.23416" y="237.809924" transform="rotate(-0, 186.23416, 237.809924)">3.74</text>
   </g>
   <g id="text_19">
    <text style="font: 10px 'Verdana'; text-anchor: middle" x="379.469208" y="290.13859" transform="rotate(-0, 379.469208, 290.13859)">1.14</text>
   </g>
   <g id="text_20">
    <text style="font: 10px 'Verdana'; text-anchor: middle" x="221.016468" y="244.870492" transform="rotate(-0, 221.016468, 244.870492)">3.39</text>
   </g>
   <g id="text_21">
    <text style="font: 10px 'Verdana'; text-anchor: middle" x="414.251516" y="297.999758" transform="rotate(-0, 414.251516, 297.999758)">0.748</text>
   </g>
   <g id="legend_1">
    <g id="patch_17">
     <path d="M 303.823437 92.19675 
L 443 92.19675 
Q 445 92.19675 445 90.19675 
L 445 17.806125 
Q 445 15.806125 443 15.806125 
L 303.823437 15.806125 
Q 301.823437 15.806125 301.823437 17.806125 
L 301.823437 90.19675 
Q 301.823437 92.19675 303.823437 92.19675 
z
" style="fill: #e5e5e5; opacity: 0.8; stroke: #cccccc; stroke-width: 0.5; stroke-linejoin: miter"/>
    </g>
    <g id="patch_18">
     <path d="M 305.823437 27.404563 
L 325.823437 27.404563 
L 325.823437 20.404563 
L 305.823437 20.404563 
z
" style="fill: #348abd"/>
    </g>
    <g id="text_22">
     <text style="font: 10px 'Verdana'; text-anchor: start" x="333.823437" y="27.404563" transform="rotate(-0, 333.823437, 27.404563)">dynasm-jit</text>
    </g>
    <g id="patch_19">
     <path d="M 305.823437 42.082688 
L 325.823437 42.082688 
L 325.823437 35.082688 
L 305.823437 35.082688 
z
" style="fill: #988ed5"/>
    </g>
    <g id="text_23">
     <text style="font: 10px 'Verdana'; text-anchor: start" x="333.823437" y="42.082688" transform="rotate(-0, 333.823437, 42.082688)">optimized-jit</text>
    </g>
    <g id="patch_20">
     <path d="M 305.823437 56.760813 
L 325.823437 56.760813 
L 325.823437 49.760813 
L 305.823437 49.760813 
z
" style="fill: #777777"/>
    </g>
    <g id="text_24">
     <text style="font: 10px 'Verdana'; text-anchor: start" x="333.823437" y="56.760813" transform="rotate(-0, 333.823437, 56.760813)">cranelift-jit</text>
    </g>
    <g id="patch_21">
     <path d="M 305.823437 71.438938 
L 325.823437 71.438938 
L 325.823437 64.438938 
L 305.823437 64.438938 
z
" style="fill: #fbc15e"/>
    </g>
    <g id="text_25">
     <text style="font: 10px 'Verdana'; text-anchor: start" x="333.823437" y="71.438938" transform="rotate(-0, 333.823437, 71.438938)">repeat-cranelift-jit</text>
    </g>
    <g id="patch_22">
     <path d="M 305.823437 86.117063 
L 325.823437 86.117063 
L 325.823437 79.117063 
L 305.823437 79.117063 
z
" style="fill: #8eba42"/>
    </g>
    <g id="text_26">
     <text style="font: 10px 'Verdana'; text-anchor: start" x="333.823437" y="86.117063" transform="rotate(-0, 333.823437, 86.117063)">optimized-cranelift-jit</text>
    </g>
   </g>
  </g>
 </g>
 <defs>
  <clipPath id="pf905b0e59e">
   <rect x="46.13875" y="10.806125" width="403.86125" height="307.31575"/>
  </clipPath>
 </defs>
</svg>
