<?xml version="1.0" encoding="utf-8" standalone="no"?>
<!DOCTYPE svg PUBLIC "-//W3C//DTD SVG 1.1//EN"
  "http://www.w3.org/Graphics/SVG/1.1/DTD/svg11.dtd">
<svg xmlns:xlink="http://www.w3.org/1999/xlink" width="460.8pt" height="345.6pt" viewBox="0 0 460.8 345.6" xmlns="http://www.w3.org/2000/svg" version="1.1">
 <metadata>
  <rdf:RDF xmlns:dc="http://purl.org/dc/elements/1.1/" xmlns:cc="http://creativecommons.org/ns#" xmlns:rdf="http://www.w3.org/1999/02/22-rdf-syntax-ns#">
   <cc:Work>
    <dc:type rdf:resource="http://purl.org/dc/dcmitype/StillImage"/>
    <dc:date>2022-11-04T16:06:43.044202</dc:date>
    <dc:format>image/svg+xml</dc:format>
    <dc:creator>
     <cc:Agent>
      <dc:title>Matplotlib v3.5.3, https://matplotlib.org/</dc:title>
     </cc:Agent>
    </dc:creator>
   </cc:Work>
  </rdf:RDF>
 </metadata>
 <defs>
  <style type="text/css">*{stroke-linejoin: round; stroke-linecap: butt}</style>
 </defs>
 <g id="figure_1">
  <g id="patch_1">
   <path d="M 0 345.6 
L 460.8 345.6 
L 460.8 0 
L 0 0 
z
" style="fill: #ffffff"/>
  </g>
  <g id="axes_1">
   <g id="patch_2">
    <path d="M 52.50125 318.121875 
L 450 318.121875 
L 450 12.212505 
L 52.50125 12.212505 
z
" style="fill: #e5e5e5"/>
   </g>
   <g id="matplotlib.axis_1">
    <g id="xtick_1">
     <g id="line2d_1">
      <path d="M 168.381781 318.121875 
L 168.381781 12.212505 
" clip-path="url(#p1cd5bfd6c3)" style="fill: none; stroke: #ffffff; stroke-width: 0.8; stroke-linecap: square"/>
     </g>
     <g id="line2d_2">
      <defs>
       <path id="m25f33bea33" d="M 0 0 
L 0 3.5 
" style="stroke: #555555; stroke-width: 0.8"/>
      </defs>
      <g>
       <use xlink:href="#m25f33bea33" x="168.381781" y="318.121875" style="fill: #555555; stroke: #555555; stroke-width: 0.8"/>
      </g>
     </g>
     <g id="text_1">
      <text style="fill: #555555; font: 10px 'Verdana'; text-anchor: middle" x="168.381781" y="332.720312" transform="rotate(-0, 168.381781, 332.720312)">mandelbrot.bf</text>
     </g>
    </g>
    <g id="xtick_2">
     <g id="line2d_3">
      <path d="M 358.57257 318.121875 
L 358.57257 12.212505 
" clip-path="url(#p1cd5bfd6c3)" style="fill: none; stroke: #ffffff; stroke-width: 0.8; stroke-linecap: square"/>
     </g>
     <g id="line2d_4">
      <g>
       <use xlink:href="#m25f33bea33" x="358.57257" y="318.121875" style="fill: #555555; stroke: #555555; stroke-width: 0.8"/>
      </g>
     </g>
     <g id="text_2">
      <text style="fill: #555555; font: 10px 'Verdana'; text-anchor: middle" x="358.57257" y="332.720312" transform="rotate(-0, 358.57257, 332.720312)">factor.bf</text>
     </g>
    </g>
   </g>
   <g id="matplotlib.axis_2">
    <g id="ytick_1">
     <g id="line2d_5">
      <path d="M 52.50125 318.121875 
L 450 318.121875 
" clip-path="url(#p1cd5bfd6c3)" style="fill: none; stroke: #ffffff; stroke-width: 0.8; stroke-linecap: square"/>
     </g>
     <g id="line2d_6">
      <defs>
       <path id="m4838dee356" d="M 0 0 
L -3.5 0 
" style="stroke: #555555; stroke-width: 0.8"/>
      </defs>
      <g>
       <use xlink:href="#m4838dee356" x="52.50125" y="318.121875" style="fill: #555555; stroke: #555555; stroke-width: 0.8"/>
      </g>
     </g>
     <g id="text_3">
      <text style="fill: #555555; font: 10px 'Verdana'; text-anchor: end" x="45.50125" y="321.921094" transform="rotate(-0, 45.50125, 321.921094)">0</text>
     </g>
    </g>
    <g id="ytick_2">
     <g id="line2d_7">
      <path d="M 52.50125 257.488731 
L 450 257.488731 
" clip-path="url(#p1cd5bfd6c3)" style="fill: none; stroke: #ffffff; stroke-width: 0.8; stroke-linecap: square"/>
     </g>
     <g id="line2d_8">
      <g>
       <use xlink:href="#m4838dee356" x="52.50125" y="257.488731" style="fill: #555555; stroke: #555555; stroke-width: 0.8"/>
      </g>
     </g>
     <g id="text_4">
      <text style="fill: #555555; font: 10px 'Verdana'; text-anchor: end" x="45.50125" y="261.28795" transform="rotate(-0, 45.50125, 261.28795)">20</text>
     </g>
    </g>
    <g id="ytick_3">
     <g id="line2d_9">
      <path d="M 52.50125 196.855587 
L 450 196.855587 
" clip-path="url(#p1cd5bfd6c3)" style="fill: none; stroke: #ffffff; stroke-width: 0.8; stroke-linecap: square"/>
     </g>
     <g id="line2d_10">
      <g>
       <use xlink:href="#m4838dee356" x="52.50125" y="196.855587" style="fill: #555555; stroke: #555555; stroke-width: 0.8"/>
      </g>
     </g>
     <g id="text_5">
      <text style="fill: #555555; font: 10px 'Verdana'; text-anchor: end" x="45.50125" y="200.654806" transform="rotate(-0, 45.50125, 200.654806)">40</text>
     </g>
    </g>
    <g id="ytick_4">
     <g id="line2d_11">
      <path d="M 52.50125 136.222443 
L 450 136.222443 
" clip-path="url(#p1cd5bfd6c3)" style="fill: none; stroke: #ffffff; stroke-width: 0.8; stroke-linecap: square"/>
     </g>
     <g id="line2d_12">
      <g>
       <use xlink:href="#m4838dee356" x="52.50125" y="136.222443" style="fill: #555555; stroke: #555555; stroke-width: 0.8"/>
      </g>
     </g>
     <g id="text_6">
      <text style="fill: #555555; font: 10px 'Verdana'; text-anchor: end" x="45.50125" y="140.021662" transform="rotate(-0, 45.50125, 140.021662)">60</text>
     </g>
    </g>
    <g id="ytick_5">
     <g id="line2d_13">
      <path d="M 52.50125 75.589299 
L 450 75.589299 
" clip-path="url(#p1cd5bfd6c3)" style="fill: none; stroke: #ffffff; stroke-width: 0.8; stroke-linecap: square"/>
     </g>
     <g id="line2d_14">
      <g>
       <use xlink:href="#m4838dee356" x="52.50125" y="75.589299" style="fill: #555555; stroke: #555555; stroke-width: 0.8"/>
      </g>
     </g>
     <g id="text_7">
      <text style="fill: #555555; font: 10px 'Verdana'; text-anchor: end" x="45.50125" y="79.388517" transform="rotate(-0, 45.50125, 79.388517)">80</text>
     </g>
    </g>
    <g id="ytick_6">
     <g id="line2d_15">
      <path d="M 52.50125 14.956155 
L 450 14.956155 
" clip-path="url(#p1cd5bfd6c3)" style="fill: none; stroke: #ffffff; stroke-width: 0.8; stroke-linecap: square"/>
     </g>
     <g id="line2d_16">
      <g>
       <use xlink:href="#m4838dee356" x="52.50125" y="14.956155" style="fill: #555555; stroke: #555555; stroke-width: 0.8"/>
      </g>
     </g>
     <g id="text_8">
      <text style="fill: #555555; font: 10px 'Verdana'; text-anchor: end" x="45.50125" y="18.755373" transform="rotate(-0, 45.50125, 18.755373)">100</text>
     </g>
    </g>
    <g id="text_9">
     <text style="fill: #555555; font: 12px 'Verdana'; text-anchor: middle" x="19.918125" y="165.16719" transform="rotate(-90, 19.918125, 165.16719)">seconds</text>
    </g>
   </g>
   <g id="patch_3">
    <path d="M 70.569375 318.121875 
L 95.022477 318.121875 
L 95.022477 26.779618 
L 70.569375 26.779618 
z
" clip-path="url(#p1cd5bfd6c3)" style="fill: #e24a33"/>
   </g>
   <g id="patch_4">
    <path d="M 260.760164 318.121875 
L 285.213266 318.121875 
L 285.213266 234.205604 
L 260.760164 234.205604 
z
" clip-path="url(#p1cd5bfd6c3)" style="fill: #e24a33"/>
   </g>
   <g id="patch_5">
    <path d="M 95.022477 318.121875 
L 119.475578 318.121875 
L 119.475578 98.842109 
L 95.022477 98.842109 
z
" clip-path="url(#p1cd5bfd6c3)" style="fill: #348abd"/>
   </g>
   <g id="patch_6">
    <path d="M 285.213266 318.121875 
L 309.666367 318.121875 
L 309.666367 258.276962 
L 285.213266 258.276962 
z
" clip-path="url(#p1cd5bfd6c3)" style="fill: #348abd"/>
   </g>
   <g id="patch_7">
    <path d="M 119.475578 318.121875 
L 143.92868 318.121875 
L 143.92868 99.569707 
L 119.475578 99.569707 
z
" clip-path="url(#p1cd5bfd6c3)" style="fill: #988ed5"/>
   </g>
   <g id="patch_8">
    <path d="M 309.666367 318.121875 
L 334.119469 318.121875 
L 334.119469 258.434608 
L 309.666367 258.434608 
z
" clip-path="url(#p1cd5bfd6c3)" style="fill: #988ed5"/>
   </g>
   <g id="patch_9">
    <path d="M 143.92868 318.121875 
L 168.381781 318.121875 
L 168.381781 263.855211 
L 143.92868 263.855211 
z
" clip-path="url(#p1cd5bfd6c3)" style="fill: #777777"/>
   </g>
   <g id="patch_10">
    <path d="M 334.119469 318.121875 
L 358.57257 318.121875 
L 358.57257 298.679857 
L 334.119469 298.679857 
z
" clip-path="url(#p1cd5bfd6c3)" style="fill: #777777"/>
   </g>
   <g id="patch_11">
    <path d="M 168.381781 318.121875 
L 192.834883 318.121875 
L 192.834883 264.21901 
L 168.381781 264.21901 
z
" clip-path="url(#p1cd5bfd6c3)" style="fill: #fbc15e"/>
   </g>
   <g id="patch_12">
    <path d="M 358.57257 318.121875 
L 383.025672 318.121875 
L 383.025672 300.280572 
L 358.57257 300.280572 
z
" clip-path="url(#p1cd5bfd6c3)" style="fill: #fbc15e"/>
   </g>
   <g id="patch_13">
    <path d="M 192.834883 318.121875 
L 217.287984 318.121875 
L 217.287984 265.643889 
L 192.834883 265.643889 
z
" clip-path="url(#p1cd5bfd6c3)" style="fill: #8eba42"/>
   </g>
   <g id="patch_14">
    <path d="M 383.025672 318.121875 
L 407.478773 318.121875 
L 407.478773 305.30706 
L 383.025672 305.30706 
z
" clip-path="url(#p1cd5bfd6c3)" style="fill: #8eba42"/>
   </g>
   <g id="patch_15">
    <path d="M 217.287984 318.121875 
L 241.741086 318.121875 
L 241.741086 275.436142 
L 217.287984 275.436142 
z
" clip-path="url(#p1cd5bfd6c3)" style="fill: #ffb5b8"/>
   </g>
   <g id="patch_16">
    <path d="M 407.478773 318.121875 
L 431.931875 318.121875 
L 431.931875 305.789093 
L 407.478773 305.789093 
z
" clip-path="url(#p1cd5bfd6c3)" style="fill: #ffb5b8"/>
   </g>
   <g id="patch_17">
    <path d="M 52.50125 318.121875 
L 52.50125 12.212505 
" style="fill: none; stroke: #ffffff; stroke-linejoin: miter; stroke-linecap: square"/>
   </g>
   <g id="patch_18">
    <path d="M 450 318.121875 
L 450 12.212505 
" style="fill: none; stroke: #ffffff; stroke-linejoin: miter; stroke-linecap: square"/>
   </g>
   <g id="patch_19">
    <path d="M 52.50125 318.121875 
L 450 318.121875 
" style="fill: none; stroke: #ffffff; stroke-linejoin: miter; stroke-linecap: square"/>
   </g>
   <g id="patch_20">
    <path d="M 52.50125 12.212505 
L 450 12.212505 
" style="fill: none; stroke: #ffffff; stroke-linejoin: miter; stroke-linecap: square"/>
   </g>
   <g id="text_10">
    <text style="font: 10px 'Verdana'; text-anchor: middle" x="82.795926" y="21.69993" transform="rotate(-0, 82.795926, 21.69993)">96.1</text>
   </g>
   <g id="text_11">
    <text style="font: 10px 'Verdana'; text-anchor: middle" x="272.986715" y="229.125916" transform="rotate(-0, 272.986715, 229.125916)">27.7</text>
   </g>
   <g id="text_12">
    <text style="font: 10px 'Verdana'; text-anchor: middle" x="107.249027" y="93.762422" transform="rotate(-0, 107.249027, 93.762422)">72.3</text>
   </g>
   <g id="text_13">
    <text style="font: 10px 'Verdana'; text-anchor: middle" x="297.439817" y="253.197274" transform="rotate(-0, 297.439817, 253.197274)">19.7</text>
   </g>
   <g id="text_14">
    <text style="font: 10px 'Verdana'; text-anchor: middle" x="131.702129" y="94.49002" transform="rotate(-0, 131.702129, 94.49002)">72.1</text>
   </g>
   <g id="text_15">
    <text style="font: 10px 'Verdana'; text-anchor: middle" x="321.892918" y="253.35492" transform="rotate(-0, 321.892918, 253.35492)">19.7</text>
   </g>
   <g id="text_16">
    <text style="font: 10px 'Verdana'; text-anchor: middle" x="156.15523" y="258.775524" transform="rotate(-0, 156.15523, 258.775524)">17.9</text>
   </g>
   <g id="text_17">
    <text style="font: 10px 'Verdana'; text-anchor: middle" x="346.34602" y="293.60017" transform="rotate(-0, 346.34602, 293.60017)">6.41</text>
   </g>
   <g id="text_18">
    <text style="font: 10px 'Verdana'; text-anchor: middle" x="180.608332" y="259.139322" transform="rotate(-0, 180.608332, 259.139322)">17.8</text>
   </g>
   <g id="text_19">
    <text style="font: 10px 'Verdana'; text-anchor: middle" x="370.799121" y="295.200885" transform="rotate(-0, 370.799121, 295.200885)">5.88</text>
   </g>
   <g id="text_20">
    <text style="font: 10px 'Verdana'; text-anchor: middle" x="205.061433" y="260.564201" transform="rotate(-0, 205.061433, 260.564201)">17.3</text>
   </g>
   <g id="text_21">
    <text style="font: 10px 'Verdana'; text-anchor: middle" x="395.252223" y="300.227373" transform="rotate(-0, 395.252223, 300.227373)">4.23</text>
   </g>
   <g id="text_22">
    <text style="font: 10px 'Verdana'; text-anchor: middle" x="229.514535" y="270.356454" transform="rotate(-0, 229.514535, 270.356454)">14.1</text>
   </g>
   <g id="text_23">
    <text style="font: 10px 'Verdana'; text-anchor: middle" x="419.705324" y="300.709406" transform="rotate(-0, 419.705324, 300.709406)">4.07</text>
   </g>
   <g id="legend_1">
    <g id="patch_21">
     <path d="M 316.903125 122.95938 
L 443 122.95938 
Q 445 122.95938 445 120.95938 
L 445 19.212505 
Q 445 17.212505 443 17.212505 
L 316.903125 17.212505 
Q 314.903125 17.212505 314.903125 19.212505 
L 314.903125 120.95938 
Q 314.903125 122.95938 316.903125 122.95938 
z
" style="fill: #e5e5e5; opacity: 0.8; stroke: #cccccc; stroke-width: 0.5; stroke-linejoin: miter"/>
    </g>
    <g id="patch_22">
     <path d="M 318.903125 28.810942 
L 338.903125 28.810942 
L 338.903125 21.810942 
L 318.903125 21.810942 
z
" style="fill: #e24a33"/>
    </g>
    <g id="text_24">
     <text style="font: 10px 'Verdana'; text-anchor: start" x="346.903125" y="28.810942" transform="rotate(-0, 346.903125, 28.810942)">basic</text>
    </g>
    <g id="patch_23">
     <path d="M 318.903125 43.489067 
L 338.903125 43.489067 
L 338.903125 36.489067 
L 318.903125 36.489067 
z
" style="fill: #348abd"/>
    </g>
    <g id="text_25">
     <text style="font: 10px 'Verdana'; text-anchor: start" x="346.903125" y="43.489067" transform="rotate(-0, 346.903125, 43.489067)">precompute jumps</text>
    </g>
    <g id="patch_24">
     <path d="M 318.903125 58.167192 
L 338.903125 58.167192 
L 338.903125 51.167192 
L 318.903125 51.167192 
z
" style="fill: #988ed5"/>
    </g>
    <g id="text_26">
     <text style="font: 10px 'Verdana'; text-anchor: start" x="346.903125" y="58.167192" transform="rotate(-0, 346.903125, 58.167192)">Add</text>
    </g>
    <g id="patch_25">
     <path d="M 318.903125 72.845317 
L 338.903125 72.845317 
L 338.903125 65.845317 
L 318.903125 65.845317 
z
" style="fill: #777777"/>
    </g>
    <g id="text_27">
     <text style="font: 10px 'Verdana'; text-anchor: start" x="346.903125" y="72.845317" transform="rotate(-0, 346.903125, 72.845317)">Move</text>
    </g>
    <g id="patch_26">
     <path d="M 318.903125 87.523442 
L 338.903125 87.523442 
L 338.903125 80.523442 
L 318.903125 80.523442 
z
" style="fill: #fbc15e"/>
    </g>
    <g id="text_28">
     <text style="font: 10px 'Verdana'; text-anchor: start" x="346.903125" y="87.523442" transform="rotate(-0, 346.903125, 87.523442)">Clear</text>
    </g>
    <g id="patch_27">
     <path d="M 318.903125 102.201567 
L 338.903125 102.201567 
L 338.903125 95.201567 
L 318.903125 95.201567 
z
" style="fill: #8eba42"/>
    </g>
    <g id="text_29">
     <text style="font: 10px 'Verdana'; text-anchor: start" x="346.903125" y="102.201567" transform="rotate(-0, 346.903125, 102.201567)">AddTo</text>
    </g>
    <g id="patch_28">
     <path d="M 318.903125 116.879692 
L 338.903125 116.879692 
L 338.903125 109.879692 
L 318.903125 109.879692 
z
" style="fill: #ffb5b8"/>
    </g>
    <g id="text_30">
     <text style="font: 10px 'Verdana'; text-anchor: start" x="346.903125" y="116.879692" transform="rotate(-0, 346.903125, 116.879692)">MoveUntil</text>
    </g>
   </g>
  </g>
 </g>
 <defs>
  <clipPath id="p1cd5bfd6c3">
   <rect x="52.50125" y="12.212505" width="397.49875" height="305.90937"/>
  </clipPath>
 </defs>
</svg>
