<?xml version="1.0" encoding="utf-8" standalone="no"?>
<!DOCTYPE svg PUBLIC "-//W3C//DTD SVG 1.1//EN"
  "http://www.w3.org/Graphics/SVG/1.1/DTD/svg11.dtd">
<svg xmlns:xlink="http://www.w3.org/1999/xlink" width="568.485937pt" height="279.99625pt" viewBox="0 0 568.485937 279.99625" xmlns="http://www.w3.org/2000/svg" version="1.1">
 <metadata>
  <rdf:RDF xmlns:dc="http://purl.org/dc/elements/1.1/" xmlns:cc="http://creativecommons.org/ns#" xmlns:rdf="http://www.w3.org/1999/02/22-rdf-syntax-ns#">
   <cc:Work>
    <dc:type rdf:resource="http://purl.org/dc/dcmitype/StillImage"/>
    <dc:date>2023-09-10T14:25:26.318764</dc:date>
    <dc:format>image/svg+xml</dc:format>
    <dc:creator>
     <cc:Agent>
      <dc:title>Matplotlib v3.7.2, https://matplotlib.org/</dc:title>
     </cc:Agent>
    </dc:creator>
   </cc:Work>
  </rdf:RDF>
 </metadata>
 <defs>
  <style type="text/css">*{stroke-linejoin: round; stroke-linecap: butt}</style>
 </defs>
 <g id="figure_1">
  <g id="patch_1">
   <path d="M 0 279.99625 
L 568.485937 279.99625 
L 568.485937 0 
L 0 0 
L 0 279.99625 
z
" style="fill: none"/>
  </g>
  <g id="axes_1">
   <g id="patch_2">
    <path d="M 173.185937 242.44 
L 561.285937 242.44 
L 561.285937 7.2 
L 173.185937 7.2 
L 173.185937 242.44 
z
" style="fill: none"/>
   </g>
   <g id="patch_3">
    <path d="M 173.185937 220.709619 
L 182.162761 220.709619 
L 182.162761 211.051672 
L 173.185937 211.051672 
z
" clip-path="url(#p3cf292eb5f)" style="fill: #1f77b4"/>
   </g>
   <g id="patch_4">
    <path d="M 173.185937 193.115484 
L 186.713282 193.115484 
L 186.713282 183.457537 
L 173.185937 183.457537 
z
" clip-path="url(#p3cf292eb5f)" style="fill: #1f77b4"/>
   </g>
   <g id="patch_5">
    <path d="M 173.185937 165.521349 
L 194.158083 165.521349 
L 194.158083 155.863402 
L 173.185937 155.863402 
z
" clip-path="url(#p3cf292eb5f)" style="fill: #1f77b4"/>
   </g>
   <g id="patch_6">
    <path d="M 173.185937 137.927214 
L 203.408186 137.927214 
L 203.408186 128.269267 
L 173.185937 128.269267 
z
" clip-path="url(#p3cf292eb5f)" style="fill: #1f77b4"/>
   </g>
   <g id="patch_7">
    <path d="M 173.185937 110.333079 
L 234.326055 110.333079 
L 234.326055 100.675132 
L 173.185937 100.675132 
z
" clip-path="url(#p3cf292eb5f)" style="fill: #1f77b4"/>
   </g>
   <g id="patch_8">
    <path d="M 173.185937 82.738944 
L 218.330912 82.738944 
L 218.330912 73.080997 
L 173.185937 73.080997 
z
" clip-path="url(#p3cf292eb5f)" style="fill: #1f77b4"/>
   </g>
   <g id="patch_9">
    <path d="M 173.185937 55.144809 
L 294.232273 55.144809 
L 294.232273 45.486862 
L 173.185937 45.486862 
z
" clip-path="url(#p3cf292eb5f)" style="fill: #1f77b4"/>
   </g>
   <g id="patch_10">
    <path d="M 173.185937 27.550674 
L 403.125944 27.550674 
L 403.125944 17.892727 
L 173.185937 17.892727 
z
" clip-path="url(#p3cf292eb5f)" style="fill: #1f77b4"/>
   </g>
   <g id="patch_11">
    <path d="M 173.185937 231.747273 
L 190.435682 231.747273 
L 190.435682 222.089326 
L 173.185937 222.089326 
z
" clip-path="url(#p3cf292eb5f)" style="fill: #ff7f0e"/>
   </g>
   <g id="patch_12">
    <path d="M 173.185937 204.153138 
L 209.900648 204.153138 
L 209.900648 194.495191 
L 173.185937 194.495191 
z
" clip-path="url(#p3cf292eb5f)" style="fill: #ff7f0e"/>
   </g>
   <g id="patch_13">
    <path d="M 173.185937 176.559003 
L 255.165701 176.559003 
L 255.165701 166.901056 
L 173.185937 166.901056 
z
" clip-path="url(#p3cf292eb5f)" style="fill: #ff7f0e"/>
   </g>
   <g id="patch_14">
    <path d="M 173.185937 148.964868 
L 281.255629 148.964868 
L 281.255629 139.306921 
L 173.185937 139.306921 
z
" clip-path="url(#p3cf292eb5f)" style="fill: #ff7f0e"/>
   </g>
   <g id="patch_15">
    <path d="M 173.185937 121.370733 
L 276.568468 121.370733 
L 276.568468 111.712786 
L 173.185937 111.712786 
z
" clip-path="url(#p3cf292eb5f)" style="fill: #ff7f0e"/>
   </g>
   <g id="patch_16">
    <path d="M 173.185937 93.776598 
L 272.564507 93.776598 
L 272.564507 84.118651 
L 173.185937 84.118651 
z
" clip-path="url(#p3cf292eb5f)" style="fill: #ff7f0e"/>
   </g>
   <g id="patch_17">
    <path d="M 173.185937 66.182463 
L 454.75096 66.182463 
L 454.75096 56.524516 
L 173.185937 56.524516 
z
" clip-path="url(#p3cf292eb5f)" style="fill: #ff7f0e"/>
   </g>
   <g id="patch_18">
    <path d="M 173.185937 38.588328 
L 542.804985 38.588328 
L 542.804985 28.930381 
L 173.185937 28.930381 
z
" clip-path="url(#p3cf292eb5f)" style="fill: #ff7f0e"/>
   </g>
   <g id="matplotlib.axis_1">
    <g id="xtick_1">
     <g id="line2d_1">
      <defs>
       <path id="m8b03f3ee61" d="M 0 0 
L 0 3.5 
" style="stroke: #000000; stroke-width: 0.8"/>
      </defs>
      <g>
       <use xlink:href="#m8b03f3ee61" x="173.185937" y="242.44" style="stroke: #000000; stroke-width: 0.8"/>
      </g>
     </g>
     <g id="text_1">
      <!-- 0 -->
      <g transform="translate(170.004687 257.038437) scale(0.1 -0.1)">
       <defs>
        <path id="DejaVuSans-30" d="M 2034 4250 
Q 1547 4250 1301 3770 
Q 1056 3291 1056 2328 
Q 1056 1369 1301 889 
Q 1547 409 2034 409 
Q 2525 409 2770 889 
Q 3016 1369 3016 2328 
Q 3016 3291 2770 3770 
Q 2525 4250 2034 4250 
z
M 2034 4750 
Q 2819 4750 3233 4129 
Q 3647 3509 3647 2328 
Q 3647 1150 3233 529 
Q 2819 -91 2034 -91 
Q 1250 -91 836 529 
Q 422 1150 422 2328 
Q 422 3509 836 4129 
Q 1250 4750 2034 4750 
z
" transform="scale(0.015625)"/>
       </defs>
       <use xlink:href="#DejaVuSans-30"/>
      </g>
     </g>
    </g>
    <g id="xtick_2">
     <g id="line2d_2">
      <g>
       <use xlink:href="#m8b03f3ee61" x="255.997962" y="242.44" style="stroke: #000000; stroke-width: 0.8"/>
      </g>
     </g>
     <g id="text_2">
      <!-- 5 -->
      <g transform="translate(252.816712 257.038437) scale(0.1 -0.1)">
       <defs>
        <path id="DejaVuSans-35" d="M 691 4666 
L 3169 4666 
L 3169 4134 
L 1269 4134 
L 1269 2991 
Q 1406 3038 1543 3061 
Q 1681 3084 1819 3084 
Q 2600 3084 3056 2656 
Q 3513 2228 3513 1497 
Q 3513 744 3044 326 
Q 2575 -91 1722 -91 
Q 1428 -91 1123 -41 
Q 819 9 494 109 
L 494 744 
Q 775 591 1075 516 
Q 1375 441 1709 441 
Q 2250 441 2565 725 
Q 2881 1009 2881 1497 
Q 2881 1984 2565 2268 
Q 2250 2553 1709 2553 
Q 1456 2553 1204 2497 
Q 953 2441 691 2322 
L 691 4666 
z
" transform="scale(0.015625)"/>
       </defs>
       <use xlink:href="#DejaVuSans-35"/>
      </g>
     </g>
    </g>
    <g id="xtick_3">
     <g id="line2d_3">
      <g>
       <use xlink:href="#m8b03f3ee61" x="338.809986" y="242.44" style="stroke: #000000; stroke-width: 0.8"/>
      </g>
     </g>
     <g id="text_3">
      <!-- 10 -->
      <g transform="translate(332.447486 257.038437) scale(0.1 -0.1)">
       <defs>
        <path id="DejaVuSans-31" d="M 794 531 
L 1825 531 
L 1825 4091 
L 703 3866 
L 703 4441 
L 1819 4666 
L 2450 4666 
L 2450 531 
L 3481 531 
L 3481 0 
L 794 0 
L 794 531 
z
" transform="scale(0.015625)"/>
       </defs>
       <use xlink:href="#DejaVuSans-31"/>
       <use xlink:href="#DejaVuSans-30" x="63.623047"/>
      </g>
     </g>
    </g>
    <g id="xtick_4">
     <g id="line2d_4">
      <g>
       <use xlink:href="#m8b03f3ee61" x="421.62201" y="242.44" style="stroke: #000000; stroke-width: 0.8"/>
      </g>
     </g>
     <g id="text_4">
      <!-- 15 -->
      <g transform="translate(415.25951 257.038437) scale(0.1 -0.1)">
       <use xlink:href="#DejaVuSans-31"/>
       <use xlink:href="#DejaVuSans-35" x="63.623047"/>
      </g>
     </g>
    </g>
    <g id="xtick_5">
     <g id="line2d_5">
      <g>
       <use xlink:href="#m8b03f3ee61" x="504.434034" y="242.44" style="stroke: #000000; stroke-width: 0.8"/>
      </g>
     </g>
     <g id="text_5">
      <!-- 20 -->
      <g transform="translate(498.071534 257.038437) scale(0.1 -0.1)">
       <defs>
        <path id="DejaVuSans-32" d="M 1228 531 
L 3431 531 
L 3431 0 
L 469 0 
L 469 531 
Q 828 903 1448 1529 
Q 2069 2156 2228 2338 
Q 2531 2678 2651 2914 
Q 2772 3150 2772 3378 
Q 2772 3750 2511 3984 
Q 2250 4219 1831 4219 
Q 1534 4219 1204 4116 
Q 875 4013 500 3803 
L 500 4441 
Q 881 4594 1212 4672 
Q 1544 4750 1819 4750 
Q 2544 4750 2975 4387 
Q 3406 4025 3406 3419 
Q 3406 3131 3298 2873 
Q 3191 2616 2906 2266 
Q 2828 2175 2409 1742 
Q 1991 1309 1228 531 
z
" transform="scale(0.015625)"/>
       </defs>
       <use xlink:href="#DejaVuSans-32"/>
       <use xlink:href="#DejaVuSans-30" x="63.623047"/>
      </g>
     </g>
    </g>
    <g id="text_6">
     <!-- seconds -->
     <g transform="translate(346.798437 270.716562) scale(0.1 -0.1)">
      <defs>
       <path id="DejaVuSans-73" d="M 2834 3397 
L 2834 2853 
Q 2591 2978 2328 3040 
Q 2066 3103 1784 3103 
Q 1356 3103 1142 2972 
Q 928 2841 928 2578 
Q 928 2378 1081 2264 
Q 1234 2150 1697 2047 
L 1894 2003 
Q 2506 1872 2764 1633 
Q 3022 1394 3022 966 
Q 3022 478 2636 193 
Q 2250 -91 1575 -91 
Q 1294 -91 989 -36 
Q 684 19 347 128 
L 347 722 
Q 666 556 975 473 
Q 1284 391 1588 391 
Q 1994 391 2212 530 
Q 2431 669 2431 922 
Q 2431 1156 2273 1281 
Q 2116 1406 1581 1522 
L 1381 1569 
Q 847 1681 609 1914 
Q 372 2147 372 2553 
Q 372 3047 722 3315 
Q 1072 3584 1716 3584 
Q 2034 3584 2315 3537 
Q 2597 3491 2834 3397 
z
" transform="scale(0.015625)"/>
       <path id="DejaVuSans-65" d="M 3597 1894 
L 3597 1613 
L 953 1613 
Q 991 1019 1311 708 
Q 1631 397 2203 397 
Q 2534 397 2845 478 
Q 3156 559 3463 722 
L 3463 178 
Q 3153 47 2828 -22 
Q 2503 -91 2169 -91 
Q 1331 -91 842 396 
Q 353 884 353 1716 
Q 353 2575 817 3079 
Q 1281 3584 2069 3584 
Q 2775 3584 3186 3129 
Q 3597 2675 3597 1894 
z
M 3022 2063 
Q 3016 2534 2758 2815 
Q 2500 3097 2075 3097 
Q 1594 3097 1305 2825 
Q 1016 2553 972 2059 
L 3022 2063 
z
" transform="scale(0.015625)"/>
       <path id="DejaVuSans-63" d="M 3122 3366 
L 3122 2828 
Q 2878 2963 2633 3030 
Q 2388 3097 2138 3097 
Q 1578 3097 1268 2742 
Q 959 2388 959 1747 
Q 959 1106 1268 751 
Q 1578 397 2138 397 
Q 2388 397 2633 464 
Q 2878 531 3122 666 
L 3122 134 
Q 2881 22 2623 -34 
Q 2366 -91 2075 -91 
Q 1284 -91 818 406 
Q 353 903 353 1747 
Q 353 2603 823 3093 
Q 1294 3584 2113 3584 
Q 2378 3584 2631 3529 
Q 2884 3475 3122 3366 
z
" transform="scale(0.015625)"/>
       <path id="DejaVuSans-6f" d="M 1959 3097 
Q 1497 3097 1228 2736 
Q 959 2375 959 1747 
Q 959 1119 1226 758 
Q 1494 397 1959 397 
Q 2419 397 2687 759 
Q 2956 1122 2956 1747 
Q 2956 2369 2687 2733 
Q 2419 3097 1959 3097 
z
M 1959 3584 
Q 2709 3584 3137 3096 
Q 3566 2609 3566 1747 
Q 3566 888 3137 398 
Q 2709 -91 1959 -91 
Q 1206 -91 779 398 
Q 353 888 353 1747 
Q 353 2609 779 3096 
Q 1206 3584 1959 3584 
z
" transform="scale(0.015625)"/>
       <path id="DejaVuSans-6e" d="M 3513 2113 
L 3513 0 
L 2938 0 
L 2938 2094 
Q 2938 2591 2744 2837 
Q 2550 3084 2163 3084 
Q 1697 3084 1428 2787 
Q 1159 2491 1159 1978 
L 1159 0 
L 581 0 
L 581 3500 
L 1159 3500 
L 1159 2956 
Q 1366 3272 1645 3428 
Q 1925 3584 2291 3584 
Q 2894 3584 3203 3211 
Q 3513 2838 3513 2113 
z
" transform="scale(0.015625)"/>
       <path id="DejaVuSans-64" d="M 2906 2969 
L 2906 4863 
L 3481 4863 
L 3481 0 
L 2906 0 
L 2906 525 
Q 2725 213 2448 61 
Q 2172 -91 1784 -91 
Q 1150 -91 751 415 
Q 353 922 353 1747 
Q 353 2572 751 3078 
Q 1150 3584 1784 3584 
Q 2172 3584 2448 3432 
Q 2725 3281 2906 2969 
z
M 947 1747 
Q 947 1113 1208 752 
Q 1469 391 1925 391 
Q 2381 391 2643 752 
Q 2906 1113 2906 1747 
Q 2906 2381 2643 2742 
Q 2381 3103 1925 3103 
Q 1469 3103 1208 2742 
Q 947 2381 947 1747 
z
" transform="scale(0.015625)"/>
      </defs>
      <use xlink:href="#DejaVuSans-73"/>
      <use xlink:href="#DejaVuSans-65" x="52.099609"/>
      <use xlink:href="#DejaVuSans-63" x="113.623047"/>
      <use xlink:href="#DejaVuSans-6f" x="168.603516"/>
      <use xlink:href="#DejaVuSans-6e" x="229.785156"/>
      <use xlink:href="#DejaVuSans-64" x="293.164062"/>
      <use xlink:href="#DejaVuSans-73" x="356.640625"/>
     </g>
    </g>
   </g>
   <g id="matplotlib.axis_2">
    <g id="ytick_1">
     <g id="line2d_6">
      <defs>
       <path id="m8a1ad5e6fc" d="M 0 0 
L -3.5 0 
" style="stroke: #000000; stroke-width: 0.8"/>
      </defs>
      <g>
       <use xlink:href="#m8a1ad5e6fc" x="173.185937" y="221.399472" style="stroke: #000000; stroke-width: 0.8"/>
      </g>
     </g>
     <g id="text_7">
      <!-- BGB (frameskip) -->
      <g transform="translate(84.129687 225.198691) scale(0.1 -0.1)">
       <defs>
        <path id="DejaVuSans-42" d="M 1259 2228 
L 1259 519 
L 2272 519 
Q 2781 519 3026 730 
Q 3272 941 3272 1375 
Q 3272 1813 3026 2020 
Q 2781 2228 2272 2228 
L 1259 2228 
z
M 1259 4147 
L 1259 2741 
L 2194 2741 
Q 2656 2741 2882 2914 
Q 3109 3088 3109 3444 
Q 3109 3797 2882 3972 
Q 2656 4147 2194 4147 
L 1259 4147 
z
M 628 4666 
L 2241 4666 
Q 2963 4666 3353 4366 
Q 3744 4066 3744 3513 
Q 3744 3084 3544 2831 
Q 3344 2578 2956 2516 
Q 3422 2416 3680 2098 
Q 3938 1781 3938 1306 
Q 3938 681 3513 340 
Q 3088 0 2303 0 
L 628 0 
L 628 4666 
z
" transform="scale(0.015625)"/>
        <path id="DejaVuSans-47" d="M 3809 666 
L 3809 1919 
L 2778 1919 
L 2778 2438 
L 4434 2438 
L 4434 434 
Q 4069 175 3628 42 
Q 3188 -91 2688 -91 
Q 1594 -91 976 548 
Q 359 1188 359 2328 
Q 359 3472 976 4111 
Q 1594 4750 2688 4750 
Q 3144 4750 3555 4637 
Q 3966 4525 4313 4306 
L 4313 3634 
Q 3963 3931 3569 4081 
Q 3175 4231 2741 4231 
Q 1884 4231 1454 3753 
Q 1025 3275 1025 2328 
Q 1025 1384 1454 906 
Q 1884 428 2741 428 
Q 3075 428 3337 486 
Q 3600 544 3809 666 
z
" transform="scale(0.015625)"/>
        <path id="DejaVuSans-20" transform="scale(0.015625)"/>
        <path id="DejaVuSans-28" d="M 1984 4856 
Q 1566 4138 1362 3434 
Q 1159 2731 1159 2009 
Q 1159 1288 1364 580 
Q 1569 -128 1984 -844 
L 1484 -844 
Q 1016 -109 783 600 
Q 550 1309 550 2009 
Q 550 2706 781 3412 
Q 1013 4119 1484 4856 
L 1984 4856 
z
" transform="scale(0.015625)"/>
        <path id="DejaVuSans-66" d="M 2375 4863 
L 2375 4384 
L 1825 4384 
Q 1516 4384 1395 4259 
Q 1275 4134 1275 3809 
L 1275 3500 
L 2222 3500 
L 2222 3053 
L 1275 3053 
L 1275 0 
L 697 0 
L 697 3053 
L 147 3053 
L 147 3500 
L 697 3500 
L 697 3744 
Q 697 4328 969 4595 
Q 1241 4863 1831 4863 
L 2375 4863 
z
" transform="scale(0.015625)"/>
        <path id="DejaVuSans-72" d="M 2631 2963 
Q 2534 3019 2420 3045 
Q 2306 3072 2169 3072 
Q 1681 3072 1420 2755 
Q 1159 2438 1159 1844 
L 1159 0 
L 581 0 
L 581 3500 
L 1159 3500 
L 1159 2956 
Q 1341 3275 1631 3429 
Q 1922 3584 2338 3584 
Q 2397 3584 2469 3576 
Q 2541 3569 2628 3553 
L 2631 2963 
z
" transform="scale(0.015625)"/>
        <path id="DejaVuSans-61" d="M 2194 1759 
Q 1497 1759 1228 1600 
Q 959 1441 959 1056 
Q 959 750 1161 570 
Q 1363 391 1709 391 
Q 2188 391 2477 730 
Q 2766 1069 2766 1631 
L 2766 1759 
L 2194 1759 
z
M 3341 1997 
L 3341 0 
L 2766 0 
L 2766 531 
Q 2569 213 2275 61 
Q 1981 -91 1556 -91 
Q 1019 -91 701 211 
Q 384 513 384 1019 
Q 384 1609 779 1909 
Q 1175 2209 1959 2209 
L 2766 2209 
L 2766 2266 
Q 2766 2663 2505 2880 
Q 2244 3097 1772 3097 
Q 1472 3097 1187 3025 
Q 903 2953 641 2809 
L 641 3341 
Q 956 3463 1253 3523 
Q 1550 3584 1831 3584 
Q 2591 3584 2966 3190 
Q 3341 2797 3341 1997 
z
" transform="scale(0.015625)"/>
        <path id="DejaVuSans-6d" d="M 3328 2828 
Q 3544 3216 3844 3400 
Q 4144 3584 4550 3584 
Q 5097 3584 5394 3201 
Q 5691 2819 5691 2113 
L 5691 0 
L 5113 0 
L 5113 2094 
Q 5113 2597 4934 2840 
Q 4756 3084 4391 3084 
Q 3944 3084 3684 2787 
Q 3425 2491 3425 1978 
L 3425 0 
L 2847 0 
L 2847 2094 
Q 2847 2600 2669 2842 
Q 2491 3084 2119 3084 
Q 1678 3084 1418 2786 
Q 1159 2488 1159 1978 
L 1159 0 
L 581 0 
L 581 3500 
L 1159 3500 
L 1159 2956 
Q 1356 3278 1631 3431 
Q 1906 3584 2284 3584 
Q 2666 3584 2933 3390 
Q 3200 3197 3328 2828 
z
" transform="scale(0.015625)"/>
        <path id="DejaVuSans-6b" d="M 581 4863 
L 1159 4863 
L 1159 1991 
L 2875 3500 
L 3609 3500 
L 1753 1863 
L 3688 0 
L 2938 0 
L 1159 1709 
L 1159 0 
L 581 0 
L 581 4863 
z
" transform="scale(0.015625)"/>
        <path id="DejaVuSans-69" d="M 603 3500 
L 1178 3500 
L 1178 0 
L 603 0 
L 603 3500 
z
M 603 4863 
L 1178 4863 
L 1178 4134 
L 603 4134 
L 603 4863 
z
" transform="scale(0.015625)"/>
        <path id="DejaVuSans-70" d="M 1159 525 
L 1159 -1331 
L 581 -1331 
L 581 3500 
L 1159 3500 
L 1159 2969 
Q 1341 3281 1617 3432 
Q 1894 3584 2278 3584 
Q 2916 3584 3314 3078 
Q 3713 2572 3713 1747 
Q 3713 922 3314 415 
Q 2916 -91 2278 -91 
Q 1894 -91 1617 61 
Q 1341 213 1159 525 
z
M 3116 1747 
Q 3116 2381 2855 2742 
Q 2594 3103 2138 3103 
Q 1681 3103 1420 2742 
Q 1159 2381 1159 1747 
Q 1159 1113 1420 752 
Q 1681 391 2138 391 
Q 2594 391 2855 752 
Q 3116 1113 3116 1747 
z
" transform="scale(0.015625)"/>
        <path id="DejaVuSans-29" d="M 513 4856 
L 1013 4856 
Q 1481 4119 1714 3412 
Q 1947 2706 1947 2009 
Q 1947 1309 1714 600 
Q 1481 -109 1013 -844 
L 513 -844 
Q 928 -128 1133 580 
Q 1338 1288 1338 2009 
Q 1338 2731 1133 3434 
Q 928 4138 513 4856 
z
" transform="scale(0.015625)"/>
       </defs>
       <use xlink:href="#DejaVuSans-42"/>
       <use xlink:href="#DejaVuSans-47" x="66.853516"/>
       <use xlink:href="#DejaVuSans-42" x="144.34375"/>
       <use xlink:href="#DejaVuSans-20" x="212.947266"/>
       <use xlink:href="#DejaVuSans-28" x="244.734375"/>
       <use xlink:href="#DejaVuSans-66" x="283.748047"/>
       <use xlink:href="#DejaVuSans-72" x="318.953125"/>
       <use xlink:href="#DejaVuSans-61" x="360.066406"/>
       <use xlink:href="#DejaVuSans-6d" x="421.345703"/>
       <use xlink:href="#DejaVuSans-65" x="518.757812"/>
       <use xlink:href="#DejaVuSans-73" x="580.28125"/>
       <use xlink:href="#DejaVuSans-6b" x="632.380859"/>
       <use xlink:href="#DejaVuSans-69" x="690.291016"/>
       <use xlink:href="#DejaVuSans-70" x="718.074219"/>
       <use xlink:href="#DejaVuSans-29" x="781.550781"/>
      </g>
     </g>
    </g>
    <g id="ytick_2">
     <g id="line2d_7">
      <g>
       <use xlink:href="#m8a1ad5e6fc" x="173.185937" y="193.805337" style="stroke: #000000; stroke-width: 0.8"/>
      </g>
     </g>
     <g id="text_8">
      <!-- GambatteSpeedrun (frameskip) -->
      <g transform="translate(7.2 197.604556) scale(0.1 -0.1)">
       <defs>
        <path id="DejaVuSans-62" d="M 3116 1747 
Q 3116 2381 2855 2742 
Q 2594 3103 2138 3103 
Q 1681 3103 1420 2742 
Q 1159 2381 1159 1747 
Q 1159 1113 1420 752 
Q 1681 391 2138 391 
Q 2594 391 2855 752 
Q 3116 1113 3116 1747 
z
M 1159 2969 
Q 1341 3281 1617 3432 
Q 1894 3584 2278 3584 
Q 2916 3584 3314 3078 
Q 3713 2572 3713 1747 
Q 3713 922 3314 415 
Q 2916 -91 2278 -91 
Q 1894 -91 1617 61 
Q 1341 213 1159 525 
L 1159 0 
L 581 0 
L 581 4863 
L 1159 4863 
L 1159 2969 
z
" transform="scale(0.015625)"/>
        <path id="DejaVuSans-74" d="M 1172 4494 
L 1172 3500 
L 2356 3500 
L 2356 3053 
L 1172 3053 
L 1172 1153 
Q 1172 725 1289 603 
Q 1406 481 1766 481 
L 2356 481 
L 2356 0 
L 1766 0 
Q 1100 0 847 248 
Q 594 497 594 1153 
L 594 3053 
L 172 3053 
L 172 3500 
L 594 3500 
L 594 4494 
L 1172 4494 
z
" transform="scale(0.015625)"/>
        <path id="DejaVuSans-53" d="M 3425 4513 
L 3425 3897 
Q 3066 4069 2747 4153 
Q 2428 4238 2131 4238 
Q 1616 4238 1336 4038 
Q 1056 3838 1056 3469 
Q 1056 3159 1242 3001 
Q 1428 2844 1947 2747 
L 2328 2669 
Q 3034 2534 3370 2195 
Q 3706 1856 3706 1288 
Q 3706 609 3251 259 
Q 2797 -91 1919 -91 
Q 1588 -91 1214 -16 
Q 841 59 441 206 
L 441 856 
Q 825 641 1194 531 
Q 1563 422 1919 422 
Q 2459 422 2753 634 
Q 3047 847 3047 1241 
Q 3047 1584 2836 1778 
Q 2625 1972 2144 2069 
L 1759 2144 
Q 1053 2284 737 2584 
Q 422 2884 422 3419 
Q 422 4038 858 4394 
Q 1294 4750 2059 4750 
Q 2388 4750 2728 4690 
Q 3069 4631 3425 4513 
z
" transform="scale(0.015625)"/>
        <path id="DejaVuSans-75" d="M 544 1381 
L 544 3500 
L 1119 3500 
L 1119 1403 
Q 1119 906 1312 657 
Q 1506 409 1894 409 
Q 2359 409 2629 706 
Q 2900 1003 2900 1516 
L 2900 3500 
L 3475 3500 
L 3475 0 
L 2900 0 
L 2900 538 
Q 2691 219 2414 64 
Q 2138 -91 1772 -91 
Q 1169 -91 856 284 
Q 544 659 544 1381 
z
M 1991 3584 
L 1991 3584 
z
" transform="scale(0.015625)"/>
       </defs>
       <use xlink:href="#DejaVuSans-47"/>
       <use xlink:href="#DejaVuSans-61" x="77.490234"/>
       <use xlink:href="#DejaVuSans-6d" x="138.769531"/>
       <use xlink:href="#DejaVuSans-62" x="236.181641"/>
       <use xlink:href="#DejaVuSans-61" x="299.658203"/>
       <use xlink:href="#DejaVuSans-74" x="360.9375"/>
       <use xlink:href="#DejaVuSans-74" x="400.146484"/>
       <use xlink:href="#DejaVuSans-65" x="439.355469"/>
       <use xlink:href="#DejaVuSans-53" x="500.878906"/>
       <use xlink:href="#DejaVuSans-70" x="564.355469"/>
       <use xlink:href="#DejaVuSans-65" x="627.832031"/>
       <use xlink:href="#DejaVuSans-65" x="689.355469"/>
       <use xlink:href="#DejaVuSans-64" x="750.878906"/>
       <use xlink:href="#DejaVuSans-72" x="814.355469"/>
       <use xlink:href="#DejaVuSans-75" x="855.46875"/>
       <use xlink:href="#DejaVuSans-6e" x="918.847656"/>
       <use xlink:href="#DejaVuSans-20" x="982.226562"/>
       <use xlink:href="#DejaVuSans-28" x="1014.013672"/>
       <use xlink:href="#DejaVuSans-66" x="1053.027344"/>
       <use xlink:href="#DejaVuSans-72" x="1088.232422"/>
       <use xlink:href="#DejaVuSans-61" x="1129.345703"/>
       <use xlink:href="#DejaVuSans-6d" x="1190.625"/>
       <use xlink:href="#DejaVuSans-65" x="1288.037109"/>
       <use xlink:href="#DejaVuSans-73" x="1349.560547"/>
       <use xlink:href="#DejaVuSans-6b" x="1401.660156"/>
       <use xlink:href="#DejaVuSans-69" x="1459.570312"/>
       <use xlink:href="#DejaVuSans-70" x="1487.353516"/>
       <use xlink:href="#DejaVuSans-29" x="1550.830078"/>
      </g>
     </g>
    </g>
    <g id="ytick_3">
     <g id="line2d_8">
      <g>
       <use xlink:href="#m8a1ad5e6fc" x="173.185937" y="166.211202" style="stroke: #000000; stroke-width: 0.8"/>
      </g>
     </g>
     <g id="text_9">
      <!-- Gameroy JIT -->
      <g transform="translate(105.30625 170.010421) scale(0.1 -0.1)">
       <defs>
        <path id="DejaVuSans-79" d="M 2059 -325 
Q 1816 -950 1584 -1140 
Q 1353 -1331 966 -1331 
L 506 -1331 
L 506 -850 
L 844 -850 
Q 1081 -850 1212 -737 
Q 1344 -625 1503 -206 
L 1606 56 
L 191 3500 
L 800 3500 
L 1894 763 
L 2988 3500 
L 3597 3500 
L 2059 -325 
z
" transform="scale(0.015625)"/>
        <path id="DejaVuSans-4a" d="M 628 4666 
L 1259 4666 
L 1259 325 
Q 1259 -519 939 -900 
Q 619 -1281 -91 -1281 
L -331 -1281 
L -331 -750 
L -134 -750 
Q 284 -750 456 -515 
Q 628 -281 628 325 
L 628 4666 
z
" transform="scale(0.015625)"/>
        <path id="DejaVuSans-49" d="M 628 4666 
L 1259 4666 
L 1259 0 
L 628 0 
L 628 4666 
z
" transform="scale(0.015625)"/>
        <path id="DejaVuSans-54" d="M -19 4666 
L 3928 4666 
L 3928 4134 
L 2272 4134 
L 2272 0 
L 1638 0 
L 1638 4134 
L -19 4134 
L -19 4666 
z
" transform="scale(0.015625)"/>
       </defs>
       <use xlink:href="#DejaVuSans-47"/>
       <use xlink:href="#DejaVuSans-61" x="77.490234"/>
       <use xlink:href="#DejaVuSans-6d" x="138.769531"/>
       <use xlink:href="#DejaVuSans-65" x="236.181641"/>
       <use xlink:href="#DejaVuSans-72" x="297.705078"/>
       <use xlink:href="#DejaVuSans-6f" x="336.568359"/>
       <use xlink:href="#DejaVuSans-79" x="397.75"/>
       <use xlink:href="#DejaVuSans-20" x="456.929688"/>
       <use xlink:href="#DejaVuSans-4a" x="488.716797"/>
       <use xlink:href="#DejaVuSans-49" x="518.208984"/>
       <use xlink:href="#DejaVuSans-54" x="547.701172"/>
      </g>
     </g>
    </g>
    <g id="ytick_4">
     <g id="line2d_9">
      <g>
       <use xlink:href="#m8a1ad5e6fc" x="173.185937" y="138.617067" style="stroke: #000000; stroke-width: 0.8"/>
      </g>
     </g>
     <g id="text_10">
      <!-- Gameroy Inter -->
      <g transform="translate(93.842187 142.416286) scale(0.1 -0.1)">
       <use xlink:href="#DejaVuSans-47"/>
       <use xlink:href="#DejaVuSans-61" x="77.490234"/>
       <use xlink:href="#DejaVuSans-6d" x="138.769531"/>
       <use xlink:href="#DejaVuSans-65" x="236.181641"/>
       <use xlink:href="#DejaVuSans-72" x="297.705078"/>
       <use xlink:href="#DejaVuSans-6f" x="336.568359"/>
       <use xlink:href="#DejaVuSans-79" x="397.75"/>
       <use xlink:href="#DejaVuSans-20" x="456.929688"/>
       <use xlink:href="#DejaVuSans-49" x="488.716797"/>
       <use xlink:href="#DejaVuSans-6e" x="518.208984"/>
       <use xlink:href="#DejaVuSans-74" x="581.587891"/>
       <use xlink:href="#DejaVuSans-65" x="620.796875"/>
       <use xlink:href="#DejaVuSans-72" x="682.320312"/>
      </g>
     </g>
    </g>
    <g id="ytick_5">
     <g id="line2d_10">
      <g>
       <use xlink:href="#m8a1ad5e6fc" x="173.185937" y="111.022933" style="stroke: #000000; stroke-width: 0.8"/>
      </g>
     </g>
     <g id="text_11">
      <!-- Emulicious -->
      <g transform="translate(112.290625 114.822151) scale(0.1 -0.1)">
       <defs>
        <path id="DejaVuSans-45" d="M 628 4666 
L 3578 4666 
L 3578 4134 
L 1259 4134 
L 1259 2753 
L 3481 2753 
L 3481 2222 
L 1259 2222 
L 1259 531 
L 3634 531 
L 3634 0 
L 628 0 
L 628 4666 
z
" transform="scale(0.015625)"/>
        <path id="DejaVuSans-6c" d="M 603 4863 
L 1178 4863 
L 1178 0 
L 603 0 
L 603 4863 
z
" transform="scale(0.015625)"/>
       </defs>
       <use xlink:href="#DejaVuSans-45"/>
       <use xlink:href="#DejaVuSans-6d" x="63.183594"/>
       <use xlink:href="#DejaVuSans-75" x="160.595703"/>
       <use xlink:href="#DejaVuSans-6c" x="223.974609"/>
       <use xlink:href="#DejaVuSans-69" x="251.757812"/>
       <use xlink:href="#DejaVuSans-63" x="279.541016"/>
       <use xlink:href="#DejaVuSans-69" x="334.521484"/>
       <use xlink:href="#DejaVuSans-6f" x="362.304688"/>
       <use xlink:href="#DejaVuSans-75" x="423.486328"/>
       <use xlink:href="#DejaVuSans-73" x="486.865234"/>
      </g>
     </g>
    </g>
    <g id="ytick_6">
     <g id="line2d_11">
      <g>
       <use xlink:href="#m8a1ad5e6fc" x="173.185937" y="83.428798" style="stroke: #000000; stroke-width: 0.8"/>
      </g>
     </g>
     <g id="text_12">
      <!-- BGB -->
      <g transform="translate(144.890625 87.228016) scale(0.1 -0.1)">
       <use xlink:href="#DejaVuSans-42"/>
       <use xlink:href="#DejaVuSans-47" x="66.853516"/>
       <use xlink:href="#DejaVuSans-42" x="144.34375"/>
      </g>
     </g>
    </g>
    <g id="ytick_7">
     <g id="line2d_12">
      <g>
       <use xlink:href="#m8a1ad5e6fc" x="173.185937" y="55.834663" style="stroke: #000000; stroke-width: 0.8"/>
      </g>
     </g>
     <g id="text_13">
      <!-- Beaten Dying Moon -->
      <g transform="translate(67.990625 59.633882) scale(0.1 -0.1)">
       <defs>
        <path id="DejaVuSans-44" d="M 1259 4147 
L 1259 519 
L 2022 519 
Q 2988 519 3436 956 
Q 3884 1394 3884 2338 
Q 3884 3275 3436 3711 
Q 2988 4147 2022 4147 
L 1259 4147 
z
M 628 4666 
L 1925 4666 
Q 3281 4666 3915 4102 
Q 4550 3538 4550 2338 
Q 4550 1131 3912 565 
Q 3275 0 1925 0 
L 628 0 
L 628 4666 
z
" transform="scale(0.015625)"/>
        <path id="DejaVuSans-67" d="M 2906 1791 
Q 2906 2416 2648 2759 
Q 2391 3103 1925 3103 
Q 1463 3103 1205 2759 
Q 947 2416 947 1791 
Q 947 1169 1205 825 
Q 1463 481 1925 481 
Q 2391 481 2648 825 
Q 2906 1169 2906 1791 
z
M 3481 434 
Q 3481 -459 3084 -895 
Q 2688 -1331 1869 -1331 
Q 1566 -1331 1297 -1286 
Q 1028 -1241 775 -1147 
L 775 -588 
Q 1028 -725 1275 -790 
Q 1522 -856 1778 -856 
Q 2344 -856 2625 -561 
Q 2906 -266 2906 331 
L 2906 616 
Q 2728 306 2450 153 
Q 2172 0 1784 0 
Q 1141 0 747 490 
Q 353 981 353 1791 
Q 353 2603 747 3093 
Q 1141 3584 1784 3584 
Q 2172 3584 2450 3431 
Q 2728 3278 2906 2969 
L 2906 3500 
L 3481 3500 
L 3481 434 
z
" transform="scale(0.015625)"/>
        <path id="DejaVuSans-4d" d="M 628 4666 
L 1569 4666 
L 2759 1491 
L 3956 4666 
L 4897 4666 
L 4897 0 
L 4281 0 
L 4281 4097 
L 3078 897 
L 2444 897 
L 1241 4097 
L 1241 0 
L 628 0 
L 628 4666 
z
" transform="scale(0.015625)"/>
       </defs>
       <use xlink:href="#DejaVuSans-42"/>
       <use xlink:href="#DejaVuSans-65" x="68.603516"/>
       <use xlink:href="#DejaVuSans-61" x="130.126953"/>
       <use xlink:href="#DejaVuSans-74" x="191.40625"/>
       <use xlink:href="#DejaVuSans-65" x="230.615234"/>
       <use xlink:href="#DejaVuSans-6e" x="292.138672"/>
       <use xlink:href="#DejaVuSans-20" x="355.517578"/>
       <use xlink:href="#DejaVuSans-44" x="387.304688"/>
       <use xlink:href="#DejaVuSans-79" x="464.306641"/>
       <use xlink:href="#DejaVuSans-69" x="523.486328"/>
       <use xlink:href="#DejaVuSans-6e" x="551.269531"/>
       <use xlink:href="#DejaVuSans-67" x="614.648438"/>
       <use xlink:href="#DejaVuSans-20" x="678.125"/>
       <use xlink:href="#DejaVuSans-4d" x="709.912109"/>
       <use xlink:href="#DejaVuSans-6f" x="796.191406"/>
       <use xlink:href="#DejaVuSans-6f" x="857.373047"/>
       <use xlink:href="#DejaVuSans-6e" x="918.554688"/>
      </g>
     </g>
    </g>
    <g id="ytick_8">
     <g id="line2d_13">
      <g>
       <use xlink:href="#m8a1ad5e6fc" x="173.185937" y="28.240528" style="stroke: #000000; stroke-width: 0.8"/>
      </g>
     </g>
     <g id="text_14">
      <!-- SameBoy -->
      <g transform="translate(118.917187 32.039747) scale(0.1 -0.1)">
       <use xlink:href="#DejaVuSans-53"/>
       <use xlink:href="#DejaVuSans-61" x="63.476562"/>
       <use xlink:href="#DejaVuSans-6d" x="124.755859"/>
       <use xlink:href="#DejaVuSans-65" x="222.167969"/>
       <use xlink:href="#DejaVuSans-42" x="283.691406"/>
       <use xlink:href="#DejaVuSans-6f" x="352.294922"/>
       <use xlink:href="#DejaVuSans-79" x="413.476562"/>
      </g>
     </g>
    </g>
   </g>
   <g id="patch_19">
    <path d="M 173.185937 242.44 
L 173.185937 7.2 
" style="fill: none; stroke: #000000; stroke-width: 0.8; stroke-linejoin: miter; stroke-linecap: square"/>
   </g>
   <g id="patch_20">
    <path d="M 561.285937 242.44 
L 561.285937 7.2 
" style="fill: none; stroke: #000000; stroke-width: 0.8; stroke-linejoin: miter; stroke-linecap: square"/>
   </g>
   <g id="patch_21">
    <path d="M 173.185937 242.44 
L 561.285937 242.44 
" style="fill: none; stroke: #000000; stroke-width: 0.8; stroke-linejoin: miter; stroke-linecap: square"/>
   </g>
   <g id="patch_22">
    <path d="M 173.185937 7.2 
L 561.285937 7.2 
" style="fill: none; stroke: #000000; stroke-width: 0.8; stroke-linejoin: miter; stroke-linecap: square"/>
   </g>
   <g id="legend_1">
    <g id="patch_23">
     <path d="M 419.51875 237.44 
L 554.285937 237.44 
Q 556.285937 237.44 556.285937 235.44 
L 556.285937 207.08375 
Q 556.285937 205.08375 554.285937 205.08375 
L 419.51875 205.08375 
Q 417.51875 205.08375 417.51875 207.08375 
L 417.51875 235.44 
Q 417.51875 237.44 419.51875 237.44 
z
" style="fill: #ffffff; opacity: 0.8; stroke: #cccccc; stroke-linejoin: miter"/>
    </g>
    <g id="patch_24">
     <path d="M 421.51875 216.682187 
L 441.51875 216.682187 
L 441.51875 209.682187 
L 421.51875 209.682187 
z
" style="fill: #1f77b4"/>
    </g>
    <g id="text_15">
     <!-- Tobu Tobu Girl -->
     <g transform="translate(449.51875 216.682187) scale(0.1 -0.1)">
      <use xlink:href="#DejaVuSans-54"/>
      <use xlink:href="#DejaVuSans-6f" x="44.083984"/>
      <use xlink:href="#DejaVuSans-62" x="105.265625"/>
      <use xlink:href="#DejaVuSans-75" x="168.742188"/>
      <use xlink:href="#DejaVuSans-20" x="232.121094"/>
      <use xlink:href="#DejaVuSans-54" x="263.908203"/>
      <use xlink:href="#DejaVuSans-6f" x="307.992188"/>
      <use xlink:href="#DejaVuSans-62" x="369.173828"/>
      <use xlink:href="#DejaVuSans-75" x="432.650391"/>
      <use xlink:href="#DejaVuSans-20" x="496.029297"/>
      <use xlink:href="#DejaVuSans-47" x="527.816406"/>
      <use xlink:href="#DejaVuSans-69" x="605.306641"/>
      <use xlink:href="#DejaVuSans-72" x="633.089844"/>
      <use xlink:href="#DejaVuSans-6c" x="674.203125"/>
     </g>
    </g>
    <g id="patch_25">
     <path d="M 421.51875 231.360312 
L 441.51875 231.360312 
L 441.51875 224.360312 
L 421.51875 224.360312 
z
" style="fill: #ff7f0e"/>
    </g>
    <g id="text_16">
     <!-- The Legend of Zelda -->
     <g transform="translate(449.51875 231.360312) scale(0.1 -0.1)">
      <defs>
       <path id="DejaVuSans-68" d="M 3513 2113 
L 3513 0 
L 2938 0 
L 2938 2094 
Q 2938 2591 2744 2837 
Q 2550 3084 2163 3084 
Q 1697 3084 1428 2787 
Q 1159 2491 1159 1978 
L 1159 0 
L 581 0 
L 581 4863 
L 1159 4863 
L 1159 2956 
Q 1366 3272 1645 3428 
Q 1925 3584 2291 3584 
Q 2894 3584 3203 3211 
Q 3513 2838 3513 2113 
z
" transform="scale(0.015625)"/>
       <path id="DejaVuSans-4c" d="M 628 4666 
L 1259 4666 
L 1259 531 
L 3531 531 
L 3531 0 
L 628 0 
L 628 4666 
z
" transform="scale(0.015625)"/>
       <path id="DejaVuSans-5a" d="M 359 4666 
L 4025 4666 
L 4025 4184 
L 1075 531 
L 4097 531 
L 4097 0 
L 288 0 
L 288 481 
L 3238 4134 
L 359 4134 
L 359 4666 
z
" transform="scale(0.015625)"/>
      </defs>
      <use xlink:href="#DejaVuSans-54"/>
      <use xlink:href="#DejaVuSans-68" x="61.083984"/>
      <use xlink:href="#DejaVuSans-65" x="124.462891"/>
      <use xlink:href="#DejaVuSans-20" x="185.986328"/>
      <use xlink:href="#DejaVuSans-4c" x="217.773438"/>
      <use xlink:href="#DejaVuSans-65" x="271.736328"/>
      <use xlink:href="#DejaVuSans-67" x="333.259766"/>
      <use xlink:href="#DejaVuSans-65" x="396.736328"/>
      <use xlink:href="#DejaVuSans-6e" x="458.259766"/>
      <use xlink:href="#DejaVuSans-64" x="521.638672"/>
      <use xlink:href="#DejaVuSans-20" x="585.115234"/>
      <use xlink:href="#DejaVuSans-6f" x="616.902344"/>
      <use xlink:href="#DejaVuSans-66" x="678.083984"/>
      <use xlink:href="#DejaVuSans-20" x="713.289062"/>
      <use xlink:href="#DejaVuSans-5a" x="745.076172"/>
      <use xlink:href="#DejaVuSans-65" x="813.582031"/>
      <use xlink:href="#DejaVuSans-6c" x="875.105469"/>
      <use xlink:href="#DejaVuSans-64" x="902.888672"/>
      <use xlink:href="#DejaVuSans-61" x="966.365234"/>
     </g>
    </g>
   </g>
  </g>
 </g>
 <defs>
  <clipPath id="p3cf292eb5f">
   <rect x="173.185937" y="7.2" width="388.1" height="235.24"/>
  </clipPath>
 </defs>
</svg>
