<?xml version="1.0" encoding="utf-8" standalone="no"?>
<!DOCTYPE svg PUBLIC "-//W3C//DTD SVG 1.1//EN"
  "http://www.w3.org/Graphics/SVG/1.1/DTD/svg11.dtd">
<svg xmlns:xlink="http://www.w3.org/1999/xlink" width="631.876165pt" height="301.414491pt" viewBox="0 0 631.876165 301.414491" xmlns="http://www.w3.org/2000/svg" version="1.1">
 <metadata>
  <rdf:RDF xmlns:dc="http://purl.org/dc/elements/1.1/" xmlns:cc="http://creativecommons.org/ns#" xmlns:rdf="http://www.w3.org/1999/02/22-rdf-syntax-ns#">
   <cc:Work>
    <dc:type rdf:resource="http://purl.org/dc/dcmitype/StillImage"/>
    <dc:date>2023-08-26T17:12:29.356432</dc:date>
    <dc:format>image/svg+xml</dc:format>
    <dc:creator>
     <cc:Agent>
      <dc:title>Matplotlib v3.7.2, https://matplotlib.org/</dc:title>
     </cc:Agent>
    </dc:creator>
   </cc:Work>
  </rdf:RDF>
 </metadata>
 <defs>
  <style type="text/css">*{stroke-linejoin: round; stroke-linecap: butt}</style>
 </defs>
 <g id="figure_1">
  <g id="patch_1">
   <path d="M 0 301.414491 
L 631.876165 301.414491 
L 631.876165 0 
L 0 0 
L 0 301.414491 
z
" style="fill: none"/>
  </g>
  <g id="axes_1">
   <g id="patch_2">
    <path d="M 286.832912 139.984804 
C 286.832912 139.427507 286.827963 138.870222 286.818066 138.313013 
C 286.808168 137.755805 286.793323 137.198695 286.773531 136.64175 
L 192.699569 139.984804 
z
" style="fill: #3f3fff"/>
   </g>
   <g id="patch_3">
    <path d="M 286.773531 136.64175 
C 286.320607 123.896432 283.282233 111.375094 277.843293 99.839661 
C 272.404354 88.304229 264.677453 77.993524 255.132774 69.534955 
L 192.699569 139.984804 
z
" style="fill: #7f7fff"/>
   </g>
   <g id="patch_4">
    <path d="M 255.132774 69.534955 
C 254.756838 69.201798 254.378241 68.871655 253.99702 68.544558 
C 253.615799 68.217461 253.231965 67.89342 252.845557 67.572468 
L 192.699569 139.984804 
z
" style="fill: #ff6f0f"/>
   </g>
   <g id="patch_5">
    <path d="M 252.845557 67.572468 
C 240.598724 57.400197 225.969138 50.499151 210.330449 47.517305 
C 194.69176 44.535459 178.549249 45.569155 163.41862 50.521335 
C 148.287991 55.473514 134.658112 64.184174 123.808762 75.835423 
C 112.959413 87.486673 105.241132 101.702065 101.378631 117.14684 
C 97.51613 132.591616 97.634205 148.766759 101.721768 164.153501 
C 105.809331 179.540243 113.734315 193.641443 124.752602 205.133065 
C 135.770888 216.624686 149.52648 225.135439 164.727791 229.866203 
C 179.929103 234.596967 196.084985 235.394894 211.678476 232.185061 
L 192.699569 139.984804 
z
" style="fill: #ffbf7f"/>
   </g>
   <g id="patch_6">
    <path d="M 211.678476 232.185061 
C 211.705776 232.179441 211.733074 232.173809 211.760369 232.168166 
C 211.787664 232.162522 211.814956 232.156866 211.842246 232.151198 
L 192.699569 139.984804 
z
" style="fill: #5faf5f"/>
   </g>
   <g id="patch_7">
    <path d="M 211.842246 232.151198 
C 230.80457 228.212781 248.097244 218.516738 261.34857 204.392885 
C 274.599895 190.269033 283.175041 172.394002 285.89792 153.219363 
L 192.699569 139.984804 
z
" style="fill: #3f9f3f"/>
   </g>
   <g id="patch_8">
    <path d="M 285.89792 153.219363 
C 286.169773 151.304967 286.382575 149.382649 286.536024 147.455145 
C 286.689473 145.527641 286.783496 143.595867 286.817959 141.662572 
L 192.699569 139.984804 
z
" style="fill: #0f8f0f"/>
   </g>
   <g id="patch_9">
    <path d="M 286.817959 141.662572 
C 286.822943 141.382974 286.826682 141.103355 286.829174 140.823724 
C 286.831666 140.544092 286.832912 140.264452 286.832912 139.984809 
L 192.699569 139.984804 
z
" style="fill: #bf7fff"/>
   </g>
   <g id="matplotlib.axis_1"/>
   <g id="matplotlib.axis_2"/>
   <g id="text_1">
    <!-- interpreter -->
    <g transform="translate(286.357666 98.584522) scale(0.1 -0.1)">
     <defs>
      <path id="DejaVuSans-69" d="M 603 3500 
L 1178 3500 
L 1178 0 
L 603 0 
L 603 3500 
z
M 603 4863 
L 1178 4863 
L 1178 4134 
L 603 4134 
L 603 4863 
z
" transform="scale(0.015625)"/>
      <path id="DejaVuSans-6e" d="M 3513 2113 
L 3513 0 
L 2938 0 
L 2938 2094 
Q 2938 2591 2744 2837 
Q 2550 3084 2163 3084 
Q 1697 3084 1428 2787 
Q 1159 2491 1159 1978 
L 1159 0 
L 581 0 
L 581 3500 
L 1159 3500 
L 1159 2956 
Q 1366 3272 1645 3428 
Q 1925 3584 2291 3584 
Q 2894 3584 3203 3211 
Q 3513 2838 3513 2113 
z
" transform="scale(0.015625)"/>
      <path id="DejaVuSans-74" d="M 1172 4494 
L 1172 3500 
L 2356 3500 
L 2356 3053 
L 1172 3053 
L 1172 1153 
Q 1172 725 1289 603 
Q 1406 481 1766 481 
L 2356 481 
L 2356 0 
L 1766 0 
Q 1100 0 847 248 
Q 594 497 594 1153 
L 594 3053 
L 172 3053 
L 172 3500 
L 594 3500 
L 594 4494 
L 1172 4494 
z
" transform="scale(0.015625)"/>
      <path id="DejaVuSans-65" d="M 3597 1894 
L 3597 1613 
L 953 1613 
Q 991 1019 1311 708 
Q 1631 397 2203 397 
Q 2534 397 2845 478 
Q 3156 559 3463 722 
L 3463 178 
Q 3153 47 2828 -22 
Q 2503 -91 2169 -91 
Q 1331 -91 842 396 
Q 353 884 353 1716 
Q 353 2575 817 3079 
Q 1281 3584 2069 3584 
Q 2775 3584 3186 3129 
Q 3597 2675 3597 1894 
z
M 3022 2063 
Q 3016 2534 2758 2815 
Q 2500 3097 2075 3097 
Q 1594 3097 1305 2825 
Q 1016 2553 972 2059 
L 3022 2063 
z
" transform="scale(0.015625)"/>
      <path id="DejaVuSans-72" d="M 2631 2963 
Q 2534 3019 2420 3045 
Q 2306 3072 2169 3072 
Q 1681 3072 1420 2755 
Q 1159 2438 1159 1844 
L 1159 0 
L 581 0 
L 581 3500 
L 1159 3500 
L 1159 2956 
Q 1341 3275 1631 3429 
Q 1922 3584 2338 3584 
Q 2397 3584 2469 3576 
Q 2541 3569 2628 3553 
L 2631 2963 
z
" transform="scale(0.015625)"/>
      <path id="DejaVuSans-70" d="M 1159 525 
L 1159 -1331 
L 581 -1331 
L 581 3500 
L 1159 3500 
L 1159 2969 
Q 1341 3281 1617 3432 
Q 1894 3584 2278 3584 
Q 2916 3584 3314 3078 
Q 3713 2572 3713 1747 
Q 3713 922 3314 415 
Q 2916 -91 2278 -91 
Q 1894 -91 1617 61 
Q 1341 213 1159 525 
z
M 3116 1747 
Q 3116 2381 2855 2742 
Q 2594 3103 2138 3103 
Q 1681 3103 1420 2742 
Q 1159 2381 1159 1747 
Q 1159 1113 1420 752 
Q 1681 391 2138 391 
Q 2594 391 2855 752 
Q 3116 1113 3116 1747 
z
" transform="scale(0.015625)"/>
     </defs>
     <use xlink:href="#DejaVuSans-69"/>
     <use xlink:href="#DejaVuSans-6e" x="27.783203"/>
     <use xlink:href="#DejaVuSans-74" x="91.162109"/>
     <use xlink:href="#DejaVuSans-65" x="130.371094"/>
     <use xlink:href="#DejaVuSans-72" x="191.894531"/>
     <use xlink:href="#DejaVuSans-70" x="233.007812"/>
     <use xlink:href="#DejaVuSans-72" x="296.484375"/>
     <use xlink:href="#DejaVuSans-65" x="335.347656"/>
     <use xlink:href="#DejaVuSans-74" x="396.871094"/>
     <use xlink:href="#DejaVuSans-65" x="436.080078"/>
     <use xlink:href="#DejaVuSans-72" x="497.603516"/>
    </g>
   </g>
   <g id="text_2">
    <!-- 12.9% -->
    <g transform="translate(227.90221 118.657093) scale(0.1 -0.1)">
     <defs>
      <path id="DejaVuSans-31" d="M 794 531 
L 1825 531 
L 1825 4091 
L 703 3866 
L 703 4441 
L 1819 4666 
L 2450 4666 
L 2450 531 
L 3481 531 
L 3481 0 
L 794 0 
L 794 531 
z
" transform="scale(0.015625)"/>
      <path id="DejaVuSans-32" d="M 1228 531 
L 3431 531 
L 3431 0 
L 469 0 
L 469 531 
Q 828 903 1448 1529 
Q 2069 2156 2228 2338 
Q 2531 2678 2651 2914 
Q 2772 3150 2772 3378 
Q 2772 3750 2511 3984 
Q 2250 4219 1831 4219 
Q 1534 4219 1204 4116 
Q 875 4013 500 3803 
L 500 4441 
Q 881 4594 1212 4672 
Q 1544 4750 1819 4750 
Q 2544 4750 2975 4387 
Q 3406 4025 3406 3419 
Q 3406 3131 3298 2873 
Q 3191 2616 2906 2266 
Q 2828 2175 2409 1742 
Q 1991 1309 1228 531 
z
" transform="scale(0.015625)"/>
      <path id="DejaVuSans-2e" d="M 684 794 
L 1344 794 
L 1344 0 
L 684 0 
L 684 794 
z
" transform="scale(0.015625)"/>
      <path id="DejaVuSans-39" d="M 703 97 
L 703 672 
Q 941 559 1184 500 
Q 1428 441 1663 441 
Q 2288 441 2617 861 
Q 2947 1281 2994 2138 
Q 2813 1869 2534 1725 
Q 2256 1581 1919 1581 
Q 1219 1581 811 2004 
Q 403 2428 403 3163 
Q 403 3881 828 4315 
Q 1253 4750 1959 4750 
Q 2769 4750 3195 4129 
Q 3622 3509 3622 2328 
Q 3622 1225 3098 567 
Q 2575 -91 1691 -91 
Q 1453 -91 1209 -44 
Q 966 3 703 97 
z
M 1959 2075 
Q 2384 2075 2632 2365 
Q 2881 2656 2881 3163 
Q 2881 3666 2632 3958 
Q 2384 4250 1959 4250 
Q 1534 4250 1286 3958 
Q 1038 3666 1038 3163 
Q 1038 2656 1286 2365 
Q 1534 2075 1959 2075 
z
" transform="scale(0.015625)"/>
      <path id="DejaVuSans-25" d="M 4653 2053 
Q 4381 2053 4226 1822 
Q 4072 1591 4072 1178 
Q 4072 772 4226 539 
Q 4381 306 4653 306 
Q 4919 306 5073 539 
Q 5228 772 5228 1178 
Q 5228 1588 5073 1820 
Q 4919 2053 4653 2053 
z
M 4653 2450 
Q 5147 2450 5437 2106 
Q 5728 1763 5728 1178 
Q 5728 594 5436 251 
Q 5144 -91 4653 -91 
Q 4153 -91 3862 251 
Q 3572 594 3572 1178 
Q 3572 1766 3864 2108 
Q 4156 2450 4653 2450 
z
M 1428 4353 
Q 1159 4353 1004 4120 
Q 850 3888 850 3481 
Q 850 3069 1003 2837 
Q 1156 2606 1428 2606 
Q 1700 2606 1854 2837 
Q 2009 3069 2009 3481 
Q 2009 3884 1853 4118 
Q 1697 4353 1428 4353 
z
M 4250 4750 
L 4750 4750 
L 1831 -91 
L 1331 -91 
L 4250 4750 
z
M 1428 4750 
Q 1922 4750 2215 4408 
Q 2509 4066 2509 3481 
Q 2509 2891 2217 2550 
Q 1925 2209 1428 2209 
Q 931 2209 642 2551 
Q 353 2894 353 3481 
Q 353 4063 643 4406 
Q 934 4750 1428 4750 
z
" transform="scale(0.015625)"/>
     </defs>
     <use xlink:href="#DejaVuSans-31"/>
     <use xlink:href="#DejaVuSans-32" x="63.623047"/>
     <use xlink:href="#DejaVuSans-2e" x="127.246094"/>
     <use xlink:href="#DejaVuSans-39" x="159.033203"/>
     <use xlink:href="#DejaVuSans-25" x="222.65625"/>
    </g>
   </g>
   <g id="text_3">
    <!-- PPU -->
    <g transform="translate(72.868412 117.622419) scale(0.1 -0.1)">
     <defs>
      <path id="DejaVuSans-50" d="M 1259 4147 
L 1259 2394 
L 2053 2394 
Q 2494 2394 2734 2622 
Q 2975 2850 2975 3272 
Q 2975 3691 2734 3919 
Q 2494 4147 2053 4147 
L 1259 4147 
z
M 628 4666 
L 2053 4666 
Q 2838 4666 3239 4311 
Q 3641 3956 3641 3272 
Q 3641 2581 3239 2228 
Q 2838 1875 2053 1875 
L 1259 1875 
L 1259 0 
L 628 0 
L 628 4666 
z
" transform="scale(0.015625)"/>
      <path id="DejaVuSans-55" d="M 556 4666 
L 1191 4666 
L 1191 1831 
Q 1191 1081 1462 751 
Q 1734 422 2344 422 
Q 2950 422 3222 751 
Q 3494 1081 3494 1831 
L 3494 4666 
L 4128 4666 
L 4128 1753 
Q 4128 841 3676 375 
Q 3225 -91 2344 -91 
Q 1459 -91 1007 375 
Q 556 841 556 1753 
L 556 4666 
z
" transform="scale(0.015625)"/>
     </defs>
     <use xlink:href="#DejaVuSans-50"/>
     <use xlink:href="#DejaVuSans-50" x="60.302734"/>
     <use xlink:href="#DejaVuSans-55" x="120.605469"/>
    </g>
   </g>
   <g id="text_4">
    <!-- 64.3% -->
    <g transform="translate(122.023413 129.041401) scale(0.1 -0.1)">
     <defs>
      <path id="DejaVuSans-36" d="M 2113 2584 
Q 1688 2584 1439 2293 
Q 1191 2003 1191 1497 
Q 1191 994 1439 701 
Q 1688 409 2113 409 
Q 2538 409 2786 701 
Q 3034 994 3034 1497 
Q 3034 2003 2786 2293 
Q 2538 2584 2113 2584 
z
M 3366 4563 
L 3366 3988 
Q 3128 4100 2886 4159 
Q 2644 4219 2406 4219 
Q 1781 4219 1451 3797 
Q 1122 3375 1075 2522 
Q 1259 2794 1537 2939 
Q 1816 3084 2150 3084 
Q 2853 3084 3261 2657 
Q 3669 2231 3669 1497 
Q 3669 778 3244 343 
Q 2819 -91 2113 -91 
Q 1303 -91 875 529 
Q 447 1150 447 2328 
Q 447 3434 972 4092 
Q 1497 4750 2381 4750 
Q 2619 4750 2861 4703 
Q 3103 4656 3366 4563 
z
" transform="scale(0.015625)"/>
      <path id="DejaVuSans-34" d="M 2419 4116 
L 825 1625 
L 2419 1625 
L 2419 4116 
z
M 2253 4666 
L 3047 4666 
L 3047 1625 
L 3713 1625 
L 3713 1100 
L 3047 1100 
L 3047 0 
L 2419 0 
L 2419 1100 
L 313 1100 
L 313 1709 
L 2253 4666 
z
" transform="scale(0.015625)"/>
      <path id="DejaVuSans-33" d="M 2597 2516 
Q 3050 2419 3304 2112 
Q 3559 1806 3559 1356 
Q 3559 666 3084 287 
Q 2609 -91 1734 -91 
Q 1441 -91 1130 -33 
Q 819 25 488 141 
L 488 750 
Q 750 597 1062 519 
Q 1375 441 1716 441 
Q 2309 441 2620 675 
Q 2931 909 2931 1356 
Q 2931 1769 2642 2001 
Q 2353 2234 1838 2234 
L 1294 2234 
L 1294 2753 
L 1863 2753 
Q 2328 2753 2575 2939 
Q 2822 3125 2822 3475 
Q 2822 3834 2567 4026 
Q 2313 4219 1838 4219 
Q 1578 4219 1281 4162 
Q 984 4106 628 3988 
L 628 4550 
Q 988 4650 1302 4700 
Q 1616 4750 1894 4750 
Q 2613 4750 3031 4423 
Q 3450 4097 3450 3541 
Q 3450 3153 3228 2886 
Q 3006 2619 2597 2516 
z
" transform="scale(0.015625)"/>
     </defs>
     <use xlink:href="#DejaVuSans-36"/>
     <use xlink:href="#DejaVuSans-34" x="63.623047"/>
     <use xlink:href="#DejaVuSans-2e" x="127.246094"/>
     <use xlink:href="#DejaVuSans-33" x="159.033203"/>
     <use xlink:href="#DejaVuSans-25" x="222.65625"/>
    </g>
   </g>
   <g id="text_5">
    <!-- Timer -->
    <g transform="translate(268.21347 213.593069) scale(0.1 -0.1)">
     <defs>
      <path id="DejaVuSans-54" d="M -19 4666 
L 3928 4666 
L 3928 4134 
L 2272 4134 
L 2272 0 
L 1638 0 
L 1638 4134 
L -19 4134 
L -19 4666 
z
" transform="scale(0.015625)"/>
      <path id="DejaVuSans-6d" d="M 3328 2828 
Q 3544 3216 3844 3400 
Q 4144 3584 4550 3584 
Q 5097 3584 5394 3201 
Q 5691 2819 5691 2113 
L 5691 0 
L 5113 0 
L 5113 2094 
Q 5113 2597 4934 2840 
Q 4756 3084 4391 3084 
Q 3944 3084 3684 2787 
Q 3425 2491 3425 1978 
L 3425 0 
L 2847 0 
L 2847 2094 
Q 2847 2600 2669 2842 
Q 2491 3084 2119 3084 
Q 1678 3084 1418 2786 
Q 1159 2488 1159 1978 
L 1159 0 
L 581 0 
L 581 3500 
L 1159 3500 
L 1159 2956 
Q 1356 3278 1631 3431 
Q 1906 3584 2284 3584 
Q 2666 3584 2933 3390 
Q 3200 3197 3328 2828 
z
" transform="scale(0.015625)"/>
     </defs>
     <use xlink:href="#DejaVuSans-54"/>
     <use xlink:href="#DejaVuSans-69" x="57.958984"/>
     <use xlink:href="#DejaVuSans-6d" x="85.742188"/>
     <use xlink:href="#DejaVuSans-65" x="183.154297"/>
     <use xlink:href="#DejaVuSans-72" x="244.677734"/>
    </g>
   </g>
   <g id="text_6">
    <!-- 19.5% -->
    <g transform="translate(218.005376 181.389028) scale(0.1 -0.1)">
     <defs>
      <path id="DejaVuSans-35" d="M 691 4666 
L 3169 4666 
L 3169 4134 
L 1269 4134 
L 1269 2991 
Q 1406 3038 1543 3061 
Q 1681 3084 1819 3084 
Q 2600 3084 3056 2656 
Q 3513 2228 3513 1497 
Q 3513 744 3044 326 
Q 2575 -91 1722 -91 
Q 1428 -91 1123 -41 
Q 819 9 494 109 
L 494 744 
Q 775 591 1075 516 
Q 1375 441 1709 441 
Q 2250 441 2565 725 
Q 2881 1009 2881 1497 
Q 2881 1984 2565 2268 
Q 2250 2553 1709 2553 
Q 1456 2553 1204 2497 
Q 953 2441 691 2322 
L 691 4666 
z
" transform="scale(0.015625)"/>
     </defs>
     <use xlink:href="#DejaVuSans-31"/>
     <use xlink:href="#DejaVuSans-39" x="63.623047"/>
     <use xlink:href="#DejaVuSans-2e" x="127.246094"/>
     <use xlink:href="#DejaVuSans-35" x="159.033203"/>
     <use xlink:href="#DejaVuSans-25" x="222.65625"/>
    </g>
   </g>
   <g id="text_7">
    <!-- No interrupt prediction -->
    <g transform="translate(124.320194 16.318125) scale(0.12 -0.12)">
     <defs>
      <path id="DejaVuSans-4e" d="M 628 4666 
L 1478 4666 
L 3547 763 
L 3547 4666 
L 4159 4666 
L 4159 0 
L 3309 0 
L 1241 3903 
L 1241 0 
L 628 0 
L 628 4666 
z
" transform="scale(0.015625)"/>
      <path id="DejaVuSans-6f" d="M 1959 3097 
Q 1497 3097 1228 2736 
Q 959 2375 959 1747 
Q 959 1119 1226 758 
Q 1494 397 1959 397 
Q 2419 397 2687 759 
Q 2956 1122 2956 1747 
Q 2956 2369 2687 2733 
Q 2419 3097 1959 3097 
z
M 1959 3584 
Q 2709 3584 3137 3096 
Q 3566 2609 3566 1747 
Q 3566 888 3137 398 
Q 2709 -91 1959 -91 
Q 1206 -91 779 398 
Q 353 888 353 1747 
Q 353 2609 779 3096 
Q 1206 3584 1959 3584 
z
" transform="scale(0.015625)"/>
      <path id="DejaVuSans-20" transform="scale(0.015625)"/>
      <path id="DejaVuSans-75" d="M 544 1381 
L 544 3500 
L 1119 3500 
L 1119 1403 
Q 1119 906 1312 657 
Q 1506 409 1894 409 
Q 2359 409 2629 706 
Q 2900 1003 2900 1516 
L 2900 3500 
L 3475 3500 
L 3475 0 
L 2900 0 
L 2900 538 
Q 2691 219 2414 64 
Q 2138 -91 1772 -91 
Q 1169 -91 856 284 
Q 544 659 544 1381 
z
M 1991 3584 
L 1991 3584 
z
" transform="scale(0.015625)"/>
      <path id="DejaVuSans-64" d="M 2906 2969 
L 2906 4863 
L 3481 4863 
L 3481 0 
L 2906 0 
L 2906 525 
Q 2725 213 2448 61 
Q 2172 -91 1784 -91 
Q 1150 -91 751 415 
Q 353 922 353 1747 
Q 353 2572 751 3078 
Q 1150 3584 1784 3584 
Q 2172 3584 2448 3432 
Q 2725 3281 2906 2969 
z
M 947 1747 
Q 947 1113 1208 752 
Q 1469 391 1925 391 
Q 2381 391 2643 752 
Q 2906 1113 2906 1747 
Q 2906 2381 2643 2742 
Q 2381 3103 1925 3103 
Q 1469 3103 1208 2742 
Q 947 2381 947 1747 
z
" transform="scale(0.015625)"/>
      <path id="DejaVuSans-63" d="M 3122 3366 
L 3122 2828 
Q 2878 2963 2633 3030 
Q 2388 3097 2138 3097 
Q 1578 3097 1268 2742 
Q 959 2388 959 1747 
Q 959 1106 1268 751 
Q 1578 397 2138 397 
Q 2388 397 2633 464 
Q 2878 531 3122 666 
L 3122 134 
Q 2881 22 2623 -34 
Q 2366 -91 2075 -91 
Q 1284 -91 818 406 
Q 353 903 353 1747 
Q 353 2603 823 3093 
Q 1294 3584 2113 3584 
Q 2378 3584 2631 3529 
Q 2884 3475 3122 3366 
z
" transform="scale(0.015625)"/>
     </defs>
     <use xlink:href="#DejaVuSans-4e"/>
     <use xlink:href="#DejaVuSans-6f" x="74.804688"/>
     <use xlink:href="#DejaVuSans-20" x="135.986328"/>
     <use xlink:href="#DejaVuSans-69" x="167.773438"/>
     <use xlink:href="#DejaVuSans-6e" x="195.556641"/>
     <use xlink:href="#DejaVuSans-74" x="258.935547"/>
     <use xlink:href="#DejaVuSans-65" x="298.144531"/>
     <use xlink:href="#DejaVuSans-72" x="359.667969"/>
     <use xlink:href="#DejaVuSans-72" x="399.03125"/>
     <use xlink:href="#DejaVuSans-75" x="440.144531"/>
     <use xlink:href="#DejaVuSans-70" x="503.523438"/>
     <use xlink:href="#DejaVuSans-74" x="567"/>
     <use xlink:href="#DejaVuSans-20" x="606.208984"/>
     <use xlink:href="#DejaVuSans-70" x="637.996094"/>
     <use xlink:href="#DejaVuSans-72" x="701.472656"/>
     <use xlink:href="#DejaVuSans-65" x="740.335938"/>
     <use xlink:href="#DejaVuSans-64" x="801.859375"/>
     <use xlink:href="#DejaVuSans-69" x="865.335938"/>
     <use xlink:href="#DejaVuSans-63" x="893.119141"/>
     <use xlink:href="#DejaVuSans-74" x="948.099609"/>
     <use xlink:href="#DejaVuSans-69" x="987.308594"/>
     <use xlink:href="#DejaVuSans-6f" x="1015.091797"/>
     <use xlink:href="#DejaVuSans-6e" x="1076.273438"/>
    </g>
   </g>
  </g>
  <g id="axes_2">
   <g id="patch_10">
    <path d="M 601.142829 139.984804 
C 601.142829 138.249906 601.094868 136.515339 600.998999 134.783092 
C 600.90313 133.050845 600.759391 131.321579 600.567947 129.597276 
L 507.009486 139.984804 
z
" style="fill: #3f3fff"/>
   </g>
   <g id="patch_11">
    <path d="M 600.567947 129.597276 
C 598.96775 115.18461 594.058582 101.334749 586.224664 89.131663 
C 578.390745 76.928577 567.841927 66.699157 555.403822 59.244018 
C 542.965717 51.788878 528.971509 47.307722 514.516469 46.151273 
C 500.061428 44.994824 485.532768 47.194058 472.067587 52.576853 
C 458.602406 57.959647 446.561401 66.381809 436.886974 77.184171 
C 427.212546 87.986533 420.163849 100.879727 416.292553 114.854656 
C 412.421258 128.829585 411.831067 143.511897 414.568173 157.752467 
C 417.305279 171.993036 423.29636 185.410396 432.072521 196.954423 
L 507.009486 139.984804 
z
" style="fill: #7f7fff"/>
   </g>
   <g id="patch_12">
    <path d="M 432.072521 196.954423 
C 434.575365 200.246625 437.292444 203.370315 440.206094 206.305185 
C 443.119743 209.240055 446.223635 211.97973 449.497588 214.506397 
L 507.009486 139.984804 
z
" style="fill: #ff6f0f"/>
   </g>
   <g id="patch_13">
    <path d="M 449.497588 214.506397 
C 459.597904 222.301296 471.178309 227.962016 483.533586 231.143832 
C 495.888863 234.325648 508.763015 234.962634 521.372037 233.016 
C 533.981059 231.069365 546.063697 226.579444 556.884148 219.819661 
C 567.704599 213.059878 577.038666 204.170293 584.317929 193.692261 
L 507.009486 139.984804 
z
" style="fill: #ff8f3f"/>
   </g>
   <g id="patch_14">
    <path d="M 584.317929 193.692261 
C 588.220793 188.074338 591.499682 182.047691 594.096461 175.719172 
C 596.69324 169.390654 598.592469 162.797891 599.760475 156.057775 
L 507.009486 139.984804 
z
" style="fill: #ffbf7f"/>
   </g>
   <g id="patch_15">
    <path d="M 599.760475 156.057775 
C 599.810989 155.766276 599.860129 155.47454 599.907893 155.182577 
C 599.955657 154.890615 600.002044 154.598428 600.047053 154.306028 
L 507.009486 139.984804 
z
" style="fill: #5faf5f"/>
   </g>
   <g id="patch_16">
    <path d="M 600.047053 154.306028 
C 600.062606 154.20499 600.077994 154.103926 600.093217 154.002837 
C 600.108441 153.901749 600.1235 153.800635 600.138394 153.699497 
L 507.009486 139.984804 
z
" style="fill: #3f9f3f"/>
   </g>
   <g id="patch_17">
    <path d="M 600.138394 153.699497 
C 600.47242 151.431308 600.723472 149.151672 600.891045 146.865152 
C 601.058619 144.578631 601.142602 142.286752 601.142829 139.994099 
L 507.009486 139.984804 
z
" style="fill: #bf7fff"/>
   </g>
   <g id="patch_18">
    <path d="M 601.142829 139.994099 
C 601.142829 139.99255 601.142829 139.991001 601.142829 139.989452 
C 601.142829 139.987903 601.142829 139.986355 601.142829 139.984806 
L 507.009486 139.984804 
z
" style="fill: #8f3fff"/>
   </g>
   <g id="matplotlib.axis_3"/>
   <g id="matplotlib.axis_4"/>
   <g id="text_8">
    <!-- interpreter -->
    <g transform="translate(414.701522 46.595432) scale(0.1 -0.1)">
     <use xlink:href="#DejaVuSans-69"/>
     <use xlink:href="#DejaVuSans-6e" x="27.783203"/>
     <use xlink:href="#DejaVuSans-74" x="91.162109"/>
     <use xlink:href="#DejaVuSans-65" x="130.371094"/>
     <use xlink:href="#DejaVuSans-72" x="191.894531"/>
     <use xlink:href="#DejaVuSans-70" x="233.007812"/>
     <use xlink:href="#DejaVuSans-72" x="296.484375"/>
     <use xlink:href="#DejaVuSans-65" x="335.347656"/>
     <use xlink:href="#DejaVuSans-74" x="396.871094"/>
     <use xlink:href="#DejaVuSans-65" x="436.080078"/>
     <use xlink:href="#DejaVuSans-72" x="497.603516"/>
    </g>
   </g>
   <g id="text_9">
    <!-- 58.6% -->
    <g transform="translate(470.160753 90.299408) scale(0.1 -0.1)">
     <defs>
      <path id="DejaVuSans-38" d="M 2034 2216 
Q 1584 2216 1326 1975 
Q 1069 1734 1069 1313 
Q 1069 891 1326 650 
Q 1584 409 2034 409 
Q 2484 409 2743 651 
Q 3003 894 3003 1313 
Q 3003 1734 2745 1975 
Q 2488 2216 2034 2216 
z
M 1403 2484 
Q 997 2584 770 2862 
Q 544 3141 544 3541 
Q 544 4100 942 4425 
Q 1341 4750 2034 4750 
Q 2731 4750 3128 4425 
Q 3525 4100 3525 3541 
Q 3525 3141 3298 2862 
Q 3072 2584 2669 2484 
Q 3125 2378 3379 2068 
Q 3634 1759 3634 1313 
Q 3634 634 3220 271 
Q 2806 -91 2034 -91 
Q 1263 -91 848 271 
Q 434 634 434 1313 
Q 434 1759 690 2068 
Q 947 2378 1403 2484 
z
M 1172 3481 
Q 1172 3119 1398 2916 
Q 1625 2713 2034 2713 
Q 2441 2713 2670 2916 
Q 2900 3119 2900 3481 
Q 2900 3844 2670 4047 
Q 2441 4250 2034 4250 
Q 1625 4250 1398 4047 
Q 1172 3844 1172 3481 
z
" transform="scale(0.015625)"/>
     </defs>
     <use xlink:href="#DejaVuSans-35"/>
     <use xlink:href="#DejaVuSans-38" x="63.623047"/>
     <use xlink:href="#DejaVuSans-2e" x="127.246094"/>
     <use xlink:href="#DejaVuSans-36" x="159.033203"/>
     <use xlink:href="#DejaVuSans-25" x="222.65625"/>
    </g>
   </g>
   <g id="text_10">
    <!-- search_objects -->
    <g transform="translate(359.286692 215.557536) scale(0.1 -0.1)">
     <defs>
      <path id="DejaVuSans-73" d="M 2834 3397 
L 2834 2853 
Q 2591 2978 2328 3040 
Q 2066 3103 1784 3103 
Q 1356 3103 1142 2972 
Q 928 2841 928 2578 
Q 928 2378 1081 2264 
Q 1234 2150 1697 2047 
L 1894 2003 
Q 2506 1872 2764 1633 
Q 3022 1394 3022 966 
Q 3022 478 2636 193 
Q 2250 -91 1575 -91 
Q 1294 -91 989 -36 
Q 684 19 347 128 
L 347 722 
Q 666 556 975 473 
Q 1284 391 1588 391 
Q 1994 391 2212 530 
Q 2431 669 2431 922 
Q 2431 1156 2273 1281 
Q 2116 1406 1581 1522 
L 1381 1569 
Q 847 1681 609 1914 
Q 372 2147 372 2553 
Q 372 3047 722 3315 
Q 1072 3584 1716 3584 
Q 2034 3584 2315 3537 
Q 2597 3491 2834 3397 
z
" transform="scale(0.015625)"/>
      <path id="DejaVuSans-61" d="M 2194 1759 
Q 1497 1759 1228 1600 
Q 959 1441 959 1056 
Q 959 750 1161 570 
Q 1363 391 1709 391 
Q 2188 391 2477 730 
Q 2766 1069 2766 1631 
L 2766 1759 
L 2194 1759 
z
M 3341 1997 
L 3341 0 
L 2766 0 
L 2766 531 
Q 2569 213 2275 61 
Q 1981 -91 1556 -91 
Q 1019 -91 701 211 
Q 384 513 384 1019 
Q 384 1609 779 1909 
Q 1175 2209 1959 2209 
L 2766 2209 
L 2766 2266 
Q 2766 2663 2505 2880 
Q 2244 3097 1772 3097 
Q 1472 3097 1187 3025 
Q 903 2953 641 2809 
L 641 3341 
Q 956 3463 1253 3523 
Q 1550 3584 1831 3584 
Q 2591 3584 2966 3190 
Q 3341 2797 3341 1997 
z
" transform="scale(0.015625)"/>
      <path id="DejaVuSans-68" d="M 3513 2113 
L 3513 0 
L 2938 0 
L 2938 2094 
Q 2938 2591 2744 2837 
Q 2550 3084 2163 3084 
Q 1697 3084 1428 2787 
Q 1159 2491 1159 1978 
L 1159 0 
L 581 0 
L 581 4863 
L 1159 4863 
L 1159 2956 
Q 1366 3272 1645 3428 
Q 1925 3584 2291 3584 
Q 2894 3584 3203 3211 
Q 3513 2838 3513 2113 
z
" transform="scale(0.015625)"/>
      <path id="DejaVuSans-5f" d="M 3263 -1063 
L 3263 -1509 
L -63 -1509 
L -63 -1063 
L 3263 -1063 
z
" transform="scale(0.015625)"/>
      <path id="DejaVuSans-62" d="M 3116 1747 
Q 3116 2381 2855 2742 
Q 2594 3103 2138 3103 
Q 1681 3103 1420 2742 
Q 1159 2381 1159 1747 
Q 1159 1113 1420 752 
Q 1681 391 2138 391 
Q 2594 391 2855 752 
Q 3116 1113 3116 1747 
z
M 1159 2969 
Q 1341 3281 1617 3432 
Q 1894 3584 2278 3584 
Q 2916 3584 3314 3078 
Q 3713 2572 3713 1747 
Q 3713 922 3314 415 
Q 2916 -91 2278 -91 
Q 1894 -91 1617 61 
Q 1341 213 1159 525 
L 1159 0 
L 581 0 
L 581 4863 
L 1159 4863 
L 1159 2969 
z
" transform="scale(0.015625)"/>
      <path id="DejaVuSans-6a" d="M 603 3500 
L 1178 3500 
L 1178 -63 
Q 1178 -731 923 -1031 
Q 669 -1331 103 -1331 
L -116 -1331 
L -116 -844 
L 38 -844 
Q 366 -844 484 -692 
Q 603 -541 603 -63 
L 603 3500 
z
M 603 4863 
L 1178 4863 
L 1178 4134 
L 603 4134 
L 603 4863 
z
" transform="scale(0.015625)"/>
     </defs>
     <use xlink:href="#DejaVuSans-73"/>
     <use xlink:href="#DejaVuSans-65" x="52.099609"/>
     <use xlink:href="#DejaVuSans-61" x="113.623047"/>
     <use xlink:href="#DejaVuSans-72" x="174.902344"/>
     <use xlink:href="#DejaVuSans-63" x="213.765625"/>
     <use xlink:href="#DejaVuSans-68" x="268.746094"/>
     <use xlink:href="#DejaVuSans-5f" x="332.125"/>
     <use xlink:href="#DejaVuSans-6f" x="382.125"/>
     <use xlink:href="#DejaVuSans-62" x="443.306641"/>
     <use xlink:href="#DejaVuSans-6a" x="506.783203"/>
     <use xlink:href="#DejaVuSans-65" x="534.566406"/>
     <use xlink:href="#DejaVuSans-63" x="596.089844"/>
     <use xlink:href="#DejaVuSans-74" x="651.070312"/>
     <use xlink:href="#DejaVuSans-73" x="690.279297"/>
    </g>
   </g>
   <g id="text_11">
    <!-- 4.2% -->
    <g transform="translate(454.225107 182.536408) scale(0.1 -0.1)">
     <use xlink:href="#DejaVuSans-34"/>
     <use xlink:href="#DejaVuSans-2e" x="63.623047"/>
     <use xlink:href="#DejaVuSans-32" x="95.410156"/>
     <use xlink:href="#DejaVuSans-25" x="159.033203"/>
    </g>
   </g>
   <g id="text_12">
    <!-- draw_scan_line -->
    <g transform="translate(522.808292 244.939432) scale(0.1 -0.1)">
     <defs>
      <path id="DejaVuSans-77" d="M 269 3500 
L 844 3500 
L 1563 769 
L 2278 3500 
L 2956 3500 
L 3675 769 
L 4391 3500 
L 4966 3500 
L 4050 0 
L 3372 0 
L 2619 2869 
L 1863 0 
L 1184 0 
L 269 3500 
z
" transform="scale(0.015625)"/>
      <path id="DejaVuSans-6c" d="M 603 4863 
L 1178 4863 
L 1178 0 
L 603 0 
L 603 4863 
z
" transform="scale(0.015625)"/>
     </defs>
     <use xlink:href="#DejaVuSans-64"/>
     <use xlink:href="#DejaVuSans-72" x="63.476562"/>
     <use xlink:href="#DejaVuSans-61" x="104.589844"/>
     <use xlink:href="#DejaVuSans-77" x="165.869141"/>
     <use xlink:href="#DejaVuSans-5f" x="247.65625"/>
     <use xlink:href="#DejaVuSans-73" x="297.65625"/>
     <use xlink:href="#DejaVuSans-63" x="349.755859"/>
     <use xlink:href="#DejaVuSans-61" x="404.736328"/>
     <use xlink:href="#DejaVuSans-6e" x="466.015625"/>
     <use xlink:href="#DejaVuSans-5f" x="529.394531"/>
     <use xlink:href="#DejaVuSans-6c" x="579.394531"/>
     <use xlink:href="#DejaVuSans-69" x="607.177734"/>
     <use xlink:href="#DejaVuSans-6e" x="634.960938"/>
     <use xlink:href="#DejaVuSans-65" x="698.339844"/>
    </g>
   </g>
   <g id="text_13">
    <!-- 25.8% -->
    <g transform="translate(499.743423 198.562896) scale(0.1 -0.1)">
     <use xlink:href="#DejaVuSans-32"/>
     <use xlink:href="#DejaVuSans-35" x="63.623047"/>
     <use xlink:href="#DejaVuSans-2e" x="127.246094"/>
     <use xlink:href="#DejaVuSans-38" x="159.033203"/>
     <use xlink:href="#DejaVuSans-25" x="222.65625"/>
    </g>
   </g>
   <g id="text_14">
    <!-- PPU -->
    <g transform="translate(602.805159 182.051984) scale(0.1 -0.1)">
     <use xlink:href="#DejaVuSans-50"/>
     <use xlink:href="#DejaVuSans-50" x="60.302734"/>
     <use xlink:href="#DejaVuSans-55" x="120.605469"/>
    </g>
   </g>
   <g id="text_15">
    <!-- 6.9% -->
    <g transform="translate(546.559327 164.1848) scale(0.1 -0.1)">
     <use xlink:href="#DejaVuSans-36"/>
     <use xlink:href="#DejaVuSans-2e" x="63.623047"/>
     <use xlink:href="#DejaVuSans-39" x="95.410156"/>
     <use xlink:href="#DejaVuSans-25" x="159.033203"/>
    </g>
   </g>
   <g id="text_16">
    <!-- With interrupt prediction -->
    <g transform="translate(433.171049 16.318125) scale(0.12 -0.12)">
     <defs>
      <path id="DejaVuSans-57" d="M 213 4666 
L 850 4666 
L 1831 722 
L 2809 4666 
L 3519 4666 
L 4500 722 
L 5478 4666 
L 6119 4666 
L 4947 0 
L 4153 0 
L 3169 4050 
L 2175 0 
L 1381 0 
L 213 4666 
z
" transform="scale(0.015625)"/>
     </defs>
     <use xlink:href="#DejaVuSans-57"/>
     <use xlink:href="#DejaVuSans-69" x="96.626953"/>
     <use xlink:href="#DejaVuSans-74" x="124.410156"/>
     <use xlink:href="#DejaVuSans-68" x="163.619141"/>
     <use xlink:href="#DejaVuSans-20" x="226.998047"/>
     <use xlink:href="#DejaVuSans-69" x="258.785156"/>
     <use xlink:href="#DejaVuSans-6e" x="286.568359"/>
     <use xlink:href="#DejaVuSans-74" x="349.947266"/>
     <use xlink:href="#DejaVuSans-65" x="389.15625"/>
     <use xlink:href="#DejaVuSans-72" x="450.679688"/>
     <use xlink:href="#DejaVuSans-72" x="490.042969"/>
     <use xlink:href="#DejaVuSans-75" x="531.15625"/>
     <use xlink:href="#DejaVuSans-70" x="594.535156"/>
     <use xlink:href="#DejaVuSans-74" x="658.011719"/>
     <use xlink:href="#DejaVuSans-20" x="697.220703"/>
     <use xlink:href="#DejaVuSans-70" x="729.007812"/>
     <use xlink:href="#DejaVuSans-72" x="792.484375"/>
     <use xlink:href="#DejaVuSans-65" x="831.347656"/>
     <use xlink:href="#DejaVuSans-64" x="892.871094"/>
     <use xlink:href="#DejaVuSans-69" x="956.347656"/>
     <use xlink:href="#DejaVuSans-63" x="984.130859"/>
     <use xlink:href="#DejaVuSans-74" x="1039.111328"/>
     <use xlink:href="#DejaVuSans-69" x="1078.320312"/>
     <use xlink:href="#DejaVuSans-6f" x="1106.103516"/>
     <use xlink:href="#DejaVuSans-6e" x="1167.285156"/>
    </g>
   </g>
  </g>
  <g id="legend_1">
   <g id="patch_19">
    <path d="M 9.2 294.214491 
L 121.875 294.214491 
Q 123.875 294.214491 123.875 292.214491 
L 123.875 160.555116 
Q 123.875 158.555116 121.875 158.555116 
L 9.2 158.555116 
Q 7.2 158.555116 7.2 160.555116 
L 7.2 292.214491 
Q 7.2 294.214491 9.2 294.214491 
z
" style="fill: #ffffff; opacity: 0.8; stroke: #cccccc; stroke-linejoin: miter"/>
   </g>
   <g id="patch_20">
    <path d="M 11.2 170.153554 
L 31.2 170.153554 
L 31.2 163.153554 
L 11.2 163.153554 
z
" style="fill: #3f3fff"/>
   </g>
   <g id="text_17">
    <!-- other -->
    <g transform="translate(39.2 170.153554) scale(0.1 -0.1)">
     <use xlink:href="#DejaVuSans-6f"/>
     <use xlink:href="#DejaVuSans-74" x="61.181641"/>
     <use xlink:href="#DejaVuSans-68" x="100.390625"/>
     <use xlink:href="#DejaVuSans-65" x="163.769531"/>
     <use xlink:href="#DejaVuSans-72" x="225.292969"/>
    </g>
   </g>
   <g id="patch_21">
    <path d="M 11.2 184.831679 
L 31.2 184.831679 
L 31.2 177.831679 
L 11.2 177.831679 
z
" style="fill: #7f7fff"/>
   </g>
   <g id="text_18">
    <!-- interpreter -->
    <g transform="translate(39.2 184.831679) scale(0.1 -0.1)">
     <use xlink:href="#DejaVuSans-69"/>
     <use xlink:href="#DejaVuSans-6e" x="27.783203"/>
     <use xlink:href="#DejaVuSans-74" x="91.162109"/>
     <use xlink:href="#DejaVuSans-65" x="130.371094"/>
     <use xlink:href="#DejaVuSans-72" x="191.894531"/>
     <use xlink:href="#DejaVuSans-70" x="233.007812"/>
     <use xlink:href="#DejaVuSans-72" x="296.484375"/>
     <use xlink:href="#DejaVuSans-65" x="335.347656"/>
     <use xlink:href="#DejaVuSans-74" x="396.871094"/>
     <use xlink:href="#DejaVuSans-65" x="436.080078"/>
     <use xlink:href="#DejaVuSans-72" x="497.603516"/>
    </g>
   </g>
   <g id="patch_22">
    <path d="M 11.2 199.509804 
L 31.2 199.509804 
L 31.2 192.509804 
L 11.2 192.509804 
z
" style="fill: #ff6f0f"/>
   </g>
   <g id="text_19">
    <!-- search_objects -->
    <g transform="translate(39.2 199.509804) scale(0.1 -0.1)">
     <use xlink:href="#DejaVuSans-73"/>
     <use xlink:href="#DejaVuSans-65" x="52.099609"/>
     <use xlink:href="#DejaVuSans-61" x="113.623047"/>
     <use xlink:href="#DejaVuSans-72" x="174.902344"/>
     <use xlink:href="#DejaVuSans-63" x="213.765625"/>
     <use xlink:href="#DejaVuSans-68" x="268.746094"/>
     <use xlink:href="#DejaVuSans-5f" x="332.125"/>
     <use xlink:href="#DejaVuSans-6f" x="382.125"/>
     <use xlink:href="#DejaVuSans-62" x="443.306641"/>
     <use xlink:href="#DejaVuSans-6a" x="506.783203"/>
     <use xlink:href="#DejaVuSans-65" x="534.566406"/>
     <use xlink:href="#DejaVuSans-63" x="596.089844"/>
     <use xlink:href="#DejaVuSans-74" x="651.070312"/>
     <use xlink:href="#DejaVuSans-73" x="690.279297"/>
    </g>
   </g>
   <g id="patch_23">
    <path d="M 11.2 214.466054 
L 31.2 214.466054 
L 31.2 207.466054 
L 11.2 207.466054 
z
" style="fill: #ff8f3f"/>
   </g>
   <g id="text_20">
    <!-- draw_scan_line -->
    <g transform="translate(39.2 214.466054) scale(0.1 -0.1)">
     <use xlink:href="#DejaVuSans-64"/>
     <use xlink:href="#DejaVuSans-72" x="63.476562"/>
     <use xlink:href="#DejaVuSans-61" x="104.589844"/>
     <use xlink:href="#DejaVuSans-77" x="165.869141"/>
     <use xlink:href="#DejaVuSans-5f" x="247.65625"/>
     <use xlink:href="#DejaVuSans-73" x="297.65625"/>
     <use xlink:href="#DejaVuSans-63" x="349.755859"/>
     <use xlink:href="#DejaVuSans-61" x="404.736328"/>
     <use xlink:href="#DejaVuSans-6e" x="466.015625"/>
     <use xlink:href="#DejaVuSans-5f" x="529.394531"/>
     <use xlink:href="#DejaVuSans-6c" x="579.394531"/>
     <use xlink:href="#DejaVuSans-69" x="607.177734"/>
     <use xlink:href="#DejaVuSans-6e" x="634.960938"/>
     <use xlink:href="#DejaVuSans-65" x="698.339844"/>
    </g>
   </g>
   <g id="patch_24">
    <path d="M 11.2 229.422304 
L 31.2 229.422304 
L 31.2 222.422304 
L 11.2 222.422304 
z
" style="fill: #ffbf7f"/>
   </g>
   <g id="text_21">
    <!-- PPU -->
    <g transform="translate(39.2 229.422304) scale(0.1 -0.1)">
     <use xlink:href="#DejaVuSans-50"/>
     <use xlink:href="#DejaVuSans-50" x="60.302734"/>
     <use xlink:href="#DejaVuSans-55" x="120.605469"/>
    </g>
   </g>
   <g id="patch_25">
    <path d="M 11.2 244.100429 
L 31.2 244.100429 
L 31.2 237.100429 
L 11.2 237.100429 
z
" style="fill: #5faf5f"/>
   </g>
   <g id="text_22">
    <!-- SoundController -->
    <g transform="translate(39.2 244.100429) scale(0.1 -0.1)">
     <defs>
      <path id="DejaVuSans-53" d="M 3425 4513 
L 3425 3897 
Q 3066 4069 2747 4153 
Q 2428 4238 2131 4238 
Q 1616 4238 1336 4038 
Q 1056 3838 1056 3469 
Q 1056 3159 1242 3001 
Q 1428 2844 1947 2747 
L 2328 2669 
Q 3034 2534 3370 2195 
Q 3706 1856 3706 1288 
Q 3706 609 3251 259 
Q 2797 -91 1919 -91 
Q 1588 -91 1214 -16 
Q 841 59 441 206 
L 441 856 
Q 825 641 1194 531 
Q 1563 422 1919 422 
Q 2459 422 2753 634 
Q 3047 847 3047 1241 
Q 3047 1584 2836 1778 
Q 2625 1972 2144 2069 
L 1759 2144 
Q 1053 2284 737 2584 
Q 422 2884 422 3419 
Q 422 4038 858 4394 
Q 1294 4750 2059 4750 
Q 2388 4750 2728 4690 
Q 3069 4631 3425 4513 
z
" transform="scale(0.015625)"/>
      <path id="DejaVuSans-43" d="M 4122 4306 
L 4122 3641 
Q 3803 3938 3442 4084 
Q 3081 4231 2675 4231 
Q 1875 4231 1450 3742 
Q 1025 3253 1025 2328 
Q 1025 1406 1450 917 
Q 1875 428 2675 428 
Q 3081 428 3442 575 
Q 3803 722 4122 1019 
L 4122 359 
Q 3791 134 3420 21 
Q 3050 -91 2638 -91 
Q 1578 -91 968 557 
Q 359 1206 359 2328 
Q 359 3453 968 4101 
Q 1578 4750 2638 4750 
Q 3056 4750 3426 4639 
Q 3797 4528 4122 4306 
z
" transform="scale(0.015625)"/>
     </defs>
     <use xlink:href="#DejaVuSans-53"/>
     <use xlink:href="#DejaVuSans-6f" x="63.476562"/>
     <use xlink:href="#DejaVuSans-75" x="124.658203"/>
     <use xlink:href="#DejaVuSans-6e" x="188.037109"/>
     <use xlink:href="#DejaVuSans-64" x="251.416016"/>
     <use xlink:href="#DejaVuSans-43" x="314.892578"/>
     <use xlink:href="#DejaVuSans-6f" x="384.716797"/>
     <use xlink:href="#DejaVuSans-6e" x="445.898438"/>
     <use xlink:href="#DejaVuSans-74" x="509.277344"/>
     <use xlink:href="#DejaVuSans-72" x="548.486328"/>
     <use xlink:href="#DejaVuSans-6f" x="587.349609"/>
     <use xlink:href="#DejaVuSans-6c" x="648.53125"/>
     <use xlink:href="#DejaVuSans-6c" x="676.314453"/>
     <use xlink:href="#DejaVuSans-65" x="704.097656"/>
     <use xlink:href="#DejaVuSans-72" x="765.621094"/>
    </g>
   </g>
   <g id="patch_26">
    <path d="M 11.2 258.778554 
L 31.2 258.778554 
L 31.2 251.778554 
L 11.2 251.778554 
z
" style="fill: #3f9f3f"/>
   </g>
   <g id="text_23">
    <!-- Timer -->
    <g transform="translate(39.2 258.778554) scale(0.1 -0.1)">
     <use xlink:href="#DejaVuSans-54"/>
     <use xlink:href="#DejaVuSans-69" x="57.958984"/>
     <use xlink:href="#DejaVuSans-6d" x="85.742188"/>
     <use xlink:href="#DejaVuSans-65" x="183.154297"/>
     <use xlink:href="#DejaVuSans-72" x="244.677734"/>
    </g>
   </g>
   <g id="patch_27">
    <path d="M 11.2 273.456679 
L 31.2 273.456679 
L 31.2 266.456679 
L 11.2 266.456679 
z
" style="fill: #bf7fff"/>
   </g>
   <g id="text_24">
    <!-- trace -->
    <g transform="translate(39.2 273.456679) scale(0.1 -0.1)">
     <use xlink:href="#DejaVuSans-74"/>
     <use xlink:href="#DejaVuSans-72" x="39.208984"/>
     <use xlink:href="#DejaVuSans-61" x="80.322266"/>
     <use xlink:href="#DejaVuSans-63" x="141.601562"/>
     <use xlink:href="#DejaVuSans-65" x="196.582031"/>
    </g>
   </g>
   <g id="patch_28">
    <path d="M 11.2 288.134804 
L 31.2 288.134804 
L 31.2 281.134804 
L 11.2 281.134804 
z
" style="fill: #8f3fff"/>
   </g>
   <g id="text_25">
    <!-- format -->
    <g transform="translate(39.2 288.134804) scale(0.1 -0.1)">
     <defs>
      <path id="DejaVuSans-66" d="M 2375 4863 
L 2375 4384 
L 1825 4384 
Q 1516 4384 1395 4259 
Q 1275 4134 1275 3809 
L 1275 3500 
L 2222 3500 
L 2222 3053 
L 1275 3053 
L 1275 0 
L 697 0 
L 697 3053 
L 147 3053 
L 147 3500 
L 697 3500 
L 697 3744 
Q 697 4328 969 4595 
Q 1241 4863 1831 4863 
L 2375 4863 
z
" transform="scale(0.015625)"/>
     </defs>
     <use xlink:href="#DejaVuSans-66"/>
     <use xlink:href="#DejaVuSans-6f" x="35.205078"/>
     <use xlink:href="#DejaVuSans-72" x="96.386719"/>
     <use xlink:href="#DejaVuSans-6d" x="135.75"/>
     <use xlink:href="#DejaVuSans-61" x="233.162109"/>
     <use xlink:href="#DejaVuSans-74" x="294.441406"/>
    </g>
   </g>
  </g>
 </g>
</svg>
