<?xml version="1.0" encoding="utf-8" standalone="no"?>
<!DOCTYPE svg PUBLIC "-//W3C//DTD SVG 1.1//EN"
  "http://www.w3.org/Graphics/SVG/1.1/DTD/svg11.dtd">
<svg xmlns:xlink="http://www.w3.org/1999/xlink" width="663.951039pt" height="513.005426pt" viewBox="0 0 663.951039 513.005426" xmlns="http://www.w3.org/2000/svg" version="1.1">
 <metadata>
  <rdf:RDF xmlns:dc="http://purl.org/dc/elements/1.1/" xmlns:cc="http://creativecommons.org/ns#" xmlns:rdf="http://www.w3.org/1999/02/22-rdf-syntax-ns#">
   <cc:Work>
    <dc:type rdf:resource="http://purl.org/dc/dcmitype/StillImage"/>
    <dc:date>2023-08-26T19:02:20.220692</dc:date>
    <dc:format>image/svg+xml</dc:format>
    <dc:creator>
     <cc:Agent>
      <dc:title>Matplotlib v3.7.2, https://matplotlib.org/</dc:title>
     </cc:Agent>
    </dc:creator>
   </cc:Work>
  </rdf:RDF>
 </metadata>
 <defs>
  <style type="text/css">*{stroke-linejoin: round; stroke-linecap: butt}</style>
 </defs>
 <g id="figure_1">
  <g id="patch_1">
   <path d="M 0 513.005426 
L 663.951039 513.005426 
L 663.951039 0 
L 0 0 
L 0 513.005426 
z
" style="fill: none"/>
  </g>
  <g id="axes_1">
   <g id="patch_2">
    <path d="M 338.654754 122.761775 
C 338.654754 121.280817 338.613813 119.800141 338.531977 118.321445 
C 338.45014 116.842749 338.327441 115.366598 338.164018 113.894684 
L 258.299834 122.761775 
z
" style="fill: #3f3fff"/>
   </g>
   <g id="patch_3">
    <path d="M 338.164018 113.894684 
C 336.798044 101.591619 332.607438 89.76898 325.920181 79.352077 
C 319.232923 68.935173 310.22815 60.203047 299.610626 53.839126 
C 288.993103 47.475205 277.047246 43.649962 264.708009 42.662783 
C 252.368772 41.675605 239.966691 43.552935 228.472427 48.147842 
C 216.978162 52.74275 206.699616 59.932149 198.441247 69.153355 
C 190.182878 78.37456 184.165908 89.380561 180.861259 101.309961 
C 177.55661 113.239361 177.052807 125.772603 179.389279 137.928762 
C 181.72575 150.08492 186.83991 161.538363 194.331492 171.392676 
L 258.299834 122.761775 
z
" style="fill: #7f7fff"/>
   </g>
   <g id="patch_4">
    <path d="M 194.331492 171.392676 
C 196.467991 174.202994 198.787368 176.869465 201.274543 179.374754 
C 203.761718 181.880043 206.411289 184.218708 209.206029 186.375544 
L 258.299834 122.761775 
z
" style="fill: #ff6f0f"/>
   </g>
   <g id="patch_5">
    <path d="M 209.206029 186.375544 
C 217.827948 193.029493 227.713314 197.861646 238.260132 200.577735 
C 248.806951 203.293825 259.796696 203.837574 270.560119 202.175871 
C 281.323542 200.514169 291.637628 196.681443 300.874275 190.911098 
C 310.110922 185.140754 318.07875 177.55235 324.292537 168.608001 
L 258.299834 122.761775 
z
" style="fill: #ff8f3f"/>
   </g>
   <g id="patch_6">
    <path d="M 324.292537 168.608001 
C 327.624134 163.812381 330.423088 158.667861 332.639772 153.265657 
C 334.856457 147.863452 336.477694 142.235681 337.474737 136.482124 
L 258.299834 122.761775 
z
" style="fill: #ffbf7f"/>
   </g>
   <g id="patch_7">
    <path d="M 337.474737 136.482124 
C 337.517857 136.233292 337.559805 135.984258 337.600577 135.73503 
C 337.64135 135.485803 337.680947 135.236384 337.719368 134.986783 
L 258.299834 122.761775 
z
" style="fill: #5faf5f"/>
   </g>
   <g id="patch_8">
    <path d="M 337.719368 134.986783 
C 337.732644 134.900534 337.74578 134.814263 337.758776 134.727971 
C 337.771771 134.641679 337.784626 134.555365 337.79734 134.469031 
L 258.299834 122.761775 
z
" style="fill: #3f9f3f"/>
   </g>
   <g id="patch_9">
    <path d="M 337.79734 134.469031 
C 338.082474 132.53284 338.296779 130.586877 338.439824 128.635038 
C 338.58287 126.683198 338.654561 124.726784 338.654754 122.76971 
L 258.299834 122.761775 
z
" style="fill: #bf7fff"/>
   </g>
   <g id="patch_10">
    <path d="M 338.654754 122.76971 
C 338.654754 122.768388 338.654754 122.767066 338.654754 122.765744 
C 338.654754 122.764421 338.654754 122.763099 338.654754 122.761777 
L 258.299834 122.761775 
z
" style="fill: #8f3fff"/>
   </g>
   <g id="matplotlib.axis_1"/>
   <g id="matplotlib.axis_2"/>
   <g id="text_1">
    <!-- interpreter -->
    <g transform="translate(171.617811 43.445824) scale(0.1 -0.1)">
     <defs>
      <path id="DejaVuSans-69" d="M 603 3500 
L 1178 3500 
L 1178 0 
L 603 0 
L 603 3500 
z
M 603 4863 
L 1178 4863 
L 1178 4134 
L 603 4134 
L 603 4863 
z
" transform="scale(0.015625)"/>
      <path id="DejaVuSans-6e" d="M 3513 2113 
L 3513 0 
L 2938 0 
L 2938 2094 
Q 2938 2591 2744 2837 
Q 2550 3084 2163 3084 
Q 1697 3084 1428 2787 
Q 1159 2491 1159 1978 
L 1159 0 
L 581 0 
L 581 3500 
L 1159 3500 
L 1159 2956 
Q 1366 3272 1645 3428 
Q 1925 3584 2291 3584 
Q 2894 3584 3203 3211 
Q 3513 2838 3513 2113 
z
" transform="scale(0.015625)"/>
      <path id="DejaVuSans-74" d="M 1172 4494 
L 1172 3500 
L 2356 3500 
L 2356 3053 
L 1172 3053 
L 1172 1153 
Q 1172 725 1289 603 
Q 1406 481 1766 481 
L 2356 481 
L 2356 0 
L 1766 0 
Q 1100 0 847 248 
Q 594 497 594 1153 
L 594 3053 
L 172 3053 
L 172 3500 
L 594 3500 
L 594 4494 
L 1172 4494 
z
" transform="scale(0.015625)"/>
      <path id="DejaVuSans-65" d="M 3597 1894 
L 3597 1613 
L 953 1613 
Q 991 1019 1311 708 
Q 1631 397 2203 397 
Q 2534 397 2845 478 
Q 3156 559 3463 722 
L 3463 178 
Q 3153 47 2828 -22 
Q 2503 -91 2169 -91 
Q 1331 -91 842 396 
Q 353 884 353 1716 
Q 353 2575 817 3079 
Q 1281 3584 2069 3584 
Q 2775 3584 3186 3129 
Q 3597 2675 3597 1894 
z
M 3022 2063 
Q 3016 2534 2758 2815 
Q 2500 3097 2075 3097 
Q 1594 3097 1305 2825 
Q 1016 2553 972 2059 
L 3022 2063 
z
" transform="scale(0.015625)"/>
      <path id="DejaVuSans-72" d="M 2631 2963 
Q 2534 3019 2420 3045 
Q 2306 3072 2169 3072 
Q 1681 3072 1420 2755 
Q 1159 2438 1159 1844 
L 1159 0 
L 581 0 
L 581 3500 
L 1159 3500 
L 1159 2956 
Q 1341 3275 1631 3429 
Q 1922 3584 2338 3584 
Q 2397 3584 2469 3576 
Q 2541 3569 2628 3553 
L 2631 2963 
z
" transform="scale(0.015625)"/>
      <path id="DejaVuSans-70" d="M 1159 525 
L 1159 -1331 
L 581 -1331 
L 581 3500 
L 1159 3500 
L 1159 2969 
Q 1341 3281 1617 3432 
Q 1894 3584 2278 3584 
Q 2916 3584 3314 3078 
Q 3713 2572 3713 1747 
Q 3713 922 3314 415 
Q 2916 -91 2278 -91 
Q 1894 -91 1617 61 
Q 1341 213 1159 525 
z
M 3116 1747 
Q 3116 2381 2855 2742 
Q 2594 3103 2138 3103 
Q 1681 3103 1420 2742 
Q 1159 2381 1159 1747 
Q 1159 1113 1420 752 
Q 1681 391 2138 391 
Q 2594 391 2855 752 
Q 3116 1113 3116 1747 
z
" transform="scale(0.015625)"/>
     </defs>
     <use xlink:href="#DejaVuSans-69"/>
     <use xlink:href="#DejaVuSans-6e" x="27.783203"/>
     <use xlink:href="#DejaVuSans-74" x="91.162109"/>
     <use xlink:href="#DejaVuSans-65" x="130.371094"/>
     <use xlink:href="#DejaVuSans-72" x="191.894531"/>
     <use xlink:href="#DejaVuSans-70" x="233.007812"/>
     <use xlink:href="#DejaVuSans-72" x="296.484375"/>
     <use xlink:href="#DejaVuSans-65" x="335.347656"/>
     <use xlink:href="#DejaVuSans-74" x="396.871094"/>
     <use xlink:href="#DejaVuSans-65" x="436.080078"/>
     <use xlink:href="#DejaVuSans-72" x="497.603516"/>
    </g>
   </g>
   <g id="text_2">
    <!-- 58.6% -->
    <g transform="translate(224.519796 80.752791) scale(0.1 -0.1)">
     <defs>
      <path id="DejaVuSans-35" d="M 691 4666 
L 3169 4666 
L 3169 4134 
L 1269 4134 
L 1269 2991 
Q 1406 3038 1543 3061 
Q 1681 3084 1819 3084 
Q 2600 3084 3056 2656 
Q 3513 2228 3513 1497 
Q 3513 744 3044 326 
Q 2575 -91 1722 -91 
Q 1428 -91 1123 -41 
Q 819 9 494 109 
L 494 744 
Q 775 591 1075 516 
Q 1375 441 1709 441 
Q 2250 441 2565 725 
Q 2881 1009 2881 1497 
Q 2881 1984 2565 2268 
Q 2250 2553 1709 2553 
Q 1456 2553 1204 2497 
Q 953 2441 691 2322 
L 691 4666 
z
" transform="scale(0.015625)"/>
      <path id="DejaVuSans-38" d="M 2034 2216 
Q 1584 2216 1326 1975 
Q 1069 1734 1069 1313 
Q 1069 891 1326 650 
Q 1584 409 2034 409 
Q 2484 409 2743 651 
Q 3003 894 3003 1313 
Q 3003 1734 2745 1975 
Q 2488 2216 2034 2216 
z
M 1403 2484 
Q 997 2584 770 2862 
Q 544 3141 544 3541 
Q 544 4100 942 4425 
Q 1341 4750 2034 4750 
Q 2731 4750 3128 4425 
Q 3525 4100 3525 3541 
Q 3525 3141 3298 2862 
Q 3072 2584 2669 2484 
Q 3125 2378 3379 2068 
Q 3634 1759 3634 1313 
Q 3634 634 3220 271 
Q 2806 -91 2034 -91 
Q 1263 -91 848 271 
Q 434 634 434 1313 
Q 434 1759 690 2068 
Q 947 2378 1403 2484 
z
M 1172 3481 
Q 1172 3119 1398 2916 
Q 1625 2713 2034 2713 
Q 2441 2713 2670 2916 
Q 2900 3119 2900 3481 
Q 2900 3844 2670 4047 
Q 2441 4250 2034 4250 
Q 1625 4250 1398 4047 
Q 1172 3844 1172 3481 
z
" transform="scale(0.015625)"/>
      <path id="DejaVuSans-2e" d="M 684 794 
L 1344 794 
L 1344 0 
L 684 0 
L 684 794 
z
" transform="scale(0.015625)"/>
      <path id="DejaVuSans-36" d="M 2113 2584 
Q 1688 2584 1439 2293 
Q 1191 2003 1191 1497 
Q 1191 994 1439 701 
Q 1688 409 2113 409 
Q 2538 409 2786 701 
Q 3034 994 3034 1497 
Q 3034 2003 2786 2293 
Q 2538 2584 2113 2584 
z
M 3366 4563 
L 3366 3988 
Q 3128 4100 2886 4159 
Q 2644 4219 2406 4219 
Q 1781 4219 1451 3797 
Q 1122 3375 1075 2522 
Q 1259 2794 1537 2939 
Q 1816 3084 2150 3084 
Q 2853 3084 3261 2657 
Q 3669 2231 3669 1497 
Q 3669 778 3244 343 
Q 2819 -91 2113 -91 
Q 1303 -91 875 529 
Q 447 1150 447 2328 
Q 447 3434 972 4092 
Q 1497 4750 2381 4750 
Q 2619 4750 2861 4703 
Q 3103 4656 3366 4563 
z
" transform="scale(0.015625)"/>
      <path id="DejaVuSans-25" d="M 4653 2053 
Q 4381 2053 4226 1822 
Q 4072 1591 4072 1178 
Q 4072 772 4226 539 
Q 4381 306 4653 306 
Q 4919 306 5073 539 
Q 5228 772 5228 1178 
Q 5228 1588 5073 1820 
Q 4919 2053 4653 2053 
z
M 4653 2450 
Q 5147 2450 5437 2106 
Q 5728 1763 5728 1178 
Q 5728 594 5436 251 
Q 5144 -91 4653 -91 
Q 4153 -91 3862 251 
Q 3572 594 3572 1178 
Q 3572 1766 3864 2108 
Q 4156 2450 4653 2450 
z
M 1428 4353 
Q 1159 4353 1004 4120 
Q 850 3888 850 3481 
Q 850 3069 1003 2837 
Q 1156 2606 1428 2606 
Q 1700 2606 1854 2837 
Q 2009 3069 2009 3481 
Q 2009 3884 1853 4118 
Q 1697 4353 1428 4353 
z
M 4250 4750 
L 4750 4750 
L 1831 -91 
L 1331 -91 
L 4250 4750 
z
M 1428 4750 
Q 1922 4750 2215 4408 
Q 2509 4066 2509 3481 
Q 2509 2891 2217 2550 
Q 1925 2209 1428 2209 
Q 931 2209 642 2551 
Q 353 2894 353 3481 
Q 353 4063 643 4406 
Q 934 4750 1428 4750 
z
" transform="scale(0.015625)"/>
     </defs>
     <use xlink:href="#DejaVuSans-35"/>
     <use xlink:href="#DejaVuSans-38" x="63.623047"/>
     <use xlink:href="#DejaVuSans-2e" x="127.246094"/>
     <use xlink:href="#DejaVuSans-36" x="159.033203"/>
     <use xlink:href="#DejaVuSans-25" x="222.65625"/>
    </g>
   </g>
   <g id="text_3">
    <!-- search_objects -->
    <g transform="translate(121.332951 187.656365) scale(0.1 -0.1)">
     <defs>
      <path id="DejaVuSans-73" d="M 2834 3397 
L 2834 2853 
Q 2591 2978 2328 3040 
Q 2066 3103 1784 3103 
Q 1356 3103 1142 2972 
Q 928 2841 928 2578 
Q 928 2378 1081 2264 
Q 1234 2150 1697 2047 
L 1894 2003 
Q 2506 1872 2764 1633 
Q 3022 1394 3022 966 
Q 3022 478 2636 193 
Q 2250 -91 1575 -91 
Q 1294 -91 989 -36 
Q 684 19 347 128 
L 347 722 
Q 666 556 975 473 
Q 1284 391 1588 391 
Q 1994 391 2212 530 
Q 2431 669 2431 922 
Q 2431 1156 2273 1281 
Q 2116 1406 1581 1522 
L 1381 1569 
Q 847 1681 609 1914 
Q 372 2147 372 2553 
Q 372 3047 722 3315 
Q 1072 3584 1716 3584 
Q 2034 3584 2315 3537 
Q 2597 3491 2834 3397 
z
" transform="scale(0.015625)"/>
      <path id="DejaVuSans-61" d="M 2194 1759 
Q 1497 1759 1228 1600 
Q 959 1441 959 1056 
Q 959 750 1161 570 
Q 1363 391 1709 391 
Q 2188 391 2477 730 
Q 2766 1069 2766 1631 
L 2766 1759 
L 2194 1759 
z
M 3341 1997 
L 3341 0 
L 2766 0 
L 2766 531 
Q 2569 213 2275 61 
Q 1981 -91 1556 -91 
Q 1019 -91 701 211 
Q 384 513 384 1019 
Q 384 1609 779 1909 
Q 1175 2209 1959 2209 
L 2766 2209 
L 2766 2266 
Q 2766 2663 2505 2880 
Q 2244 3097 1772 3097 
Q 1472 3097 1187 3025 
Q 903 2953 641 2809 
L 641 3341 
Q 956 3463 1253 3523 
Q 1550 3584 1831 3584 
Q 2591 3584 2966 3190 
Q 3341 2797 3341 1997 
z
" transform="scale(0.015625)"/>
      <path id="DejaVuSans-63" d="M 3122 3366 
L 3122 2828 
Q 2878 2963 2633 3030 
Q 2388 3097 2138 3097 
Q 1578 3097 1268 2742 
Q 959 2388 959 1747 
Q 959 1106 1268 751 
Q 1578 397 2138 397 
Q 2388 397 2633 464 
Q 2878 531 3122 666 
L 3122 134 
Q 2881 22 2623 -34 
Q 2366 -91 2075 -91 
Q 1284 -91 818 406 
Q 353 903 353 1747 
Q 353 2603 823 3093 
Q 1294 3584 2113 3584 
Q 2378 3584 2631 3529 
Q 2884 3475 3122 3366 
z
" transform="scale(0.015625)"/>
      <path id="DejaVuSans-68" d="M 3513 2113 
L 3513 0 
L 2938 0 
L 2938 2094 
Q 2938 2591 2744 2837 
Q 2550 3084 2163 3084 
Q 1697 3084 1428 2787 
Q 1159 2491 1159 1978 
L 1159 0 
L 581 0 
L 581 4863 
L 1159 4863 
L 1159 2956 
Q 1366 3272 1645 3428 
Q 1925 3584 2291 3584 
Q 2894 3584 3203 3211 
Q 3513 2838 3513 2113 
z
" transform="scale(0.015625)"/>
      <path id="DejaVuSans-5f" d="M 3263 -1063 
L 3263 -1509 
L -63 -1509 
L -63 -1063 
L 3263 -1063 
z
" transform="scale(0.015625)"/>
      <path id="DejaVuSans-6f" d="M 1959 3097 
Q 1497 3097 1228 2736 
Q 959 2375 959 1747 
Q 959 1119 1226 758 
Q 1494 397 1959 397 
Q 2419 397 2687 759 
Q 2956 1122 2956 1747 
Q 2956 2369 2687 2733 
Q 2419 3097 1959 3097 
z
M 1959 3584 
Q 2709 3584 3137 3096 
Q 3566 2609 3566 1747 
Q 3566 888 3137 398 
Q 2709 -91 1959 -91 
Q 1206 -91 779 398 
Q 353 888 353 1747 
Q 353 2609 779 3096 
Q 1206 3584 1959 3584 
z
" transform="scale(0.015625)"/>
      <path id="DejaVuSans-62" d="M 3116 1747 
Q 3116 2381 2855 2742 
Q 2594 3103 2138 3103 
Q 1681 3103 1420 2742 
Q 1159 2381 1159 1747 
Q 1159 1113 1420 752 
Q 1681 391 2138 391 
Q 2594 391 2855 752 
Q 3116 1113 3116 1747 
z
M 1159 2969 
Q 1341 3281 1617 3432 
Q 1894 3584 2278 3584 
Q 2916 3584 3314 3078 
Q 3713 2572 3713 1747 
Q 3713 922 3314 415 
Q 2916 -91 2278 -91 
Q 1894 -91 1617 61 
Q 1341 213 1159 525 
L 1159 0 
L 581 0 
L 581 4863 
L 1159 4863 
L 1159 2969 
z
" transform="scale(0.015625)"/>
      <path id="DejaVuSans-6a" d="M 603 3500 
L 1178 3500 
L 1178 -63 
Q 1178 -731 923 -1031 
Q 669 -1331 103 -1331 
L -116 -1331 
L -116 -844 
L 38 -844 
Q 366 -844 484 -692 
Q 603 -541 603 -63 
L 603 3500 
z
M 603 4863 
L 1178 4863 
L 1178 4134 
L 603 4134 
L 603 4863 
z
" transform="scale(0.015625)"/>
     </defs>
     <use xlink:href="#DejaVuSans-73"/>
     <use xlink:href="#DejaVuSans-65" x="52.099609"/>
     <use xlink:href="#DejaVuSans-61" x="113.623047"/>
     <use xlink:href="#DejaVuSans-72" x="174.902344"/>
     <use xlink:href="#DejaVuSans-63" x="213.765625"/>
     <use xlink:href="#DejaVuSans-68" x="268.746094"/>
     <use xlink:href="#DejaVuSans-5f" x="332.125"/>
     <use xlink:href="#DejaVuSans-6f" x="382.125"/>
     <use xlink:href="#DejaVuSans-62" x="443.306641"/>
     <use xlink:href="#DejaVuSans-6a" x="506.783203"/>
     <use xlink:href="#DejaVuSans-65" x="534.566406"/>
     <use xlink:href="#DejaVuSans-63" x="596.089844"/>
     <use xlink:href="#DejaVuSans-74" x="651.070312"/>
     <use xlink:href="#DejaVuSans-73" x="690.279297"/>
    </g>
   </g>
   <g id="text_4">
    <!-- 4.2% -->
    <g transform="translate(211.382316 159.488938) scale(0.1 -0.1)">
     <defs>
      <path id="DejaVuSans-34" d="M 2419 4116 
L 825 1625 
L 2419 1625 
L 2419 4116 
z
M 2253 4666 
L 3047 4666 
L 3047 1625 
L 3713 1625 
L 3713 1100 
L 3047 1100 
L 3047 0 
L 2419 0 
L 2419 1100 
L 313 1100 
L 313 1709 
L 2253 4666 
z
" transform="scale(0.015625)"/>
      <path id="DejaVuSans-32" d="M 1228 531 
L 3431 531 
L 3431 0 
L 469 0 
L 469 531 
Q 828 903 1448 1529 
Q 2069 2156 2228 2338 
Q 2531 2678 2651 2914 
Q 2772 3150 2772 3378 
Q 2772 3750 2511 3984 
Q 2250 4219 1831 4219 
Q 1534 4219 1204 4116 
Q 875 4013 500 3803 
L 500 4441 
Q 881 4594 1212 4672 
Q 1544 4750 1819 4750 
Q 2544 4750 2975 4387 
Q 3406 4025 3406 3419 
Q 3406 3131 3298 2873 
Q 3191 2616 2906 2266 
Q 2828 2175 2409 1742 
Q 1991 1309 1228 531 
z
" transform="scale(0.015625)"/>
     </defs>
     <use xlink:href="#DejaVuSans-34"/>
     <use xlink:href="#DejaVuSans-2e" x="63.623047"/>
     <use xlink:href="#DejaVuSans-32" x="95.410156"/>
     <use xlink:href="#DejaVuSans-25" x="159.033203"/>
    </g>
   </g>
   <g id="text_5">
    <!-- draw_scan_line -->
    <g transform="translate(271.786147 212.737594) scale(0.1 -0.1)">
     <defs>
      <path id="DejaVuSans-64" d="M 2906 2969 
L 2906 4863 
L 3481 4863 
L 3481 0 
L 2906 0 
L 2906 525 
Q 2725 213 2448 61 
Q 2172 -91 1784 -91 
Q 1150 -91 751 415 
Q 353 922 353 1747 
Q 353 2572 751 3078 
Q 1150 3584 1784 3584 
Q 2172 3584 2448 3432 
Q 2725 3281 2906 2969 
z
M 947 1747 
Q 947 1113 1208 752 
Q 1469 391 1925 391 
Q 2381 391 2643 752 
Q 2906 1113 2906 1747 
Q 2906 2381 2643 2742 
Q 2381 3103 1925 3103 
Q 1469 3103 1208 2742 
Q 947 2381 947 1747 
z
" transform="scale(0.015625)"/>
      <path id="DejaVuSans-77" d="M 269 3500 
L 844 3500 
L 1563 769 
L 2278 3500 
L 2956 3500 
L 3675 769 
L 4391 3500 
L 4966 3500 
L 4050 0 
L 3372 0 
L 2619 2869 
L 1863 0 
L 1184 0 
L 269 3500 
z
" transform="scale(0.015625)"/>
      <path id="DejaVuSans-6c" d="M 603 4863 
L 1178 4863 
L 1178 0 
L 603 0 
L 603 4863 
z
" transform="scale(0.015625)"/>
     </defs>
     <use xlink:href="#DejaVuSans-64"/>
     <use xlink:href="#DejaVuSans-72" x="63.476562"/>
     <use xlink:href="#DejaVuSans-61" x="104.589844"/>
     <use xlink:href="#DejaVuSans-77" x="165.869141"/>
     <use xlink:href="#DejaVuSans-5f" x="247.65625"/>
     <use xlink:href="#DejaVuSans-73" x="297.65625"/>
     <use xlink:href="#DejaVuSans-63" x="349.755859"/>
     <use xlink:href="#DejaVuSans-61" x="404.736328"/>
     <use xlink:href="#DejaVuSans-6e" x="466.015625"/>
     <use xlink:href="#DejaVuSans-5f" x="529.394531"/>
     <use xlink:href="#DejaVuSans-6c" x="579.394531"/>
     <use xlink:href="#DejaVuSans-69" x="607.177734"/>
     <use xlink:href="#DejaVuSans-6e" x="634.960938"/>
     <use xlink:href="#DejaVuSans-65" x="698.339844"/>
    </g>
   </g>
   <g id="text_6">
    <!-- 25.8% -->
    <g transform="translate(249.772411 173.169608) scale(0.1 -0.1)">
     <use xlink:href="#DejaVuSans-32"/>
     <use xlink:href="#DejaVuSans-35" x="63.623047"/>
     <use xlink:href="#DejaVuSans-2e" x="127.246094"/>
     <use xlink:href="#DejaVuSans-38" x="159.033203"/>
     <use xlink:href="#DejaVuSans-25" x="222.65625"/>
    </g>
   </g>
   <g id="text_7">
    <!-- PPU -->
    <g transform="translate(340.073766 159.07542) scale(0.1 -0.1)">
     <defs>
      <path id="DejaVuSans-50" d="M 1259 4147 
L 1259 2394 
L 2053 2394 
Q 2494 2394 2734 2622 
Q 2975 2850 2975 3272 
Q 2975 3691 2734 3919 
Q 2494 4147 2053 4147 
L 1259 4147 
z
M 628 4666 
L 2053 4666 
Q 2838 4666 3239 4311 
Q 3641 3956 3641 3272 
Q 3641 2581 3239 2228 
Q 2838 1875 2053 1875 
L 1259 1875 
L 1259 0 
L 628 0 
L 628 4666 
z
" transform="scale(0.015625)"/>
      <path id="DejaVuSans-55" d="M 556 4666 
L 1191 4666 
L 1191 1831 
Q 1191 1081 1462 751 
Q 1734 422 2344 422 
Q 2950 422 3222 751 
Q 3494 1081 3494 1831 
L 3494 4666 
L 4128 4666 
L 4128 1753 
Q 4128 841 3676 375 
Q 3225 -91 2344 -91 
Q 1459 -91 1007 375 
Q 556 841 556 1753 
L 556 4666 
z
" transform="scale(0.015625)"/>
     </defs>
     <use xlink:href="#DejaVuSans-50"/>
     <use xlink:href="#DejaVuSans-50" x="60.302734"/>
     <use xlink:href="#DejaVuSans-55" x="120.605469"/>
    </g>
   </g>
   <g id="text_8">
    <!-- 6.9% -->
    <g transform="translate(290.201453 143.823479) scale(0.1 -0.1)">
     <defs>
      <path id="DejaVuSans-39" d="M 703 97 
L 703 672 
Q 941 559 1184 500 
Q 1428 441 1663 441 
Q 2288 441 2617 861 
Q 2947 1281 2994 2138 
Q 2813 1869 2534 1725 
Q 2256 1581 1919 1581 
Q 1219 1581 811 2004 
Q 403 2428 403 3163 
Q 403 3881 828 4315 
Q 1253 4750 1959 4750 
Q 2769 4750 3195 4129 
Q 3622 3509 3622 2328 
Q 3622 1225 3098 567 
Q 2575 -91 1691 -91 
Q 1453 -91 1209 -44 
Q 966 3 703 97 
z
M 1959 2075 
Q 2384 2075 2632 2365 
Q 2881 2656 2881 3163 
Q 2881 3666 2632 3958 
Q 2384 4250 1959 4250 
Q 1534 4250 1286 3958 
Q 1038 3666 1038 3163 
Q 1038 2656 1286 2365 
Q 1534 2075 1959 2075 
z
" transform="scale(0.015625)"/>
     </defs>
     <use xlink:href="#DejaVuSans-36"/>
     <use xlink:href="#DejaVuSans-2e" x="63.623047"/>
     <use xlink:href="#DejaVuSans-39" x="95.410156"/>
     <use xlink:href="#DejaVuSans-25" x="159.033203"/>
    </g>
   </g>
   <g id="text_9">
    <!-- Tobu Girl - Intepreter -->
    <g transform="translate(196.077959 16.318125) scale(0.12 -0.12)">
     <defs>
      <path id="DejaVuSans-54" d="M -19 4666 
L 3928 4666 
L 3928 4134 
L 2272 4134 
L 2272 0 
L 1638 0 
L 1638 4134 
L -19 4134 
L -19 4666 
z
" transform="scale(0.015625)"/>
      <path id="DejaVuSans-75" d="M 544 1381 
L 544 3500 
L 1119 3500 
L 1119 1403 
Q 1119 906 1312 657 
Q 1506 409 1894 409 
Q 2359 409 2629 706 
Q 2900 1003 2900 1516 
L 2900 3500 
L 3475 3500 
L 3475 0 
L 2900 0 
L 2900 538 
Q 2691 219 2414 64 
Q 2138 -91 1772 -91 
Q 1169 -91 856 284 
Q 544 659 544 1381 
z
M 1991 3584 
L 1991 3584 
z
" transform="scale(0.015625)"/>
      <path id="DejaVuSans-20" transform="scale(0.015625)"/>
      <path id="DejaVuSans-47" d="M 3809 666 
L 3809 1919 
L 2778 1919 
L 2778 2438 
L 4434 2438 
L 4434 434 
Q 4069 175 3628 42 
Q 3188 -91 2688 -91 
Q 1594 -91 976 548 
Q 359 1188 359 2328 
Q 359 3472 976 4111 
Q 1594 4750 2688 4750 
Q 3144 4750 3555 4637 
Q 3966 4525 4313 4306 
L 4313 3634 
Q 3963 3931 3569 4081 
Q 3175 4231 2741 4231 
Q 1884 4231 1454 3753 
Q 1025 3275 1025 2328 
Q 1025 1384 1454 906 
Q 1884 428 2741 428 
Q 3075 428 3337 486 
Q 3600 544 3809 666 
z
" transform="scale(0.015625)"/>
      <path id="DejaVuSans-2d" d="M 313 2009 
L 1997 2009 
L 1997 1497 
L 313 1497 
L 313 2009 
z
" transform="scale(0.015625)"/>
      <path id="DejaVuSans-49" d="M 628 4666 
L 1259 4666 
L 1259 0 
L 628 0 
L 628 4666 
z
" transform="scale(0.015625)"/>
     </defs>
     <use xlink:href="#DejaVuSans-54"/>
     <use xlink:href="#DejaVuSans-6f" x="44.083984"/>
     <use xlink:href="#DejaVuSans-62" x="105.265625"/>
     <use xlink:href="#DejaVuSans-75" x="168.742188"/>
     <use xlink:href="#DejaVuSans-20" x="232.121094"/>
     <use xlink:href="#DejaVuSans-47" x="263.908203"/>
     <use xlink:href="#DejaVuSans-69" x="341.398438"/>
     <use xlink:href="#DejaVuSans-72" x="369.181641"/>
     <use xlink:href="#DejaVuSans-6c" x="410.294922"/>
     <use xlink:href="#DejaVuSans-20" x="438.078125"/>
     <use xlink:href="#DejaVuSans-2d" x="469.865234"/>
     <use xlink:href="#DejaVuSans-20" x="505.949219"/>
     <use xlink:href="#DejaVuSans-49" x="537.736328"/>
     <use xlink:href="#DejaVuSans-6e" x="567.228516"/>
     <use xlink:href="#DejaVuSans-74" x="630.607422"/>
     <use xlink:href="#DejaVuSans-65" x="669.816406"/>
     <use xlink:href="#DejaVuSans-70" x="731.339844"/>
     <use xlink:href="#DejaVuSans-72" x="794.816406"/>
     <use xlink:href="#DejaVuSans-65" x="833.679688"/>
     <use xlink:href="#DejaVuSans-74" x="895.203125"/>
     <use xlink:href="#DejaVuSans-65" x="934.412109"/>
     <use xlink:href="#DejaVuSans-72" x="995.935547"/>
    </g>
   </g>
  </g>
  <g id="axes_2">
   <g id="patch_11">
    <path d="M 601.171135 122.761775 
C 601.171135 121.73919 601.151615 120.716697 601.112585 119.694857 
C 601.073556 118.673016 601.015025 117.652014 600.937023 116.632407 
L 520.816214 122.761775 
z
" style="fill: #3f3fff"/>
   </g>
   <g id="patch_12">
    <path d="M 600.937023 116.632407 
C 600.314062 108.489286 598.453279 100.488521 595.418896 92.906237 
C 592.384512 85.323954 588.211841 78.248393 583.044891 71.923748 
L 520.816214 122.761775 
z
" style="fill: #7f7fff"/>
   </g>
   <g id="patch_13">
    <path d="M 583.044891 71.923748 
C 579.10957 67.106689 574.6282 62.762823 569.690877 58.979485 
C 564.753554 55.196147 559.393591 51.998861 553.718748 49.451909 
L 520.816214 122.761775 
z
" style="fill: #afafff"/>
   </g>
   <g id="patch_14">
    <path d="M 553.718748 49.451909 
C 548.387941 47.059366 542.812037 45.255397 537.090026 44.072029 
C 531.368016 42.888661 525.533962 42.332938 519.691439 42.414728 
L 520.816214 122.761775 
z
" style="fill: #ff7f7f"/>
   </g>
   <g id="patch_15">
    <path d="M 519.691439 42.414728 
C 509.978089 42.550704 500.369415 44.446967 491.332649 48.011306 
C 482.295883 51.575646 473.979914 56.749338 466.789115 63.280806 
L 520.816214 122.761775 
z
" style="fill: #ff3f3f"/>
   </g>
   <g id="patch_16">
    <path d="M 466.789115 63.280806 
C 464.46722 65.389804 462.270805 67.63295 460.21115 69.998725 
C 458.151496 72.3645 456.232132 74.848848 454.462916 77.439011 
L 520.816214 122.761775 
z
" style="fill: #ff0f0f"/>
   </g>
   <g id="patch_17">
    <path d="M 454.462916 77.439011 
C 451.120942 82.331716 448.33036 87.579088 446.142103 93.085347 
C 443.953847 98.591606 442.381312 104.323046 441.453203 110.175051 
L 520.816214 122.761775 
z
" style="fill: #ff6f0f"/>
   </g>
   <g id="patch_18">
    <path d="M 441.453203 110.175051 
C 438.753076 127.200147 441.601684 144.650495 449.575749 159.933127 
C 457.549814 175.215759 470.233795 187.534275 485.742965 195.058251 
C 501.252135 202.582228 518.778287 204.919579 535.717189 201.722995 
C 552.656091 198.526411 568.125033 189.962471 579.825464 177.303701 
L 520.816214 122.761775 
z
" style="fill: #ff8f3f"/>
   </g>
   <g id="patch_19">
    <path d="M 579.825464 177.303701 
C 585.887717 170.744912 590.81427 163.221065 594.402179 155.042096 
C 597.990087 146.863127 600.1894 138.142907 600.909518 129.240657 
L 520.816214 122.761775 
z
" style="fill: #ffbf7f"/>
   </g>
   <g id="patch_20">
    <path d="M 600.909518 129.240657 
C 600.940298 128.860145 600.968367 128.479418 600.993721 128.098506 
C 601.019075 127.717593 601.041714 127.336505 601.061637 126.95527 
L 520.816214 122.761775 
z
" style="fill: #5faf5f"/>
   </g>
   <g id="patch_21">
    <path d="M 601.061637 126.95527 
C 601.068955 126.815225 601.075907 126.675161 601.082492 126.535079 
C 601.089077 126.394998 601.095296 126.254899 601.101148 126.114785 
L 520.816214 122.761775 
z
" style="fill: #3f9f3f"/>
   </g>
   <g id="patch_22">
    <path d="M 601.101148 126.114785 
C 601.120897 125.641898 601.136468 125.168845 601.147859 124.695682 
C 601.15925 124.22252 601.166461 123.749266 601.169489 123.275976 
L 520.816214 122.761775 
z
" style="fill: #bf7fff"/>
   </g>
   <g id="patch_23">
    <path d="M 601.169489 123.275976 
C 601.170038 123.190277 601.170449 123.104579 601.170723 123.018879 
C 601.170997 122.93318 601.171135 122.84748 601.171135 122.76178 
L 520.816214 122.761775 
z
" style="fill: #8f3fff"/>
   </g>
   <g id="matplotlib.axis_3"/>
   <g id="matplotlib.axis_4"/>
   <g id="text_10">
    <!-- interpreter -->
    <g transform="translate(602.879164 92.680059) scale(0.1 -0.1)">
     <use xlink:href="#DejaVuSans-69"/>
     <use xlink:href="#DejaVuSans-6e" x="27.783203"/>
     <use xlink:href="#DejaVuSans-74" x="91.162109"/>
     <use xlink:href="#DejaVuSans-65" x="130.371094"/>
     <use xlink:href="#DejaVuSans-72" x="191.894531"/>
     <use xlink:href="#DejaVuSans-70" x="233.007812"/>
     <use xlink:href="#DejaVuSans-72" x="296.484375"/>
     <use xlink:href="#DejaVuSans-65" x="335.347656"/>
     <use xlink:href="#DejaVuSans-74" x="396.871094"/>
     <use xlink:href="#DejaVuSans-65" x="436.080078"/>
     <use xlink:href="#DejaVuSans-72" x="497.603516"/>
    </g>
   </g>
   <g id="text_11">
    <!-- 9.7% -->
    <g transform="translate(552.875479 107.607828) scale(0.1 -0.1)">
     <defs>
      <path id="DejaVuSans-37" d="M 525 4666 
L 3525 4666 
L 3525 4397 
L 1831 0 
L 1172 0 
L 2766 4134 
L 525 4134 
L 525 4666 
z
" transform="scale(0.015625)"/>
     </defs>
     <use xlink:href="#DejaVuSans-39"/>
     <use xlink:href="#DejaVuSans-2e" x="63.623047"/>
     <use xlink:href="#DejaVuSans-37" x="95.410156"/>
     <use xlink:href="#DejaVuSans-25" x="159.033203"/>
    </g>
   </g>
   <g id="text_12">
    <!-- interpret_block -->
    <g transform="translate(574.578343 55.221569) scale(0.1 -0.1)">
     <defs>
      <path id="DejaVuSans-6b" d="M 581 4863 
L 1159 4863 
L 1159 1991 
L 2875 3500 
L 3609 3500 
L 1753 1863 
L 3688 0 
L 2938 0 
L 1159 1709 
L 1159 0 
L 581 0 
L 581 4863 
z
" transform="scale(0.015625)"/>
     </defs>
     <use xlink:href="#DejaVuSans-69"/>
     <use xlink:href="#DejaVuSans-6e" x="27.783203"/>
     <use xlink:href="#DejaVuSans-74" x="91.162109"/>
     <use xlink:href="#DejaVuSans-65" x="130.371094"/>
     <use xlink:href="#DejaVuSans-72" x="191.894531"/>
     <use xlink:href="#DejaVuSans-70" x="233.007812"/>
     <use xlink:href="#DejaVuSans-72" x="296.484375"/>
     <use xlink:href="#DejaVuSans-65" x="335.347656"/>
     <use xlink:href="#DejaVuSans-74" x="396.871094"/>
     <use xlink:href="#DejaVuSans-5f" x="436.080078"/>
     <use xlink:href="#DejaVuSans-62" x="486.080078"/>
     <use xlink:href="#DejaVuSans-6c" x="549.556641"/>
     <use xlink:href="#DejaVuSans-6f" x="577.339844"/>
     <use xlink:href="#DejaVuSans-63" x="638.521484"/>
     <use xlink:href="#DejaVuSans-6b" x="693.501953"/>
    </g>
   </g>
   <g id="text_13">
    <!-- 7.4% -->
    <g transform="translate(537.438668 87.251776) scale(0.1 -0.1)">
     <use xlink:href="#DejaVuSans-37"/>
     <use xlink:href="#DejaVuSans-2e" x="63.623047"/>
     <use xlink:href="#DejaVuSans-34" x="95.410156"/>
     <use xlink:href="#DejaVuSans-25" x="159.033203"/>
    </g>
   </g>
   <g id="text_14">
    <!-- get_block -->
    <g transform="translate(538.717408 38.823366) scale(0.1 -0.1)">
     <defs>
      <path id="DejaVuSans-67" d="M 2906 1791 
Q 2906 2416 2648 2759 
Q 2391 3103 1925 3103 
Q 1463 3103 1205 2759 
Q 947 2416 947 1791 
Q 947 1169 1205 825 
Q 1463 481 1925 481 
Q 2391 481 2648 825 
Q 2906 1169 2906 1791 
z
M 3481 434 
Q 3481 -459 3084 -895 
Q 2688 -1331 1869 -1331 
Q 1566 -1331 1297 -1286 
Q 1028 -1241 775 -1147 
L 775 -588 
Q 1028 -725 1275 -790 
Q 1522 -856 1778 -856 
Q 2344 -856 2625 -561 
Q 2906 -266 2906 331 
L 2906 616 
Q 2728 306 2450 153 
Q 2172 0 1784 0 
Q 1141 0 747 490 
Q 353 981 353 1791 
Q 353 2603 747 3093 
Q 1141 3584 1784 3584 
Q 2172 3584 2450 3431 
Q 2728 3278 2906 2969 
L 2906 3500 
L 3481 3500 
L 3481 434 
z
" transform="scale(0.015625)"/>
     </defs>
     <use xlink:href="#DejaVuSans-67"/>
     <use xlink:href="#DejaVuSans-65" x="63.476562"/>
     <use xlink:href="#DejaVuSans-74" x="125"/>
     <use xlink:href="#DejaVuSans-5f" x="164.208984"/>
     <use xlink:href="#DejaVuSans-62" x="214.208984"/>
     <use xlink:href="#DejaVuSans-6c" x="277.685547"/>
     <use xlink:href="#DejaVuSans-6f" x="305.46875"/>
     <use xlink:href="#DejaVuSans-63" x="366.650391"/>
     <use xlink:href="#DejaVuSans-6b" x="421.630859"/>
    </g>
   </g>
   <g id="text_15">
    <!-- 6.9% -->
    <g transform="translate(517.878158 78.307302) scale(0.1 -0.1)">
     <use xlink:href="#DejaVuSans-36"/>
     <use xlink:href="#DejaVuSans-2e" x="63.623047"/>
     <use xlink:href="#DejaVuSans-39" x="95.410156"/>
     <use xlink:href="#DejaVuSans-25" x="159.033203"/>
    </g>
   </g>
   <g id="text_16">
    <!-- compiled -->
    <g transform="translate(442.62023 43.295635) scale(0.1 -0.1)">
     <defs>
      <path id="DejaVuSans-6d" d="M 3328 2828 
Q 3544 3216 3844 3400 
Q 4144 3584 4550 3584 
Q 5097 3584 5394 3201 
Q 5691 2819 5691 2113 
L 5691 0 
L 5113 0 
L 5113 2094 
Q 5113 2597 4934 2840 
Q 4756 3084 4391 3084 
Q 3944 3084 3684 2787 
Q 3425 2491 3425 1978 
L 3425 0 
L 2847 0 
L 2847 2094 
Q 2847 2600 2669 2842 
Q 2491 3084 2119 3084 
Q 1678 3084 1418 2786 
Q 1159 2488 1159 1978 
L 1159 0 
L 581 0 
L 581 3500 
L 1159 3500 
L 1159 2956 
Q 1356 3278 1631 3431 
Q 1906 3584 2284 3584 
Q 2666 3584 2933 3390 
Q 3200 3197 3328 2828 
z
" transform="scale(0.015625)"/>
     </defs>
     <use xlink:href="#DejaVuSans-63"/>
     <use xlink:href="#DejaVuSans-6f" x="54.980469"/>
     <use xlink:href="#DejaVuSans-6d" x="116.162109"/>
     <use xlink:href="#DejaVuSans-70" x="213.574219"/>
     <use xlink:href="#DejaVuSans-69" x="277.050781"/>
     <use xlink:href="#DejaVuSans-6c" x="304.833984"/>
     <use xlink:href="#DejaVuSans-65" x="332.617188"/>
     <use xlink:href="#DejaVuSans-64" x="394.140625"/>
    </g>
   </g>
   <g id="text_17">
    <!-- 11.5% -->
    <g transform="translate(487.242481 80.670869) scale(0.1 -0.1)">
     <defs>
      <path id="DejaVuSans-31" d="M 794 531 
L 1825 531 
L 1825 4091 
L 703 3866 
L 703 4441 
L 1819 4666 
L 2450 4666 
L 2450 531 
L 3481 531 
L 3481 0 
L 794 0 
L 794 531 
z
" transform="scale(0.015625)"/>
     </defs>
     <use xlink:href="#DejaVuSans-31"/>
     <use xlink:href="#DejaVuSans-31" x="63.623047"/>
     <use xlink:href="#DejaVuSans-2e" x="127.246094"/>
     <use xlink:href="#DejaVuSans-35" x="159.033203"/>
     <use xlink:href="#DejaVuSans-25" x="222.65625"/>
    </g>
   </g>
   <g id="text_18">
    <!-- compile_block -->
    <g transform="translate(383.200644 67.342733) scale(0.1 -0.1)">
     <use xlink:href="#DejaVuSans-63"/>
     <use xlink:href="#DejaVuSans-6f" x="54.980469"/>
     <use xlink:href="#DejaVuSans-6d" x="116.162109"/>
     <use xlink:href="#DejaVuSans-70" x="213.574219"/>
     <use xlink:href="#DejaVuSans-69" x="277.050781"/>
     <use xlink:href="#DejaVuSans-6c" x="304.833984"/>
     <use xlink:href="#DejaVuSans-65" x="332.617188"/>
     <use xlink:href="#DejaVuSans-5f" x="394.140625"/>
     <use xlink:href="#DejaVuSans-62" x="444.140625"/>
     <use xlink:href="#DejaVuSans-6c" x="507.617188"/>
     <use xlink:href="#DejaVuSans-6f" x="535.400391"/>
     <use xlink:href="#DejaVuSans-63" x="596.582031"/>
     <use xlink:href="#DejaVuSans-6b" x="651.5625"/>
    </g>
   </g>
   <g id="text_19">
    <!-- 3.7% -->
    <g transform="translate(471.750832 93.86332) scale(0.1 -0.1)">
     <defs>
      <path id="DejaVuSans-33" d="M 2597 2516 
Q 3050 2419 3304 2112 
Q 3559 1806 3559 1356 
Q 3559 666 3084 287 
Q 2609 -91 1734 -91 
Q 1441 -91 1130 -33 
Q 819 25 488 141 
L 488 750 
Q 750 597 1062 519 
Q 1375 441 1716 441 
Q 2309 441 2620 675 
Q 2931 909 2931 1356 
Q 2931 1769 2642 2001 
Q 2353 2234 1838 2234 
L 1294 2234 
L 1294 2753 
L 1863 2753 
Q 2328 2753 2575 2939 
Q 2822 3125 2822 3475 
Q 2822 3834 2567 4026 
Q 2313 4219 1838 4219 
Q 1578 4219 1281 4162 
Q 984 4106 628 3988 
L 628 4550 
Q 988 4650 1302 4700 
Q 1616 4750 1894 4750 
Q 2613 4750 3031 4423 
Q 3450 4097 3450 3541 
Q 3450 3153 3228 2886 
Q 3006 2619 2597 2516 
z
" transform="scale(0.015625)"/>
     </defs>
     <use xlink:href="#DejaVuSans-33"/>
     <use xlink:href="#DejaVuSans-2e" x="63.623047"/>
     <use xlink:href="#DejaVuSans-37" x="95.410156"/>
     <use xlink:href="#DejaVuSans-25" x="159.033203"/>
    </g>
   </g>
   <g id="text_20">
    <!-- search_objects -->
    <g transform="translate(364.43563 92.738017) scale(0.1 -0.1)">
     <use xlink:href="#DejaVuSans-73"/>
     <use xlink:href="#DejaVuSans-65" x="52.099609"/>
     <use xlink:href="#DejaVuSans-61" x="113.623047"/>
     <use xlink:href="#DejaVuSans-72" x="174.902344"/>
     <use xlink:href="#DejaVuSans-63" x="213.765625"/>
     <use xlink:href="#DejaVuSans-68" x="268.746094"/>
     <use xlink:href="#DejaVuSans-5f" x="332.125"/>
     <use xlink:href="#DejaVuSans-6f" x="382.125"/>
     <use xlink:href="#DejaVuSans-62" x="443.306641"/>
     <use xlink:href="#DejaVuSans-6a" x="506.783203"/>
     <use xlink:href="#DejaVuSans-65" x="534.566406"/>
     <use xlink:href="#DejaVuSans-63" x="596.089844"/>
     <use xlink:href="#DejaVuSans-74" x="651.070312"/>
     <use xlink:href="#DejaVuSans-73" x="690.279297"/>
    </g>
   </g>
   <g id="text_21">
    <!-- 7.0% -->
    <g transform="translate(463.309404 107.715294) scale(0.1 -0.1)">
     <defs>
      <path id="DejaVuSans-30" d="M 2034 4250 
Q 1547 4250 1301 3770 
Q 1056 3291 1056 2328 
Q 1056 1369 1301 889 
Q 1547 409 2034 409 
Q 2525 409 2770 889 
Q 3016 1369 3016 2328 
Q 3016 3291 2770 3770 
Q 2525 4250 2034 4250 
z
M 2034 4750 
Q 2819 4750 3233 4129 
Q 3647 3509 3647 2328 
Q 3647 1150 3233 529 
Q 2819 -91 2034 -91 
Q 1250 -91 836 529 
Q 422 1150 422 2328 
Q 422 3509 836 4129 
Q 1250 4750 2034 4750 
z
" transform="scale(0.015625)"/>
     </defs>
     <use xlink:href="#DejaVuSans-37"/>
     <use xlink:href="#DejaVuSans-2e" x="63.623047"/>
     <use xlink:href="#DejaVuSans-30" x="95.410156"/>
     <use xlink:href="#DejaVuSans-25" x="159.033203"/>
    </g>
   </g>
   <g id="text_22">
    <!-- draw_scan_line -->
    <g transform="translate(406.249703 204.908211) scale(0.1 -0.1)">
     <use xlink:href="#DejaVuSans-64"/>
     <use xlink:href="#DejaVuSans-72" x="63.476562"/>
     <use xlink:href="#DejaVuSans-61" x="104.589844"/>
     <use xlink:href="#DejaVuSans-77" x="165.869141"/>
     <use xlink:href="#DejaVuSans-5f" x="247.65625"/>
     <use xlink:href="#DejaVuSans-73" x="297.65625"/>
     <use xlink:href="#DejaVuSans-63" x="349.755859"/>
     <use xlink:href="#DejaVuSans-61" x="404.736328"/>
     <use xlink:href="#DejaVuSans-6e" x="466.015625"/>
     <use xlink:href="#DejaVuSans-5f" x="529.394531"/>
     <use xlink:href="#DejaVuSans-6c" x="579.394531"/>
     <use xlink:href="#DejaVuSans-69" x="607.177734"/>
     <use xlink:href="#DejaVuSans-6e" x="634.960938"/>
     <use xlink:href="#DejaVuSans-65" x="698.339844"/>
    </g>
   </g>
   <g id="text_23">
    <!-- 40.6% -->
    <g transform="translate(483.888671 168.899036) scale(0.1 -0.1)">
     <use xlink:href="#DejaVuSans-34"/>
     <use xlink:href="#DejaVuSans-30" x="63.623047"/>
     <use xlink:href="#DejaVuSans-2e" x="127.246094"/>
     <use xlink:href="#DejaVuSans-36" x="159.033203"/>
     <use xlink:href="#DejaVuSans-25" x="222.65625"/>
    </g>
   </g>
   <g id="text_24">
    <!-- PPU -->
    <g transform="translate(601.760775 161.029503) scale(0.1 -0.1)">
     <use xlink:href="#DejaVuSans-50"/>
     <use xlink:href="#DejaVuSans-50" x="60.302734"/>
     <use xlink:href="#DejaVuSans-55" x="120.605469"/>
    </g>
   </g>
   <g id="text_25">
    <!-- 10.6% -->
    <g transform="translate(549.084199 144.889342) scale(0.1 -0.1)">
     <use xlink:href="#DejaVuSans-31"/>
     <use xlink:href="#DejaVuSans-30" x="63.623047"/>
     <use xlink:href="#DejaVuSans-2e" x="127.246094"/>
     <use xlink:href="#DejaVuSans-36" x="159.033203"/>
     <use xlink:href="#DejaVuSans-25" x="222.65625"/>
    </g>
   </g>
   <g id="text_26">
    <!-- Tobu Girl - JIT -->
    <g transform="translate(481.349339 16.318125) scale(0.12 -0.12)">
     <defs>
      <path id="DejaVuSans-4a" d="M 628 4666 
L 1259 4666 
L 1259 325 
Q 1259 -519 939 -900 
Q 619 -1281 -91 -1281 
L -331 -1281 
L -331 -750 
L -134 -750 
Q 284 -750 456 -515 
Q 628 -281 628 325 
L 628 4666 
z
" transform="scale(0.015625)"/>
     </defs>
     <use xlink:href="#DejaVuSans-54"/>
     <use xlink:href="#DejaVuSans-6f" x="44.083984"/>
     <use xlink:href="#DejaVuSans-62" x="105.265625"/>
     <use xlink:href="#DejaVuSans-75" x="168.742188"/>
     <use xlink:href="#DejaVuSans-20" x="232.121094"/>
     <use xlink:href="#DejaVuSans-47" x="263.908203"/>
     <use xlink:href="#DejaVuSans-69" x="341.398438"/>
     <use xlink:href="#DejaVuSans-72" x="369.181641"/>
     <use xlink:href="#DejaVuSans-6c" x="410.294922"/>
     <use xlink:href="#DejaVuSans-20" x="438.078125"/>
     <use xlink:href="#DejaVuSans-2d" x="469.865234"/>
     <use xlink:href="#DejaVuSans-20" x="505.949219"/>
     <use xlink:href="#DejaVuSans-4a" x="537.736328"/>
     <use xlink:href="#DejaVuSans-49" x="567.228516"/>
     <use xlink:href="#DejaVuSans-54" x="596.720703"/>
    </g>
   </g>
  </g>
  <g id="axes_3">
   <g id="patch_24">
    <path d="M 338.654754 405.361775 
C 338.654754 404.521767 338.641583 403.681811 338.615244 402.842216 
C 338.588905 402.002621 338.549402 401.163491 338.496751 400.325134 
L 258.299834 405.361775 
z
" style="fill: #3f3fff"/>
   </g>
   <g id="patch_25">
    <path d="M 338.496751 400.325134 
C 337.497769 384.418645 331.788608 369.163326 322.099047 356.509205 
C 312.409487 343.855084 299.170761 334.365332 284.075123 329.252987 
C 268.979485 324.140641 252.698766 323.633227 237.314067 327.795605 
C 221.929368 331.957983 208.125383 340.604906 197.666623 352.631073 
L 258.299834 405.361775 
z
" style="fill: #7f7fff"/>
   </g>
   <g id="patch_26">
    <path d="M 197.666623 352.631073 
C 196.347103 354.148344 195.084999 355.714609 193.882978 357.326561 
C 192.680956 358.938512 191.539864 360.595015 190.462111 362.292569 
L 258.299834 405.361775 
z
" style="fill: #ff6f0f"/>
   </g>
   <g id="patch_27">
    <path d="M 190.462111 362.292569 
C 185.797732 369.639369 182.357661 377.695344 180.276517 386.14524 
C 178.195374 394.595135 177.500664 403.327271 178.219574 411.999933 
L 258.299834 405.361775 
z
" style="fill: #ff8f3f"/>
   </g>
   <g id="patch_28">
    <path d="M 178.219574 411.999933 
C 179.76793 430.678728 187.803802 448.239713 200.92657 461.62208 
C 214.049338 475.004446 231.449558 483.382739 250.094442 485.296654 
C 268.739326 487.210569 287.478814 482.542052 303.046688 472.104807 
C 318.614561 461.667563 330.050558 446.105383 335.36143 428.130695 
L 258.299834 405.361775 
z
" style="fill: #ffbf7f"/>
   </g>
   <g id="patch_29">
    <path d="M 335.36143 428.130695 
C 335.62911 427.22473 335.880793 426.314114 336.116361 425.399274 
C 336.35193 424.484433 336.571347 423.565509 336.774511 422.642931 
L 258.299834 405.361775 
z
" style="fill: #5faf5f"/>
   </g>
   <g id="patch_30">
    <path d="M 336.774511 422.642931 
C 336.77793 422.627405 336.781344 422.611877 336.784754 422.596348 
C 336.788164 422.580819 336.79157 422.565289 336.794971 422.549758 
L 258.299834 405.361775 
z
" style="fill: #3f9f3f"/>
   </g>
   <g id="patch_31">
    <path d="M 336.794971 422.549758 
C 337.412362 419.730217 337.877389 416.879458 338.188028 414.009878 
C 338.498667 411.140299 338.654469 408.256065 338.654754 405.36972 
L 258.299834 405.361775 
z
" style="fill: #bf7fff"/>
   </g>
   <g id="patch_32">
    <path d="M 338.654754 405.36972 
C 338.654754 405.368395 338.654754 405.367071 338.654754 405.365746 
C 338.654754 405.364421 338.654754 405.363096 338.654754 405.361771 
L 258.299834 405.361775 
z
" style="fill: #8f3fff"/>
   </g>
   <g id="matplotlib.axis_5"/>
   <g id="matplotlib.axis_6"/>
   <g id="text_27">
    <!-- interpreter -->
    <g transform="translate(286.652652 324.401483) scale(0.1 -0.1)">
     <use xlink:href="#DejaVuSans-69"/>
     <use xlink:href="#DejaVuSans-6e" x="27.783203"/>
     <use xlink:href="#DejaVuSans-74" x="91.162109"/>
     <use xlink:href="#DejaVuSans-65" x="130.371094"/>
     <use xlink:href="#DejaVuSans-72" x="191.894531"/>
     <use xlink:href="#DejaVuSans-70" x="233.007812"/>
     <use xlink:href="#DejaVuSans-72" x="296.484375"/>
     <use xlink:href="#DejaVuSans-65" x="335.347656"/>
     <use xlink:href="#DejaVuSans-74" x="396.871094"/>
     <use xlink:href="#DejaVuSans-65" x="436.080078"/>
     <use xlink:href="#DejaVuSans-72" x="497.603516"/>
    </g>
   </g>
   <g id="text_28">
    <!-- 37.6% -->
    <g transform="translate(257.881413 362.455877) scale(0.1 -0.1)">
     <use xlink:href="#DejaVuSans-33"/>
     <use xlink:href="#DejaVuSans-37" x="63.623047"/>
     <use xlink:href="#DejaVuSans-2e" x="127.246094"/>
     <use xlink:href="#DejaVuSans-36" x="159.033203"/>
     <use xlink:href="#DejaVuSans-25" x="222.65625"/>
    </g>
   </g>
   <g id="text_29">
    <!-- draw_scan_line -->
    <g transform="translate(96.488248 386.843899) scale(0.1 -0.1)">
     <use xlink:href="#DejaVuSans-64"/>
     <use xlink:href="#DejaVuSans-72" x="63.476562"/>
     <use xlink:href="#DejaVuSans-61" x="104.589844"/>
     <use xlink:href="#DejaVuSans-77" x="165.869141"/>
     <use xlink:href="#DejaVuSans-5f" x="247.65625"/>
     <use xlink:href="#DejaVuSans-73" x="297.65625"/>
     <use xlink:href="#DejaVuSans-63" x="349.755859"/>
     <use xlink:href="#DejaVuSans-61" x="404.736328"/>
     <use xlink:href="#DejaVuSans-6e" x="466.015625"/>
     <use xlink:href="#DejaVuSans-5f" x="529.394531"/>
     <use xlink:href="#DejaVuSans-6c" x="579.394531"/>
     <use xlink:href="#DejaVuSans-69" x="607.177734"/>
     <use xlink:href="#DejaVuSans-6e" x="634.960938"/>
     <use xlink:href="#DejaVuSans-65" x="698.339844"/>
    </g>
   </g>
   <g id="text_30">
    <!-- 10.3% -->
    <g transform="translate(195.60225 396.591229) scale(0.1 -0.1)">
     <use xlink:href="#DejaVuSans-31"/>
     <use xlink:href="#DejaVuSans-30" x="63.623047"/>
     <use xlink:href="#DejaVuSans-2e" x="127.246094"/>
     <use xlink:href="#DejaVuSans-33" x="159.033203"/>
     <use xlink:href="#DejaVuSans-25" x="222.65625"/>
    </g>
   </g>
   <g id="text_31">
    <!-- PPU -->
    <g transform="translate(229.895778 496.049517) scale(0.1 -0.1)">
     <use xlink:href="#DejaVuSans-50"/>
     <use xlink:href="#DejaVuSans-50" x="60.302734"/>
     <use xlink:href="#DejaVuSans-55" x="120.605469"/>
    </g>
   </g>
   <g id="text_32">
    <!-- 44.1% -->
    <g transform="translate(237.493005 456.082077) scale(0.1 -0.1)">
     <use xlink:href="#DejaVuSans-34"/>
     <use xlink:href="#DejaVuSans-34" x="63.623047"/>
     <use xlink:href="#DejaVuSans-2e" x="127.246094"/>
     <use xlink:href="#DejaVuSans-31" x="159.033203"/>
     <use xlink:href="#DejaVuSans-25" x="222.65625"/>
    </g>
   </g>
   <g id="text_33">
    <!-- Zelda - Intepreter -->
    <g transform="translate(205.407021 298.918125) scale(0.12 -0.12)">
     <defs>
      <path id="DejaVuSans-5a" d="M 359 4666 
L 4025 4666 
L 4025 4184 
L 1075 531 
L 4097 531 
L 4097 0 
L 288 0 
L 288 481 
L 3238 4134 
L 359 4134 
L 359 4666 
z
" transform="scale(0.015625)"/>
     </defs>
     <use xlink:href="#DejaVuSans-5a"/>
     <use xlink:href="#DejaVuSans-65" x="68.505859"/>
     <use xlink:href="#DejaVuSans-6c" x="130.029297"/>
     <use xlink:href="#DejaVuSans-64" x="157.8125"/>
     <use xlink:href="#DejaVuSans-61" x="221.289062"/>
     <use xlink:href="#DejaVuSans-20" x="282.568359"/>
     <use xlink:href="#DejaVuSans-2d" x="314.355469"/>
     <use xlink:href="#DejaVuSans-20" x="350.439453"/>
     <use xlink:href="#DejaVuSans-49" x="382.226562"/>
     <use xlink:href="#DejaVuSans-6e" x="411.71875"/>
     <use xlink:href="#DejaVuSans-74" x="475.097656"/>
     <use xlink:href="#DejaVuSans-65" x="514.306641"/>
     <use xlink:href="#DejaVuSans-70" x="575.830078"/>
     <use xlink:href="#DejaVuSans-72" x="639.306641"/>
     <use xlink:href="#DejaVuSans-65" x="678.169922"/>
     <use xlink:href="#DejaVuSans-74" x="739.693359"/>
     <use xlink:href="#DejaVuSans-65" x="778.902344"/>
     <use xlink:href="#DejaVuSans-72" x="840.425781"/>
    </g>
   </g>
  </g>
  <g id="axes_4">
   <g id="patch_33">
    <path d="M 601.171135 405.361775 
C 601.171135 405.022393 601.168984 404.683014 601.164684 404.343658 
C 601.160384 404.004303 601.153934 403.664978 601.145335 403.325704 
L 520.816214 405.361775 
z
" style="fill: #3f3fff"/>
   </g>
   <g id="patch_34">
    <path d="M 601.145335 403.325704 
C 601.090468 401.161025 600.948123 398.999447 600.71865 396.846266 
C 600.489178 394.693084 600.172764 392.550058 599.770184 390.422436 
L 520.816214 405.361775 
z
" style="fill: #7f7fff"/>
   </g>
   <g id="patch_35">
    <path d="M 599.770184 390.422436 
C 599.45435 388.753263 599.085663 387.094525 598.66468 385.448724 
C 598.243696 383.802923 597.770628 382.170886 597.246187 380.555073 
L 520.816214 405.361775 
z
" style="fill: #afafff"/>
   </g>
   <g id="patch_36">
    <path d="M 597.246187 380.555073 
C 596.629573 378.655273 595.94234 376.779124 595.185918 374.930536 
C 594.429497 373.081948 593.604414 371.262205 592.712388 369.475101 
L 520.816214 405.361775 
z
" style="fill: #ff7f7f"/>
   </g>
   <g id="patch_37">
    <path d="M 592.712388 369.475101 
C 590.22482 364.491452 587.225801 359.779928 583.763734 355.416576 
C 580.301667 351.053223 576.39528 347.061643 572.107622 343.506261 
L 520.816214 405.361775 
z
" style="fill: #ff3f3f"/>
   </g>
   <g id="patch_38">
    <path d="M 572.107622 343.506261 
C 571.281646 342.821351 570.442035 342.153054 569.589293 341.501772 
C 568.736551 340.850491 567.870849 340.216355 566.992709 339.599746 
L 520.816214 405.361775 
z
" style="fill: #ff0f0f"/>
   </g>
   <g id="patch_39">
    <path d="M 566.992709 339.599746 
C 564.727491 338.009165 562.381603 336.536686 559.964426 335.1882 
C 557.547249 333.839713 555.062012 332.617018 552.518654 331.525006 
L 520.816214 405.361775 
z
" style="fill: #ff6f0f"/>
   </g>
   <g id="patch_40">
    <path d="M 552.518654 331.525006 
C 540.888655 326.531568 528.241753 324.355813 515.611658 325.175581 
C 502.981563 325.995348 490.722024 329.787677 479.835091 336.242598 
L 520.816214 405.361775 
z
" style="fill: #ff8f3f"/>
   </g>
   <g id="patch_41">
    <path d="M 479.835091 336.242598 
C 468.073069 343.216362 458.283514 353.078383 451.396683 364.891515 
C 444.509853 376.704647 440.751025 390.082467 440.477385 403.753738 
C 440.203745 417.425009 443.424244 430.942525 449.832852 443.021775 
C 456.24146 455.101025 465.628543 465.346879 477.102086 472.785719 
C 488.575629 480.224559 501.760317 484.61305 515.403266 485.534172 
C 529.046215 486.455295 542.701146 483.878917 555.070489 478.049862 
C 567.439832 472.220806 578.118969 463.32975 586.093107 452.221571 
C 594.067246 441.113392 599.075541 428.151454 600.642077 414.567475 
L 520.816214 405.361775 
z
" style="fill: #ffbf7f"/>
   </g>
   <g id="patch_42">
    <path d="M 600.642077 414.567475 
C 600.798305 413.212762 600.920023 411.854292 601.00711 410.493384 
C 601.094198 409.132476 601.146628 407.769572 601.164349 406.405996 
L 520.816214 405.361775 
z
" style="fill: #5faf5f"/>
   </g>
   <g id="patch_43">
    <path d="M 601.164349 406.405996 
C 601.164485 406.395554 601.164619 406.385113 601.16475 406.374671 
C 601.164882 406.364229 601.165012 406.353788 601.165139 406.343346 
L 520.816214 405.361775 
z
" style="fill: #3f9f3f"/>
   </g>
   <g id="patch_44">
    <path d="M 601.165139 406.343346 
C 601.166766 406.210214 601.168061 406.077078 601.169026 405.943939 
C 601.16999 405.810801 601.170624 405.67766 601.170927 405.544518 
L 520.816214 405.361775 
z
" style="fill: #bf7fff"/>
   </g>
   <g id="patch_45">
    <path d="M 601.170927 405.544518 
C 601.170996 405.514061 601.171048 405.483604 601.171083 405.453146 
C 601.171117 405.422689 601.171135 405.392232 601.171135 405.361775 
L 520.816214 405.361775 
z
" style="fill: #8f3fff"/>
   </g>
   <g id="matplotlib.axis_7"/>
   <g id="matplotlib.axis_8"/>
   <g id="text_34">
    <!-- compiled -->
    <g transform="translate(590.058486 353.181431) scale(0.1 -0.1)">
     <use xlink:href="#DejaVuSans-63"/>
     <use xlink:href="#DejaVuSans-6f" x="54.980469"/>
     <use xlink:href="#DejaVuSans-6d" x="116.162109"/>
     <use xlink:href="#DejaVuSans-70" x="213.574219"/>
     <use xlink:href="#DejaVuSans-69" x="277.050781"/>
     <use xlink:href="#DejaVuSans-6c" x="304.833984"/>
     <use xlink:href="#DejaVuSans-65" x="332.617188"/>
     <use xlink:href="#DejaVuSans-64" x="394.140625"/>
    </g>
   </g>
   <g id="text_35">
    <!-- 6.6% -->
    <g transform="translate(545.882382 378.154031) scale(0.1 -0.1)">
     <use xlink:href="#DejaVuSans-36"/>
     <use xlink:href="#DejaVuSans-2e" x="63.623047"/>
     <use xlink:href="#DejaVuSans-36" x="95.410156"/>
     <use xlink:href="#DejaVuSans-25" x="159.033203"/>
    </g>
   </g>
   <g id="text_36">
    <!-- draw_scan_line -->
    <g transform="translate(439.105264 319.777274) scale(0.1 -0.1)">
     <use xlink:href="#DejaVuSans-64"/>
     <use xlink:href="#DejaVuSans-72" x="63.476562"/>
     <use xlink:href="#DejaVuSans-61" x="104.589844"/>
     <use xlink:href="#DejaVuSans-77" x="165.869141"/>
     <use xlink:href="#DejaVuSans-5f" x="247.65625"/>
     <use xlink:href="#DejaVuSans-73" x="297.65625"/>
     <use xlink:href="#DejaVuSans-63" x="349.755859"/>
     <use xlink:href="#DejaVuSans-61" x="404.736328"/>
     <use xlink:href="#DejaVuSans-6e" x="466.015625"/>
     <use xlink:href="#DejaVuSans-5f" x="529.394531"/>
     <use xlink:href="#DejaVuSans-6c" x="579.394531"/>
     <use xlink:href="#DejaVuSans-69" x="607.177734"/>
     <use xlink:href="#DejaVuSans-6e" x="634.960938"/>
     <use xlink:href="#DejaVuSans-65" x="698.339844"/>
    </g>
   </g>
   <g id="text_37">
    <!-- 15.0% -->
    <g transform="translate(501.809886 360.009434) scale(0.1 -0.1)">
     <use xlink:href="#DejaVuSans-31"/>
     <use xlink:href="#DejaVuSans-35" x="63.623047"/>
     <use xlink:href="#DejaVuSans-2e" x="127.246094"/>
     <use xlink:href="#DejaVuSans-30" x="159.033203"/>
     <use xlink:href="#DejaVuSans-25" x="222.65625"/>
    </g>
   </g>
   <g id="text_38">
    <!-- PPU -->
    <g transform="translate(453.352548 482.287489) scale(0.1 -0.1)">
     <use xlink:href="#DejaVuSans-50"/>
     <use xlink:href="#DejaVuSans-50" x="60.302734"/>
     <use xlink:href="#DejaVuSans-55" x="120.605469"/>
    </g>
   </g>
   <g id="text_39">
    <!-- 64.7% -->
    <g transform="translate(478.704143 448.575517) scale(0.1 -0.1)">
     <use xlink:href="#DejaVuSans-36"/>
     <use xlink:href="#DejaVuSans-34" x="63.623047"/>
     <use xlink:href="#DejaVuSans-2e" x="127.246094"/>
     <use xlink:href="#DejaVuSans-37" x="159.033203"/>
     <use xlink:href="#DejaVuSans-25" x="222.65625"/>
    </g>
   </g>
   <g id="text_40">
    <!-- Zelda - JIT -->
    <g transform="translate(490.678402 298.918125) scale(0.12 -0.12)">
     <use xlink:href="#DejaVuSans-5a"/>
     <use xlink:href="#DejaVuSans-65" x="68.505859"/>
     <use xlink:href="#DejaVuSans-6c" x="130.029297"/>
     <use xlink:href="#DejaVuSans-64" x="157.8125"/>
     <use xlink:href="#DejaVuSans-61" x="221.289062"/>
     <use xlink:href="#DejaVuSans-20" x="282.568359"/>
     <use xlink:href="#DejaVuSans-2d" x="314.355469"/>
     <use xlink:href="#DejaVuSans-20" x="350.439453"/>
     <use xlink:href="#DejaVuSans-4a" x="382.226562"/>
     <use xlink:href="#DejaVuSans-49" x="411.71875"/>
     <use xlink:href="#DejaVuSans-54" x="441.210938"/>
    </g>
   </g>
  </g>
  <g id="legend_1">
   <g id="patch_46">
    <path d="M 9.2 354.3449 
L 121.875 354.3449 
Q 123.875 354.3449 123.875 352.3449 
L 123.875 161.13865 
Q 123.875 159.13865 121.875 159.13865 
L 9.2 159.13865 
Q 7.2 159.13865 7.2 161.13865 
L 7.2 352.3449 
Q 7.2 354.3449 9.2 354.3449 
z
" style="fill: #ffffff; opacity: 0.8; stroke: #cccccc; stroke-linejoin: miter"/>
   </g>
   <g id="patch_47">
    <path d="M 11.2 170.737088 
L 31.2 170.737088 
L 31.2 163.737088 
L 11.2 163.737088 
z
" style="fill: #3f3fff"/>
   </g>
   <g id="text_41">
    <!-- other -->
    <g transform="translate(39.2 170.737088) scale(0.1 -0.1)">
     <use xlink:href="#DejaVuSans-6f"/>
     <use xlink:href="#DejaVuSans-74" x="61.181641"/>
     <use xlink:href="#DejaVuSans-68" x="100.390625"/>
     <use xlink:href="#DejaVuSans-65" x="163.769531"/>
     <use xlink:href="#DejaVuSans-72" x="225.292969"/>
    </g>
   </g>
   <g id="patch_48">
    <path d="M 11.2 185.415213 
L 31.2 185.415213 
L 31.2 178.415213 
L 11.2 178.415213 
z
" style="fill: #7f7fff"/>
   </g>
   <g id="text_42">
    <!-- interpreter -->
    <g transform="translate(39.2 185.415213) scale(0.1 -0.1)">
     <use xlink:href="#DejaVuSans-69"/>
     <use xlink:href="#DejaVuSans-6e" x="27.783203"/>
     <use xlink:href="#DejaVuSans-74" x="91.162109"/>
     <use xlink:href="#DejaVuSans-65" x="130.371094"/>
     <use xlink:href="#DejaVuSans-72" x="191.894531"/>
     <use xlink:href="#DejaVuSans-70" x="233.007812"/>
     <use xlink:href="#DejaVuSans-72" x="296.484375"/>
     <use xlink:href="#DejaVuSans-65" x="335.347656"/>
     <use xlink:href="#DejaVuSans-74" x="396.871094"/>
     <use xlink:href="#DejaVuSans-65" x="436.080078"/>
     <use xlink:href="#DejaVuSans-72" x="497.603516"/>
    </g>
   </g>
   <g id="patch_49">
    <path d="M 11.2 200.093338 
L 31.2 200.093338 
L 31.2 193.093338 
L 11.2 193.093338 
z
" style="fill: #afafff"/>
   </g>
   <g id="text_43">
    <!-- interpret_block -->
    <g transform="translate(39.2 200.093338) scale(0.1 -0.1)">
     <use xlink:href="#DejaVuSans-69"/>
     <use xlink:href="#DejaVuSans-6e" x="27.783203"/>
     <use xlink:href="#DejaVuSans-74" x="91.162109"/>
     <use xlink:href="#DejaVuSans-65" x="130.371094"/>
     <use xlink:href="#DejaVuSans-72" x="191.894531"/>
     <use xlink:href="#DejaVuSans-70" x="233.007812"/>
     <use xlink:href="#DejaVuSans-72" x="296.484375"/>
     <use xlink:href="#DejaVuSans-65" x="335.347656"/>
     <use xlink:href="#DejaVuSans-74" x="396.871094"/>
     <use xlink:href="#DejaVuSans-5f" x="436.080078"/>
     <use xlink:href="#DejaVuSans-62" x="486.080078"/>
     <use xlink:href="#DejaVuSans-6c" x="549.556641"/>
     <use xlink:href="#DejaVuSans-6f" x="577.339844"/>
     <use xlink:href="#DejaVuSans-63" x="638.521484"/>
     <use xlink:href="#DejaVuSans-6b" x="693.501953"/>
    </g>
   </g>
   <g id="patch_50">
    <path d="M 11.2 215.049588 
L 31.2 215.049588 
L 31.2 208.049588 
L 11.2 208.049588 
z
" style="fill: #ff7f7f"/>
   </g>
   <g id="text_44">
    <!-- get_block -->
    <g transform="translate(39.2 215.049588) scale(0.1 -0.1)">
     <use xlink:href="#DejaVuSans-67"/>
     <use xlink:href="#DejaVuSans-65" x="63.476562"/>
     <use xlink:href="#DejaVuSans-74" x="125"/>
     <use xlink:href="#DejaVuSans-5f" x="164.208984"/>
     <use xlink:href="#DejaVuSans-62" x="214.208984"/>
     <use xlink:href="#DejaVuSans-6c" x="277.685547"/>
     <use xlink:href="#DejaVuSans-6f" x="305.46875"/>
     <use xlink:href="#DejaVuSans-63" x="366.650391"/>
     <use xlink:href="#DejaVuSans-6b" x="421.630859"/>
    </g>
   </g>
   <g id="patch_51">
    <path d="M 11.2 230.005838 
L 31.2 230.005838 
L 31.2 223.005838 
L 11.2 223.005838 
z
" style="fill: #ff3f3f"/>
   </g>
   <g id="text_45">
    <!-- compiled -->
    <g transform="translate(39.2 230.005838) scale(0.1 -0.1)">
     <use xlink:href="#DejaVuSans-63"/>
     <use xlink:href="#DejaVuSans-6f" x="54.980469"/>
     <use xlink:href="#DejaVuSans-6d" x="116.162109"/>
     <use xlink:href="#DejaVuSans-70" x="213.574219"/>
     <use xlink:href="#DejaVuSans-69" x="277.050781"/>
     <use xlink:href="#DejaVuSans-6c" x="304.833984"/>
     <use xlink:href="#DejaVuSans-65" x="332.617188"/>
     <use xlink:href="#DejaVuSans-64" x="394.140625"/>
    </g>
   </g>
   <g id="patch_52">
    <path d="M 11.2 244.683963 
L 31.2 244.683963 
L 31.2 237.683963 
L 11.2 237.683963 
z
" style="fill: #ff0f0f"/>
   </g>
   <g id="text_46">
    <!-- compile_block -->
    <g transform="translate(39.2 244.683963) scale(0.1 -0.1)">
     <use xlink:href="#DejaVuSans-63"/>
     <use xlink:href="#DejaVuSans-6f" x="54.980469"/>
     <use xlink:href="#DejaVuSans-6d" x="116.162109"/>
     <use xlink:href="#DejaVuSans-70" x="213.574219"/>
     <use xlink:href="#DejaVuSans-69" x="277.050781"/>
     <use xlink:href="#DejaVuSans-6c" x="304.833984"/>
     <use xlink:href="#DejaVuSans-65" x="332.617188"/>
     <use xlink:href="#DejaVuSans-5f" x="394.140625"/>
     <use xlink:href="#DejaVuSans-62" x="444.140625"/>
     <use xlink:href="#DejaVuSans-6c" x="507.617188"/>
     <use xlink:href="#DejaVuSans-6f" x="535.400391"/>
     <use xlink:href="#DejaVuSans-63" x="596.582031"/>
     <use xlink:href="#DejaVuSans-6b" x="651.5625"/>
    </g>
   </g>
   <g id="patch_53">
    <path d="M 11.2 259.640213 
L 31.2 259.640213 
L 31.2 252.640213 
L 11.2 252.640213 
z
" style="fill: #ff6f0f"/>
   </g>
   <g id="text_47">
    <!-- search_objects -->
    <g transform="translate(39.2 259.640213) scale(0.1 -0.1)">
     <use xlink:href="#DejaVuSans-73"/>
     <use xlink:href="#DejaVuSans-65" x="52.099609"/>
     <use xlink:href="#DejaVuSans-61" x="113.623047"/>
     <use xlink:href="#DejaVuSans-72" x="174.902344"/>
     <use xlink:href="#DejaVuSans-63" x="213.765625"/>
     <use xlink:href="#DejaVuSans-68" x="268.746094"/>
     <use xlink:href="#DejaVuSans-5f" x="332.125"/>
     <use xlink:href="#DejaVuSans-6f" x="382.125"/>
     <use xlink:href="#DejaVuSans-62" x="443.306641"/>
     <use xlink:href="#DejaVuSans-6a" x="506.783203"/>
     <use xlink:href="#DejaVuSans-65" x="534.566406"/>
     <use xlink:href="#DejaVuSans-63" x="596.089844"/>
     <use xlink:href="#DejaVuSans-74" x="651.070312"/>
     <use xlink:href="#DejaVuSans-73" x="690.279297"/>
    </g>
   </g>
   <g id="patch_54">
    <path d="M 11.2 274.596463 
L 31.2 274.596463 
L 31.2 267.596463 
L 11.2 267.596463 
z
" style="fill: #ff8f3f"/>
   </g>
   <g id="text_48">
    <!-- draw_scan_line -->
    <g transform="translate(39.2 274.596463) scale(0.1 -0.1)">
     <use xlink:href="#DejaVuSans-64"/>
     <use xlink:href="#DejaVuSans-72" x="63.476562"/>
     <use xlink:href="#DejaVuSans-61" x="104.589844"/>
     <use xlink:href="#DejaVuSans-77" x="165.869141"/>
     <use xlink:href="#DejaVuSans-5f" x="247.65625"/>
     <use xlink:href="#DejaVuSans-73" x="297.65625"/>
     <use xlink:href="#DejaVuSans-63" x="349.755859"/>
     <use xlink:href="#DejaVuSans-61" x="404.736328"/>
     <use xlink:href="#DejaVuSans-6e" x="466.015625"/>
     <use xlink:href="#DejaVuSans-5f" x="529.394531"/>
     <use xlink:href="#DejaVuSans-6c" x="579.394531"/>
     <use xlink:href="#DejaVuSans-69" x="607.177734"/>
     <use xlink:href="#DejaVuSans-6e" x="634.960938"/>
     <use xlink:href="#DejaVuSans-65" x="698.339844"/>
    </g>
   </g>
   <g id="patch_55">
    <path d="M 11.2 289.552713 
L 31.2 289.552713 
L 31.2 282.552713 
L 11.2 282.552713 
z
" style="fill: #ffbf7f"/>
   </g>
   <g id="text_49">
    <!-- PPU -->
    <g transform="translate(39.2 289.552713) scale(0.1 -0.1)">
     <use xlink:href="#DejaVuSans-50"/>
     <use xlink:href="#DejaVuSans-50" x="60.302734"/>
     <use xlink:href="#DejaVuSans-55" x="120.605469"/>
    </g>
   </g>
   <g id="patch_56">
    <path d="M 11.2 304.230838 
L 31.2 304.230838 
L 31.2 297.230838 
L 11.2 297.230838 
z
" style="fill: #5faf5f"/>
   </g>
   <g id="text_50">
    <!-- SoundController -->
    <g transform="translate(39.2 304.230838) scale(0.1 -0.1)">
     <defs>
      <path id="DejaVuSans-53" d="M 3425 4513 
L 3425 3897 
Q 3066 4069 2747 4153 
Q 2428 4238 2131 4238 
Q 1616 4238 1336 4038 
Q 1056 3838 1056 3469 
Q 1056 3159 1242 3001 
Q 1428 2844 1947 2747 
L 2328 2669 
Q 3034 2534 3370 2195 
Q 3706 1856 3706 1288 
Q 3706 609 3251 259 
Q 2797 -91 1919 -91 
Q 1588 -91 1214 -16 
Q 841 59 441 206 
L 441 856 
Q 825 641 1194 531 
Q 1563 422 1919 422 
Q 2459 422 2753 634 
Q 3047 847 3047 1241 
Q 3047 1584 2836 1778 
Q 2625 1972 2144 2069 
L 1759 2144 
Q 1053 2284 737 2584 
Q 422 2884 422 3419 
Q 422 4038 858 4394 
Q 1294 4750 2059 4750 
Q 2388 4750 2728 4690 
Q 3069 4631 3425 4513 
z
" transform="scale(0.015625)"/>
      <path id="DejaVuSans-43" d="M 4122 4306 
L 4122 3641 
Q 3803 3938 3442 4084 
Q 3081 4231 2675 4231 
Q 1875 4231 1450 3742 
Q 1025 3253 1025 2328 
Q 1025 1406 1450 917 
Q 1875 428 2675 428 
Q 3081 428 3442 575 
Q 3803 722 4122 1019 
L 4122 359 
Q 3791 134 3420 21 
Q 3050 -91 2638 -91 
Q 1578 -91 968 557 
Q 359 1206 359 2328 
Q 359 3453 968 4101 
Q 1578 4750 2638 4750 
Q 3056 4750 3426 4639 
Q 3797 4528 4122 4306 
z
" transform="scale(0.015625)"/>
     </defs>
     <use xlink:href="#DejaVuSans-53"/>
     <use xlink:href="#DejaVuSans-6f" x="63.476562"/>
     <use xlink:href="#DejaVuSans-75" x="124.658203"/>
     <use xlink:href="#DejaVuSans-6e" x="188.037109"/>
     <use xlink:href="#DejaVuSans-64" x="251.416016"/>
     <use xlink:href="#DejaVuSans-43" x="314.892578"/>
     <use xlink:href="#DejaVuSans-6f" x="384.716797"/>
     <use xlink:href="#DejaVuSans-6e" x="445.898438"/>
     <use xlink:href="#DejaVuSans-74" x="509.277344"/>
     <use xlink:href="#DejaVuSans-72" x="548.486328"/>
     <use xlink:href="#DejaVuSans-6f" x="587.349609"/>
     <use xlink:href="#DejaVuSans-6c" x="648.53125"/>
     <use xlink:href="#DejaVuSans-6c" x="676.314453"/>
     <use xlink:href="#DejaVuSans-65" x="704.097656"/>
     <use xlink:href="#DejaVuSans-72" x="765.621094"/>
    </g>
   </g>
   <g id="patch_57">
    <path d="M 11.2 318.908963 
L 31.2 318.908963 
L 31.2 311.908963 
L 11.2 311.908963 
z
" style="fill: #3f9f3f"/>
   </g>
   <g id="text_51">
    <!-- Timer -->
    <g transform="translate(39.2 318.908963) scale(0.1 -0.1)">
     <use xlink:href="#DejaVuSans-54"/>
     <use xlink:href="#DejaVuSans-69" x="57.958984"/>
     <use xlink:href="#DejaVuSans-6d" x="85.742188"/>
     <use xlink:href="#DejaVuSans-65" x="183.154297"/>
     <use xlink:href="#DejaVuSans-72" x="244.677734"/>
    </g>
   </g>
   <g id="patch_58">
    <path d="M 11.2 333.587088 
L 31.2 333.587088 
L 31.2 326.587088 
L 11.2 326.587088 
z
" style="fill: #bf7fff"/>
   </g>
   <g id="text_52">
    <!-- trace -->
    <g transform="translate(39.2 333.587088) scale(0.1 -0.1)">
     <use xlink:href="#DejaVuSans-74"/>
     <use xlink:href="#DejaVuSans-72" x="39.208984"/>
     <use xlink:href="#DejaVuSans-61" x="80.322266"/>
     <use xlink:href="#DejaVuSans-63" x="141.601562"/>
     <use xlink:href="#DejaVuSans-65" x="196.582031"/>
    </g>
   </g>
   <g id="patch_59">
    <path d="M 11.2 348.265213 
L 31.2 348.265213 
L 31.2 341.265213 
L 11.2 341.265213 
z
" style="fill: #8f3fff"/>
   </g>
   <g id="text_53">
    <!-- format -->
    <g transform="translate(39.2 348.265213) scale(0.1 -0.1)">
     <defs>
      <path id="DejaVuSans-66" d="M 2375 4863 
L 2375 4384 
L 1825 4384 
Q 1516 4384 1395 4259 
Q 1275 4134 1275 3809 
L 1275 3500 
L 2222 3500 
L 2222 3053 
L 1275 3053 
L 1275 0 
L 697 0 
L 697 3053 
L 147 3053 
L 147 3500 
L 697 3500 
L 697 3744 
Q 697 4328 969 4595 
Q 1241 4863 1831 4863 
L 2375 4863 
z
" transform="scale(0.015625)"/>
     </defs>
     <use xlink:href="#DejaVuSans-66"/>
     <use xlink:href="#DejaVuSans-6f" x="35.205078"/>
     <use xlink:href="#DejaVuSans-72" x="96.386719"/>
     <use xlink:href="#DejaVuSans-6d" x="135.75"/>
     <use xlink:href="#DejaVuSans-61" x="233.162109"/>
     <use xlink:href="#DejaVuSans-74" x="294.441406"/>
    </g>
   </g>
  </g>
 </g>
</svg>
